SplineFontDB: 3.0
FontName: Manjari
FullName: Manjari
FamilyName: Manjari
Weight: Book
Copyright: Digitized data copyright (c) 2014, Santhosh Thottingal, Kavya Manohar,\nSwathanthra Malayalam Computing(http://smc.org.in)
Version: 1.0.0-alpha.20150822
ItalicAngle: 0
UnderlinePosition: -600
UnderlineWidth: 100
Ascent: 1434
Descent: 614
InvalidEm: 0
sfntRevision: 0x00060000
LayerCount: 2
Layer: 0 1 "Back" 1
Layer: 1 1 "Fore" 0
XUID: [1021 348 -393509193 4873957]
FSType: 0
OS2Version: 1
OS2_WeightWidthSlopeOnly: 0
OS2_UseTypoMetrics: 1
CreationTime: 1201144287
ModificationTime: 1440422635
PfmFamily: 17
TTFWeight: 400
TTFWidth: 5
LineGap: 0
VLineGap: 0
Panose: 2 0 5 3 0 0 0 0 0 0
OS2TypoAscent: 1434
OS2TypoAOffset: 0
OS2TypoDescent: -614
OS2TypoDOffset: 0
OS2TypoLinegap: 0
OS2WinAscent: 1465
OS2WinAOffset: 0
OS2WinDescent: 1414
OS2WinDOffset: 0
HheadAscent: 1465
HheadAOffset: 0
HheadDescent: -1414
HheadDOffset: 0
OS2SubXSize: 1331
OS2SubYSize: 1433
OS2SubXOff: 274
OS2SubYOff: 286
OS2SupXSize: 1331
OS2SupYSize: 1433
OS2SupXOff: -944
OS2SupYOff: 983
OS2StrikeYSize: 102
OS2StrikeYPos: 530
OS2Vendor: 'SMC '
OS2CodePages: 00000001.00000000
OS2UnicodeRanges: 80800003.00002000.00000000.00000000
Lookup: 4 0 0 "'akhn' Akhand in Malay+AQEA-lam lookup 0" { "'akhn' Akhand in Malay+AQEA-lam lookup 0 subtable"  } ['akhn' ('mlym' <'dflt' > ) ]
Lookup: 4 0 0 "'akhn' Akhand in Malay+AQEA-lam2 lookup 1" { "'akhn' Akhand in Malay+AQEA-lam2 lookup 1 subtable"  } ['akhn' ('mlm2' <'dflt' > ) ]
Lookup: 4 0 0 "'pref' Pre Base Forms in Malay+AQEA-lam2 lookup 2" { "'pref' Pre Base Forms in Malay+AQEA-lam2 lookup 2 subtable"  } ['pref' ('mlm2' <'dflt' > ) ]
Lookup: 4 0 0 "'half' Half Forms in Malay+AQEA-lam lookup 3" { "'half' Half Forms in Malay+AQEA-lam lookup 3 subtable"  } ['half' ('mlym' <'dflt' > ) ]
Lookup: 4 0 0 "'blwf' Below Base Forms in Malay+AQEA-lam lookup 4" { "'blwf' Below Base Forms in Malay+AQEA-lam lookup 4 subtable"  } ['blwf' ('mlym' <'dflt' > ) ]

StartChar: .notdef
Encoding: 175 -1 0
Width: 692
GlyphClass: 2
Flags: W
LayerCount: 2
Fore
SplineSet
45 1 m 1,0,-1
 45 1119 l 1,1,-1
 606 1119 l 1,2,-1
 606 1 l 1,3,-1
 45 1 l 1,0,-1
102 55 m 1,4,-1
 552 55 l 1,5,-1
 552 1063 l 1,6,-1
 102 1063 l 1,7,-1
 102 55 l 1,4,-1
EndSplineSet
EndChar

StartChar: exclam
Encoding: 1 33 4
Width: 445
GlyphClass: 2
Flags: W
LayerCount: 2
Fore
SplineSet
179.284179688 1167.74511719 m 128,-1,1
 196.59765625 1185.96191406 196.59765625 1185.96191406 217.678710938 1185.96191406 c 128,-1,2
 238.758789062 1185.96191406 238.758789062 1185.96191406 255.50390625 1169.64550781 c 128,-1,3
 272.248046875 1153.33007812 272.248046875 1153.33007812 276.50390625 1131.875 c 0,4,5
 347.451171875 795.762695312 347.451171875 795.762695312 334.860839844 559.058105469 c 128,-1,6
 322.270507812 322.353515625 322.270507812 322.353515625 218.573730469 320.598144531 c 128,-1,7
 114.876953125 318.842773438 114.876953125 318.842773438 101.993164062 554.7421875 c 128,-1,8
 89.1103515625 790.641601562 89.1103515625 790.641601562 159.508789062 1123.7890625 c 1,9,0
 161.970703125 1149.52832031 161.970703125 1149.52832031 179.284179688 1167.74511719 c 128,-1,1
274.416015625 206.87109375 m 0,10,11
 355.220703125 81.8662109375 355.220703125 81.8662109375 344.283203125 -14.775390625 c 0,12,13
 338.734375 -63.8017578125 338.734375 -63.8017578125 306.625976562 -98 c 128,-1,14
 274.517578125 -132.198242188 274.517578125 -132.198242188 236.048828125 -132.408203125 c 128,-1,15
 197.711914062 -132.619140625 197.711914062 -132.619140625 165.403320312 -101.483398438 c 128,-1,16
 133.09375 -70.34765625 133.09375 -70.34765625 123.530273438 -22.33203125 c 0,17,18
 104.448242188 73.4697265625 104.448242188 73.4697265625 174.1953125 198.279296875 c 0,19,20
 191.000522345 235.272460938 191.000522345 235.272460938 223.795183047 235.272460938 c 128,-1,21
 256.58984375 235.272460938 256.58984375 235.272460938 274.416015625 206.87109375 c 0,10,11
EndSplineSet
EndChar

StartChar: numbersign
Encoding: 3 35 6
Width: 942
GlyphClass: 2
Flags: W
LayerCount: 2
Fore
SplineSet
807 781 m 1,0,-1
 746 450 l 1,1,-1
 938 450 l 1,2,-1
 938 349 l 1,3,-1
 728 349 l 1,4,-1
 659 -28 l 1,5,-1
 544 -28 l 1,6,-1
 612 349 l 1,7,-1
 366 349 l 1,8,-1
 296 -28 l 1,9,-1
 183 -28 l 1,10,-1
 251 349 l 1,11,-1
 68 349 l 1,12,-1
 68 450 l 1,13,-1
 272 450 l 1,14,-1
 330 781 l 1,15,-1
 134 781 l 1,16,-1
 134 882 l 1,17,-1
 350 882 l 1,18,-1
 413 1231 l 1,19,-1
 530 1231 l 1,20,-1
 462 882 l 1,21,-1
 711 882 l 1,22,-1
 774 1231 l 1,23,-1
 891 1231 l 1,24,-1
 824 882 l 1,25,-1
 996 882 l 1,26,-1
 996 781 l 1,27,-1
 807 781 l 1,0,-1
446 781 m 1,28,-1
 384 450 l 1,29,-1
 633 450 l 1,30,-1
 692 781 l 1,31,-1
 446 781 l 1,28,-1
EndSplineSet
EndChar

StartChar: dollar
Encoding: 4 36 7
Width: 1120
GlyphClass: 2
Flags: W
LayerCount: 2
Fore
SplineSet
557.186523438 1439.98730469 m 4,0,1
 557.880859375 1440 557.880859375 1440 558.544921875 1440 c 4,2,3
 589.59765625 1440 589.59765625 1440 611.57421875 1418.02246094 c 132,-1,4
 633.551757812 1396.04492188 633.551757812 1396.04492188 633.551757812 1364.9921875 c 4,5,6
 633.551757812 1364.62011719 633.551757812 1364.62011719 633.547851562 1364.15917969 c 6,7,-1
 633.614257812 1342.44042969 l 5,8,9
 703.875976562 1340.49804688 703.875976562 1340.49804688 746.401367188 1331.47167969 c 4,10,11
 818.237304688 1316.22363281 818.237304688 1316.22363281 871.604492188 1276.62207031 c 4,12,13
 932.590820312 1231.36816406 932.590820312 1231.36816406 960.747070312 1163.02441406 c 4,14,15
 989.88671875 1092.29296875 989.88671875 1092.29296875 976.067382812 1017.30761719 c 4,16,17
 973.186523438 1000.35546875 973.186523438 1000.35546875 962.262695312 985.970703125 c 132,-1,18
 951.338867188 971.5859375 951.338867188 971.5859375 935.327148438 963.2265625 c 132,-1,19
 919.315429688 954.8671875 919.315429688 954.8671875 902.120117188 954.8671875 c 4,20,21
 881.755859375 954.8671875 881.755859375 954.8671875 864.475585938 964.909179688 c 132,-1,22
 847.1953125 974.950195312 847.1953125 974.950195312 837.154296875 992.23046875 c 132,-1,23
 827.112304688 1009.50976562 827.112304688 1009.50976562 827.112304688 1029.87402344 c 4,24,25
 827.112304688 1037.26074219 827.112304688 1037.26074219 828.551757812 1044.49707031 c 4,26,27
 834.361328125 1076.02050781 834.361328125 1076.02050781 822.057617188 1105.88574219 c 132,-1,28
 809.764648438 1135.72558594 809.764648438 1135.72558594 782.219726562 1156.16503906 c 4,29,30
 755.110351562 1176.28222656 755.110351562 1176.28222656 715.254882812 1184.74121094 c 4,31,32
 687.427734375 1190.6484375 687.427734375 1190.6484375 634.069335938 1192.35058594 c 5,33,-1
 635.458007812 735.397460938 l 5,34,35
 674.995117188 722.419921875 674.995117188 722.419921875 707.661132812 708.489257812 c 4,36,37
 817.59375 661.60546875 817.59375 661.60546875 893.299804688 584.502929688 c 4,38,39
 980.557617188 495.633789062 980.557617188 495.633789062 1008.97753906 383.1171875 c 4,40,41
 1031.51171875 293.896484375 1031.51171875 293.896484375 1010.87988281 210.639648438 c 4,42,43
 988.2734375 119.422851562 988.2734375 119.422851562 920.329101562 56.7158203125 c 4,44,45
 855.966796875 -2.6806640625 855.966796875 -2.6806640625 763.983398438 -22.5439453125 c 4,46,47
 711.616210938 -33.8505859375 711.616210938 -33.8505859375 637.791992188 -32.3349609375 c 5,48,-1
 638.077148438 -126.063476562 l 6,49,50
 638.087890625 -126.703125 638.087890625 -126.703125 638.087890625 -127.327148438 c 4,51,52
 638.087890625 -158.380859375 638.087890625 -158.380859375 616.110351562 -180.357421875 c 132,-1,53
 594.1328125 -202.334960938 594.1328125 -202.334960938 563.080078125 -202.334960938 c 132,-1,54
 532.02734375 -202.334960938 532.02734375 -202.334960938 510.049804688 -180.357421875 c 132,-1,55
 488.072265625 -158.380859375 488.072265625 -158.380859375 488.072265625 -127.327148438 c 4,56,-1
 487.770507812 -25.7568359375 l 5,57,58
 378.3046875 -16.0703125 378.3046875 -16.0703125 300.635742188 21.9384765625 c 4,59,60
 232.807617188 55.1318359375 232.807617188 55.1318359375 181.5859375 111.009765625 c 132,-1,61
 130.364257812 166.887695312 130.364257812 166.887695312 104.829101562 237.604492188 c 4,62,63
 100 250.40234375 100 250.40234375 100 264.083007812 c 4,64,65
 100 295.135742188 100 295.135742188 121.977539062 317.112304688 c 132,-1,66
 143.955078125 339.08984375 143.955078125 339.08984375 175.0078125 339.08984375 c 4,67,68
 189.5234375 339.08984375 189.5234375 339.08984375 204.17578125 332.323242188 c 132,-1,69
 218.827148438 325.557617188 218.827148438 325.557617188 230.002929688 313.9140625 c 132,-1,70
 241.177734375 302.270507812 241.177734375 302.270507812 245.913085938 288.547851562 c 4,71,72
 260.940429688 246.930664062 260.940429688 246.930664062 293.048828125 211.93359375 c 132,-1,73
 325.157226562 176.936523438 325.157226562 176.936523438 366.569335938 156.670898438 c 4,74,75
 413.212890625 133.844726562 413.212890625 133.844726562 487.311523438 125.434570312 c 5,76,-1
 485.797851562 623.174804688 l 5,77,78
 449.578125 633.993164062 449.578125 633.993164062 422.372070312 643.389648438 c 4,79,80
 260.942382812 699.143554688 260.942382812 699.143554688 185.5859375 799.098632812 c 4,81,82
 112.330078125 896.270507812 112.330078125 896.270507812 119.045898438 1016.11230469 c 132,-1,83
 125.76171875 1135.97949219 125.76171875 1135.97949219 209.831054688 1224.31542969 c 4,84,85
 285.134765625 1303.44335938 285.134765625 1303.44335938 402.094726562 1330.46972656 c 4,86,87
 440.0390625 1339.23925781 440.0390625 1339.23925781 483.612304688 1342.39746094 c 5,88,-1
 483.547851562 1363.70410156 l 6,89,90
 483.536132812 1364.31347656 483.536132812 1364.31347656 483.536132812 1364.9921875 c 4,91,92
 483.536132812 1395.48828125 483.536132812 1395.48828125 505.115234375 1417.46191406 c 132,-1,93
 526.6953125 1439.43554688 526.6953125 1439.43554688 557.186523438 1439.98730469 c 4,0,1
484.071289062 1191.73339844 m 5,94,95
 457.467773438 1189.31445312 457.467773438 1189.31445312 435.866210938 1184.32128906 c 4,96,97
 362.763671875 1167.4296875 362.763671875 1167.4296875 318.489257812 1120.90722656 c 4,98,99
 272.44140625 1072.52246094 272.44140625 1072.52246094 268.811523438 1007.72167969 c 4,100,101
 265.16796875 942.7109375 265.16796875 942.7109375 305.362304688 889.395507812 c 4,102,103
 353.166015625 825.985351562 353.166015625 825.985351562 471.340820312 785.170898438 c 4,104,105
 477.752929688 782.95703125 477.752929688 782.95703125 485.321289062 780.489257812 c 5,106,-1
 484.071289062 1191.73339844 l 5,94,95
635.944335938 575.791992188 m 5,107,-1
 637.336914062 117.780273438 l 5,108,109
 697.94921875 116.655273438 697.94921875 116.655273438 732.325195312 124.077148438 c 4,110,111
 784.311523438 135.303710938 784.311523438 135.303710938 818.598632812 166.946289062 c 4,112,113
 853.495117188 199.153320312 853.495117188 199.153320312 865.284179688 246.723632812 c 4,114,115
 876.888671875 293.548828125 876.888671875 293.548828125 863.543945312 346.383789062 c 4,116,117
 845.069335938 419.524414062 845.069335938 419.524414062 786.268554688 479.411132812 c 4,118,119
 731.397460938 535.294921875 731.397460938 535.294921875 648.817382812 570.512695312 c 4,120,121
 642.732421875 573.108398438 642.732421875 573.108398438 635.944335938 575.791992188 c 5,107,-1
EndSplineSet
EndChar

StartChar: percent
Encoding: 5 37 8
Width: 1485
GlyphClass: 2
Flags: W
LayerCount: 2
Fore
SplineSet
1397.5 56.5 m 128,-1,1
 1312 -30 1312 -30 1190 -30 c 128,-1,2
 1068 -30 1068 -30 984 56 c 128,-1,3
 900 142 900 142 899 264 c 0,4,5
 899 386 899 386 984.5 472 c 128,-1,6
 1070 558 1070 558 1193 558 c 128,-1,7
 1316 558 1316 558 1399 473 c 128,-1,8
 1482 388 1482 388 1482.5 265.5 c 128,-1,0
 1483 143 1483 143 1397.5 56.5 c 128,-1,1
505 -30 m 1,9,-1
 413 -30 l 1,10,-1
 1105 1251 l 1,11,-1
 1196 1251 l 1,12,-1
 505 -30 l 1,9,-1
623.5 705.5 m 128,-1,14
 538 620 538 620 416 620 c 128,-1,15
 294 620 294 620 209.5 704.5 c 128,-1,16
 125 789 125 789 125 913 c 128,-1,17
 125 1037 125 1037 209.5 1121.5 c 128,-1,18
 294 1206 294 1206 417 1206 c 128,-1,19
 540 1206 540 1206 624.5 1120.5 c 128,-1,20
 709 1035 709 1035 709 913 c 128,-1,13
 709 791 709 791 623.5 705.5 c 128,-1,14
1328 401.5 m 128,-1,22
 1272 458 1272 458 1191 458 c 128,-1,23
 1110 458 1110 458 1055 402.5 c 128,-1,24
 1000 347 1000 347 1000 266 c 128,-1,25
 1000 185 1000 185 1055 129.5 c 128,-1,26
 1110 74 1110 74 1190 74 c 128,-1,27
 1270 74 1270 74 1327 129.5 c 128,-1,28
 1384 185 1384 185 1384 265 c 128,-1,21
 1384 345 1384 345 1328 401.5 c 128,-1,22
553 1050 m 128,-1,30
 498 1107 498 1107 417 1107 c 128,-1,31
 336 1107 336 1107 281 1050 c 128,-1,32
 226 993 226 993 226 913 c 128,-1,33
 226 833 226 833 281 778 c 128,-1,34
 336 723 336 723 417 723 c 128,-1,35
 498 723 498 723 553 778 c 128,-1,36
 608 833 608 833 608 913 c 128,-1,29
 608 993 608 993 553 1050 c 128,-1,30
EndSplineSet
EndChar

StartChar: ampersand
Encoding: 6 38 9
Width: 1216
GlyphClass: 2
Flags: W
LayerCount: 2
Fore
SplineSet
264 1150 m 4,0,1
 281 1221 281 1221 326 1273 c 4,2,3
 430 1394 430 1394 585 1379 c 4,4,5
 704 1368 704 1368 783 1279 c 132,-1,6
 862 1190 862 1190 858 1064 c 4,7,8
 852 871 852 871 616 728 c 5,9,10
 753 552 753 552 846 431 c 5,11,12
 882 532 882 532 886 643 c 4,13,14
 887 671 887 671 907.5 691.5 c 132,-1,15
 928 712 928 712 956.5 712 c 132,-1,16
 985 712 985 712 1005.5 691.5 c 132,-1,17
 1026 671 1026 671 1026 655 c 4,18,19
 1026 469 1026 469 945 304 c 5,20,21
 1100 103 1100 103 1108 92.5 c 132,-1,22
 1116 82 1116 82 1116 55 c 132,-1,23
 1116 28 1116 28 1095.5 7.5 c 132,-1,24
 1075 -13 1075 -13 1043 -13 c 132,-1,25
 1011 -13 1011 -13 988.5 17 c 4,26,27
 912 119 912 119 864 179 c 5,28,29
 787 86 787 86 691 41 c 132,-1,30
 595 -4 595 -4 501.5 -5.5 c 132,-1,31
 408 -7 408 -7 323 32 c 132,-1,32
 238 71 238 71 179.5 145 c 132,-1,33
 121 219 121 219 105 313.5 c 132,-1,34
 89 408 89 408 127 509 c 4,35,36
 180 650 180 650 406 772 c 5,37,38
 401 779 401 779 379 806 c 132,-1,39
 357 833 357 833 329 871 c 4,40,41
 230 1008 230 1008 264 1150 c 4,0,1
678 1186 m 132,-1,43
 636 1234 636 1234 584 1238 c 4,44,45
 462 1249 462 1249 414 1153 c 4,46,47
 386 1097 386 1097 399.051896208 1044.29041916 c 132,-1,48
 412.103792415 991.580838323 412.103792415 991.580838323 530 840 c 5,49,50
 714 949 714 949 718 1075 c 4,51,42
 720 1138 720 1138 678 1186 c 132,-1,43
493 659 m 5,52,53
 409 614 409 614 368 584 c 4,54,55
 220 475 220 475 242 344.5 c 132,-1,56
 264 214 264 214 381.5 160 c 132,-1,57
 499 106 499 106 624 165 c 4,58,59
 714 207 714 207 776 293 c 5,60,61
 640 470 640 470 493 659 c 5,52,53
EndSplineSet
EndChar

StartChar: quotesingle
Encoding: 7 39 10
Width: 382
GlyphClass: 2
Flags: W
LayerCount: 2
Fore
SplineSet
127 1403.5 m 132,-1,1
 154 1426 154 1426 187 1426.5 c 132,-1,2
 220 1427 220 1427 251.5 1404 c 132,-1,3
 283 1381 283 1381 282 1350 c 5,4,-1
 260 1033 l 5,5,6
 260 1002 260 1002 238 979.5 c 132,-1,7
 216 957 216 957 185 957 c 132,-1,8
 154 957 154 957 132 979.5 c 132,-1,9
 110 1002 110 1002 110 1033 c 5,10,-1
 100 1351 l 6,11,0
 100 1381 100 1381 127 1403.5 c 132,-1,1
EndSplineSet
EndChar

StartChar: parenleft
Encoding: 8 40 11
Width: 705
GlyphClass: 2
Flags: W
LayerCount: 2
Fore
SplineSet
478 1218 m 0,0,1
 498 1235 498 1235 527 1235 c 128,-1,2
 556 1235 556 1235 578 1213 c 128,-1,3
 600 1191 600 1191 600 1157 c 128,-1,4
 600 1123 600 1123 570 1100 c 0,5,6
 422 984 422 984 336 807 c 128,-1,7
 250 630 250 630 250 441 c 128,-1,8
 250 252 250 252 337.5 74 c 128,-1,9
 425 -104 425 -104 575 -220 c 0,10,11
 606 -242 606 -242 606 -276.5 c 128,-1,12
 606 -311 606 -311 584 -333 c 128,-1,13
 562 -355 562 -355 533 -355 c 128,-1,14
 504 -355 504 -355 484 -338 c 0,15,16
 305 -200 305 -200 202.5 7.5 c 128,-1,17
 100 215 100 215 100 440.5 c 128,-1,18
 100 666 100 666 200.5 873 c 128,-1,19
 301 1080 301 1080 478 1218 c 0,0,1
EndSplineSet
EndChar

StartChar: asterisk
Encoding: 10 42 13
Width: 955
GlyphClass: 2
Flags: W
LayerCount: 2
Fore
SplineSet
411.327148438 1362.03710938 m 2,0,1
 411.299804688 1362.98217773 411.299804688 1362.98217773 411.299804688 1377.56713852 c 128,-1,2
 411.299804688 1392.15209931 411.299804688 1392.15209931 431.628664654 1413.07604966 c 128,-1,3
 451.957524621 1434 451.957524621 1434 481.123255793 1434 c 128,-1,4
 510.288986964 1434 510.288986964 1434 530.801231763 1413.48795281 c 128,-1,5
 551.313476562 1392.97590561 551.313476562 1392.97590561 551.313476562 1363.99316406 c 2,6,-1
 554.745117188 1115.1875 l 1,7,-1
 847.196289062 1301.97460938 l 2,8,9
 864.720306038 1313.52148438 864.720306038 1313.52148438 889.705001652 1313.52148438 c 128,-1,10
 914.689697266 1313.52148438 914.689697266 1313.52148438 935.201782227 1293.00939941 c 128,-1,11
 955.713867188 1272.49731445 955.713867188 1272.49731445 955.713867188 1252.7116657 c 0,12,13
 955.713867188 1204.51523883 955.713867188 1204.51523883 922.553710938 1183.98828125 c 2,14,-1
 618.711914062 989.92578125 l 1,15,-1
 921.543945312 805.125 l 2,16,17
 955.969726562 784.808145492 955.969726562 784.808145492 955.969726562 750.329731926 c 128,-1,18
 955.969726562 715.851318359 955.969726562 715.851318359 935.457641602 695.339233398 c 128,-1,19
 914.945556641 674.827148438 914.945556641 674.827148438 890.337664072 674.827148438 c 128,-1,20
 865.729771503 674.827148438 865.729771503 674.827148438 848.616210938 685.62109375 c 2,21,-1
 558.225585938 862.830078125 l 1,22,-1
 562.551757812 549.099609375 l 2,23,24
 562.579101562 548.086067708 562.579101562 548.086067708 562.579101562 533.117618815 c 128,-1,25
 562.579101562 518.149169922 562.579101562 518.149169922 542.067016602 497.637084961 c 128,-1,26
 521.554931641 477.125 521.554931641 477.125 492.572265625 477.125 c 128,-1,27
 463.588942723 477.125 463.588942723 477.125 443.076697924 497.637047194 c 128,-1,28
 422.564453125 518.149094387 422.564453125 518.149094387 422.564453125 547.131835938 c 2,29,-1
 418.225585938 861.876953125 l 1,30,-1
 108.571289062 664.1015625 l 2,31,32
 91.0266060686 652.522460938 91.0266060686 652.522460938 66.0253879952 652.522460938 c 128,-1,33
 41.0241699219 652.522460938 41.0241699219 652.522460938 20.5120849609 673.034545898 c 128,-1,34
 0 693.546630859 0 693.546630859 0 727.558007742 c 128,-1,35
 0 761.569384625 0 761.569384625 33.2138671875 782.087890625 c 2,36,-1
 354.387695312 987.220703125 l 1,37,-1
 35.6435546875 1181.73046875 l 2,38,39
 1.255859375 1202.05384789 1.255859375 1202.05384789 1.255859375 1235.97791297 c 128,-1,40
 1.255859375 1269.90197805 1.255859375 1269.90197805 21.5235808982 1290.95391871 c 128,-1,41
 41.7913024214 1312.00585938 41.7913024214 1312.00585938 66.6294493698 1312.00585938 c 128,-1,42
 91.4675963182 1312.00585938 91.4675963182 1312.00585938 108.569335938 1301.23632812 c 2,43,-1
 414.743164062 1114.39648438 l 1,44,-1
 411.327148438 1362.03710938 l 2,0,1
EndSplineSet
EndChar

StartChar: plus
Encoding: 11 43 14
Width: 1050
GlyphClass: 2
Flags: W
LayerCount: 2
Fore
SplineSet
577 373 m 1,0,-1
 577 0 l 1,1,-1
 473 0 l 1,2,-1
 473 373 l 1,3,-1
 100 373 l 1,4,-1
 100 477 l 1,5,-1
 473 477 l 1,6,-1
 473 850 l 1,7,-1
 577 850 l 1,8,-1
 577 477 l 1,9,-1
 950 477 l 1,10,-1
 950 373 l 1,11,-1
 577 373 l 1,0,-1
EndSplineSet
EndChar

StartChar: comma
Encoding: 12 44 15
Width: 506
GlyphClass: 2
Flags: W
LayerCount: 2
Fore
SplineSet
142 241 m 132,-1,1
 184 283 184 283 231 283 c 132,-1,2
 278 283 278 283 309 267 c 4,3,4
 452 191 452 191 385 -28 c 4,5,6
 335 -192 335 -192 211 -274 c 4,7,8
 193 -286 193 -286 168 -286.5 c 132,-1,9
 143 -287 143 -287 122.5 -266.5 c 132,-1,10
 102 -246 102 -246 102 -212.5 c 132,-1,11
 102 -179 102 -179 137 -155 c 4,12,13
 217 -102 217 -102 246 -5 c 5,14,15
 245 -5 245 -5 244 -5 c 4,16,17
 184 -5 184 -5 142 37 c 132,-1,18
 100 79 100 79 100 139 c 132,-1,0
 100 199 100 199 142 241 c 132,-1,1
EndSplineSet
EndChar

StartChar: hyphen
Encoding: 13 45 16
Width: 618
GlyphClass: 2
Flags: W
LayerCount: 2
Fore
SplineSet
100 368 m 1,0,-1
 100 494 l 1,1,-1
 518 494 l 1,2,-1
 518 368 l 1,3,-1
 100 368 l 1,0,-1
EndSplineSet
EndChar

StartChar: period
Encoding: 14 46 17
Width: 489
GlyphClass: 2
Flags: W
LayerCount: 2
Fore
SplineSet
100 135.5 m 128,-1,1
 100 193.19921875 100 193.19921875 142.366210938 234.099609375 c 128,-1,2
 184.733398438 275 184.733398438 275 244.5 275 c 128,-1,3
 304.266601562 275 304.266601562 275 346.633789062 234.099609375 c 128,-1,4
 389 193.19921875 389 193.19921875 389 135.5 c 128,-1,5
 389 77.80078125 389 77.80078125 346.633789062 36.900390625 c 128,-1,6
 304.266601562 -4 304.266601562 -4 244.5 -4 c 128,-1,7
 184.733398438 -4 184.733398438 -4 142.366210938 36.900390625 c 128,-1,0
 100 77.80078125 100 77.80078125 100 135.5 c 128,-1,1
EndSplineSet
EndChar

StartChar: slash
Encoding: 15 47 18
Width: 572
GlyphClass: 2
Flags: W
LayerCount: 2
Fore
SplineSet
211 1 m 1,0,-1
 74 1 l 1,1,-1
 501 1317 l 1,2,-1
 638 1317 l 1,3,-1
 211 1 l 1,0,-1
EndSplineSet
EndChar

StartChar: zero
Encoding: 16 48 19
Width: 1219
GlyphClass: 2
Flags: W
LayerCount: 2
Fore
SplineSet
607 1385 m 5,0,1
 624 1385 l 5,2,3
 753 1382 753 1382 858 1307.5 c 4,4,5
 1125.57878079 1117.64648411 1125.57878079 1117.64648411 1119 667 c 4,6,7
 1110.77540778 224.516938519 1110.77540778 224.516938519 849 50 c 4,8,9
 737 -24 737 -24 610.5 -25 c 132,-1,10
 484 -26 484 -26 377 44.5 c 4,11,12
 103.285278625 224.844746327 103.285278625 224.844746327 100 670 c 4,13,14
 98 950 98 950 203 1130 c 4,15,16
 271 1246 271 1246 377.5 1314.5 c 132,-1,17
 484 1383 484 1383 607 1385 c 5,0,1
776 1181.5 m 4,18,19
 703 1233 703 1233 619 1235 c 132,-1,20
 535 1237 535 1237 458.5 1188 c 4,21,22
 246.808312706 1052.40663167 246.808312706 1052.40663167 250 671 c 4,23,24
 253.171470806 306.280857354 253.171470806 306.280857354 453 174 c 4,25,26
 528 125 528 125 609.5 125 c 132,-1,27
 691 125 691 125 763.5 173.5 c 4,28,29
 962.682543535 306.746253261 962.682543535 306.746253261 969.01110055 673.808110434 c 132,-1,30
 975.339657566 1040.86996761 975.339657566 1040.86996761 776 1181.5 c 4,18,19
EndSplineSet
EndChar

StartChar: one
Encoding: 17 49 20
Width: 772
GlyphClass: 2
Flags: W
LayerCount: 2
Fore
SplineSet
329 1344 m 4,0,1
 352 1387 352 1387 390.5 1387 c 132,-1,2
 429 1387 429 1387 451 1365 c 132,-1,3
 473 1343 473 1343 473 1312 c 6,4,-1
 472 136 l 1,5,6
 544 136 544 136 616 136 c 0,7,8
 631 136 631 136 651.5 115.5 c 128,-1,9
 672 95 672 95 672 66 c 128,-1,10
 672 37 672 37 651.5 16.5 c 128,-1,11
 631 -4 631 -4 602 -4 c 0,12,13
 386 -4 386 -4 170 -4 c 0,14,15
 141 -4 141 -4 120.5 16.5 c 128,-1,16
 100 37 100 37 100 66 c 128,-1,17
 100 95 100 95 120.5 115.5 c 128,-1,18
 141 136 141 136 156 136 c 0,19,20
 239 136 239 136 322 136 c 1,21,-1
 322 1098 l 5,22,23
 269 1054 269 1054 194 1035 c 4,24,25
 186 1033 186 1033 166.5 1033 c 132,-1,26
 147 1033 147 1033 125 1055 c 132,-1,27
 103 1077 103 1077 103 1101 c 132,-1,28
 103 1125 103 1125 116.5 1150 c 132,-1,29
 130 1175 130 1175 155 1180 c 4,30,31
 250 1198 250 1198 329 1344 c 4,0,1
EndSplineSet
EndChar

StartChar: two
Encoding: 18 50 21
Width: 1115
GlyphClass: 2
Flags: W
LayerCount: 2
Fore
SplineSet
175 -0 m 6,0,1
 144 0 144 0 122 22 c 128,-1,2
 100 44 100 44 100 78 c 128,-1,3
 100 112 100 112 130 135 c 0,4,5
 356 306 356 306 503 446 c 128,-1,6
 650 586 650 586 707.5 659.5 c 128,-1,7
 765 733 765 733 787 803 c 0,8,9
 833 945 833 945 778 1065 c 0,10,11
 742 1143 742 1143 666 1194 c 128,-1,12
 590 1245 590 1245 487 1233 c 128,-1,13
 384 1221 384 1221 317 1134 c 0,14,15
 284 1091 284 1091 275 1054 c 0,16,17
 257 984 257 984 198 984 c 0,18,19
 167 984 167 984 145 1006 c 128,-1,20
 123 1028 123 1028 123 1049 c 128,-1,21
 123 1070 123 1070 126 1080 c 0,22,23
 171 1247 171 1247 321 1332.5 c 128,-1,24
 471 1418 471 1418 638 1370 c 0,25,26
 730 1344 730 1344 802.5 1279.5 c 128,-1,27
 875 1215 875 1215 914 1129 c 0,28,29
 1018 899 1018 899 886 657 c 0,30,31
 839 572 839 572 775 505 c 0,32,33
 610 332 610 332 391 150 c 1,34,35
 950 150 l 2,36,37
 960 150 960 150 988 134 c 0,38,39
 1016 118 1016 118 1016 81 c 128,-1,40
 1016 44 1016 44 994 22 c 128,-1,41
 972 0 972 0 941 -0 c 6,42,43
 175 -0 l 6,0,1
EndSplineSet
EndChar

StartChar: three
Encoding: 19 51 22
Width: 1039
GlyphClass: 2
Flags: W
LayerCount: 2
Fore
SplineSet
285.5 1296 m 128,-1,1
 375 1365 375 1365 478 1374 c 0,2,3
 661 1391 661 1391 787 1273 c 0,4,5
 847 1216 847 1216 879 1139 c 0,6,7
 931 1013 931 1013 894 896.5 c 128,-1,8
 857 780 857 780 772 709 c 1,9,10
 869 652 869 652 906 564 c 128,-1,11
 943 476 943 476 939.5 391.5 c 128,-1,12
 936 307 936 307 897 228.5 c 128,-1,13
 858 150 858 150 793 94 c 0,14,15
 659 -20 659 -20 480 -12 c 0,16,17
 371 -8 371 -8 274 44.5 c 128,-1,18
 177 97 177 97 114 186 c 0,19,20
 100 206 100 206 100 233.5 c 128,-1,21
 100 261 100 261 122 283 c 128,-1,22
 144 305 144 305 179.5 305 c 128,-1,23
 215 305 215 305 237 273 c 0,24,25
 279 214 279 214 346.5 177.5 c 128,-1,26
 414 141 414 141 478 138 c 0,27,28
 606 132 606 132 695.5 208.5 c 128,-1,29
 785 285 785 285 789.5 394 c 128,-1,30
 794 503 794 503 721 563 c 0,31,32
 687 591 687 591 644 602.5 c 128,-1,33
 601 614 601 614 526 618 c 2,34,-1
 504 619 l 2,35,36
 457 622 457 622 439 663.5 c 128,-1,37
 421 705 421 705 446 735 c 128,-1,38
 471 765 471 765 498 768 c 1,39,-1
 521 772 l 2,40,41
 526 773 526 773 531 772 c 1,42,-1
 532 772 l 2,43,44
 622 772 622 772 687.5 834 c 128,-1,45
 753 896 753 896 757.5 994 c 128,-1,46
 762 1092 762 1092 684.5 1164 c 128,-1,47
 607 1236 607 1236 501 1226 c 0,48,49
 432 1220 432 1220 377 1177.5 c 128,-1,50
 322 1135 322 1135 305 1087.5 c 128,-1,51
 288 1040 288 1040 264.5 1029.5 c 128,-1,52
 241 1019 241 1019 218.5 1019 c 128,-1,53
 196 1019 196 1019 174 1041 c 128,-1,54
 152 1063 152 1063 152 1085.5 c 128,-1,55
 152 1108 152 1108 157 1121 c 0,56,0
 196 1227 196 1227 285.5 1296 c 128,-1,1
EndSplineSet
EndChar

StartChar: four
Encoding: 20 52 23
Width: 1303
GlyphClass: 2
Flags: W
LayerCount: 2
Fore
SplineSet
829 -7 m 132,-1,1
 798 -7 798 -7 776 15 c 132,-1,2
 754 37 754 37 754 68 c 6,3,4
 754 69 l 5,5,-1
 753 405 l 5,6,-1
 175 407 l 6,7,8
 144 407 144 407 122 429 c 132,-1,9
 100 451 100 451 100 479.5 c 132,-1,10
 100 508 100 508 116 529 c 6,11,-1
 767 1345 l 6,12,13
 790 1373 790 1373 823 1373 c 132,-1,14
 856 1373 856 1373 878 1351 c 132,-1,15
 900 1329 900 1329 900 1298 c 6,16,-1
 903 555 l 5,17,-1
 1127 554 l 5,18,19
 1128 554 l 6,20,21
 1159 554 1159 554 1181 532 c 132,-1,22
 1203 510 1203 510 1203 479 c 132,-1,23
 1203 448 1203 448 1181 426 c 132,-1,24
 1159 404 1159 404 1128 404 c 4,25,26
 1127 404 1127 404 1126 404 c 6,27,-1
 903 405 l 5,28,-1
 904 69 l 5,29,30
 904 68 l 6,31,32
 904 37 904 37 882 15 c 132,-1,0
 860 -7 860 -7 829 -7 c 132,-1,1
753 555 m 5,33,-1
 751 1084 l 5,34,-1
 330 557 l 5,35,-1
 753 555 l 5,33,-1
EndSplineSet
EndChar

StartChar: five
Encoding: 21 53 24
Width: 1135
GlyphClass: 2
Flags: W
LayerCount: 2
Fore
SplineSet
328 1377 m 4,0,1
 635 1377 635 1377 942 1377 c 4,2,3
 973 1377 973 1377 995 1355 c 132,-1,4
 1017 1333 1017 1333 1017 1310 c 4,5,6
 1017 1271 1017 1271 995 1249 c 132,-1,7
 973 1227 973 1227 942 1227 c 4,8,9
 667 1227 667 1227 392 1227 c 5,10,-1
 335 884 l 5,11,12
 441 940 441 940 558 940 c 132,-1,13
 675 940 675 940 780 884.5 c 132,-1,14
 885 829 885 829 960 719.5 c 132,-1,15
 1035 610 1035 610 1035 461 c 132,-1,16
 1035 312 1035 312 956.5 196.5 c 132,-1,17
 878 81 878 81 760.5 23.5 c 132,-1,18
 643 -34 643 -34 512.5 -24.5 c 132,-1,19
 382 -15 382 -15 273.5 58.5 c 132,-1,20
 165 132 165 132 108 249 c 4,21,22
 100 265 100 265 100 289.5 c 132,-1,23
 100 314 100 314 122 336 c 132,-1,24
 144 358 144 358 169 358 c 4,25,26
 222 358 222 358 243 315 c 4,27,28
 283 233 283 233 358 182.5 c 132,-1,29
 433 132 433 132 523.5 125.5 c 132,-1,30
 614 119 614 119 695.5 158.5 c 132,-1,31
 777 198 777 198 831 278 c 132,-1,32
 885 358 885 358 885 460.5 c 132,-1,33
 885 563 885 563 826.5 649.5 c 132,-1,34
 768 736 768 736 661 772 c 4,35,36
 610 790 610 790 545 790 c 132,-1,37
 480 790 480 790 406 751 c 132,-1,38
 332 712 332 712 288 648 c 4,39,40
 266 615 266 615 230.5 615 c 132,-1,41
 195 615 195 615 173 637 c 132,-1,42
 151 659 151 659 151 677.5 c 132,-1,43
 151 696 151 696 153 702 c 6,44,-1
 255 1314 l 6,45,46
 261 1350 261 1350 286 1363.5 c 132,-1,47
 311 1377 311 1377 328 1377 c 4,0,1
EndSplineSet
EndChar

StartChar: six
Encoding: 22 54 25
Width: 1197
GlyphClass: 2
Flags: W
LayerCount: 2
Fore
SplineSet
970 119 m 4,0,1
 917 61 917 61 826 19.5 c 132,-1,2
 735 -22 735 -22 621 -17.5 c 132,-1,3
 507 -13 507 -13 402 53 c 132,-1,4
 297 119 297 119 231 218 c 4,5,6
 110 399 110 399 100.5 662 c 132,-1,7
 91 925 91 925 201 1114 c 4,8,9
 266 1226 266 1226 370 1299.5 c 132,-1,10
 474 1373 474 1373 603 1385 c 132,-1,11
 732 1397 732 1397 849 1337 c 132,-1,12
 966 1277 966 1277 1033 1163 c 4,13,14
 1044 1145 1044 1145 1044 1119.5 c 132,-1,15
 1044 1094 1044 1094 1022 1072 c 132,-1,16
 1000 1050 1000 1050 978 1050 c 4,17,18
 925 1050 925 1050 903 1088 c 4,19,20
 859 1164 859 1164 780.5 1204 c 132,-1,21
 702 1244 702 1244 615 1236 c 132,-1,22
 528 1228 528 1228 454 1175 c 4,23,24
 250 1029 250 1029 250 696 c 5,25,26
 251 697 251 697 252 699 c 4,27,28
 312 795 312 795 423.5 850.5 c 132,-1,29
 535 906 535 906 636 902 c 4,30,31
 825 894 825 894 950 776.5 c 132,-1,32
 1075 659 1075 659 1094 489 c 4,33,34
 1118 282 1118 282 970 119 c 4,0,1
476 183 m 4,35,36
 621 92 621 92 770 159 c 4,37,38
 891 214 891 214 930.5 339 c 132,-1,39
 970 464 970 464 916 572.5 c 132,-1,40
 862 681 862 681 742.5 731.5 c 132,-1,41
 623 782 623 782 495 719 c 4,42,43
 423 683 423 683 377 616.5 c 132,-1,44
 331 550 331 550 323.5 469.5 c 132,-1,45
 316 389 316 389 348 315 c 4,46,47
 350 312 350 312 350.5 310 c 132,-1,48
 351 308 351 308 352 307 c 4,49,50
 403 229 403 229 476 183 c 4,35,36
EndSplineSet
EndChar

StartChar: seven
Encoding: 23 55 26
Width: 1235
GlyphClass: 2
Flags: W
LayerCount: 2
Fore
SplineSet
540 -25 m 4,0,1
 517 -25 517 -25 495 -3 c 132,-1,2
 473 19 473 19 473 40.5 c 132,-1,3
 473 62 473 62 477 73 c 4,4,5
 667 667 667 667 940 1230 c 5,6,7
 558 1230 558 1230 175 1230 c 4,8,9
 144 1230 144 1230 122 1252 c 132,-1,10
 100 1274 100 1274 100 1305 c 132,-1,11
 100 1336 100 1336 122 1358 c 132,-1,12
 144 1380 144 1380 175 1380 c 4,13,14
 617 1380 617 1380 1060 1380 c 4,15,16
 1103 1380 1103 1380 1125 1343 c 4,17,18
 1135 1326 1135 1326 1135 1306.5 c 132,-1,19
 1135 1287 1135 1287 1127 1271 c 4,20,21
 825 669 825 669 619 28 c 4,22,23
 604 -25 604 -25 540 -25 c 4,0,1
EndSplineSet
EndChar

StartChar: eight
Encoding: 24 56 27
Width: 1070
GlyphClass: 2
Flags: W
LayerCount: 2
Fore
SplineSet
769 707 m 5,0,1
 882 642 882 642 935 526 c 4,2,3
 1009 366 1009 366 930 210 c 4,4,5
 892 135 892 135 827 82 c 4,6,7
 705 -19 705 -19 535 -19 c 132,-1,8
 365 -19 365 -19 242 82 c 4,9,10
 178 135 178 135 139.5 210 c 132,-1,11
 101 285 101 285 100 370 c 132,-1,12
 99 455 99 455 137 533 c 4,13,14
 191 645 191 645 300 708 c 5,15,16
 219 766 219 766 182.5 845.5 c 132,-1,17
 146 925 146 925 145 1003 c 4,18,19
 142 1166 142 1166 263 1276 c 132,-1,20
 384 1386 384 1386 543.5 1381 c 132,-1,21
 703 1376 703 1376 816 1266.5 c 132,-1,22
 929 1157 929 1157 926 986.5 c 132,-1,23
 923 816 923 816 769 707 c 5,0,1
708 1162 m 4,24,25
 635 1233 635 1233 535 1231 c 132,-1,26
 435 1229 435 1229 364 1164.5 c 132,-1,27
 293 1100 293 1100 294.5 1006 c 132,-1,28
 296 912 296 912 367 847.5 c 132,-1,29
 438 783 438 783 536 783 c 4,30,31
 681 783 681 783 747 902 c 4,32,33
 798 994 798 994 758 1088 c 4,34,35
 740 1131 740 1131 708 1162 c 4,24,25
534.5 618.5 m 132,-1,37
 416 617 416 617 337 552 c 4,38,39
 296 518 296 518 272.5 469 c 132,-1,40
 249 420 249 420 250 372 c 4,41,42
 252 269 252 269 335.5 200 c 132,-1,43
 419 131 419 131 535 131 c 132,-1,44
 651 131 651 131 734 199.5 c 132,-1,45
 817 268 817 268 819 370 c 132,-1,46
 821 472 821 472 737 546 c 132,-1,36
 653 620 653 620 534.5 618.5 c 132,-1,37
EndSplineSet
EndChar

StartChar: semicolon
Encoding: 27 59 30
Width: 425
GlyphClass: 2
Flags: W
LayerCount: 2
Fore
SplineSet
100 740.5 m 132,-1,1
 100 798.19921875 100 798.19921875 142.366210938 839.099609375 c 132,-1,2
 184.733398438 880 184.733398438 880 244.5 880 c 132,-1,3
 304.266601562 880 304.266601562 880 346.633789062 839.099609375 c 132,-1,4
 389 798.19921875 389 798.19921875 389 740.5 c 132,-1,5
 389 682.80078125 389 682.80078125 346.633789062 641.900390625 c 132,-1,6
 304.266601562 601 304.266601562 601 244.5 601 c 132,-1,7
 184.733398438 601 184.733398438 601 142.366210938 641.900390625 c 132,-1,0
 100 682.80078125 100 682.80078125 100 740.5 c 132,-1,1
132 241 m 128,-1,9
 174 283 174 283 221 283 c 128,-1,10
 268 283 268 283 299 267 c 0,11,12
 442 191 442 191 375 -28 c 0,13,14
 325 -192 325 -192 201 -274 c 0,15,16
 183 -286 183 -286 158 -286.5 c 128,-1,17
 133 -287 133 -287 112.5 -266.5 c 128,-1,18
 92 -246 92 -246 92 -212.5 c 128,-1,19
 92 -179 92 -179 127 -155 c 0,20,21
 207 -102 207 -102 236 -5 c 1,22,23
 235 -5 235 -5 234 -5 c 0,24,25
 174 -5 174 -5 132 37 c 128,-1,26
 90 79 90 79 90 139 c 128,-1,8
 90 199 90 199 132 241 c 128,-1,9
EndSplineSet
EndChar

StartChar: less
Encoding: 28 60 31
Width: 944
GlyphClass: 2
Flags: W
LayerCount: 2
Fore
SplineSet
86 412 m 1,0,-1
 86 522 l 1,1,-1
 947 886 l 1,2,-1
 947 768 l 1,3,-1
 217 468 l 1,4,-1
 947 166 l 1,5,-1
 947 48 l 1,6,-1
 86 412 l 1,0,-1
EndSplineSet
EndChar

StartChar: equal
Encoding: 29 61 32
Width: 1109
GlyphClass: 2
Flags: W
LayerCount: 2
Fore
SplineSet
171 450 m 5,0,-1
 939 450 l 5,1,2
 954 451 l 6,3,4
 969 451 969 451 989.5 430 c 132,-1,5
 1010 409 1010 409 1010 380.5 c 132,-1,6
 1010 352 1010 352 989.5 331 c 132,-1,7
 969 310 969 310 954 310 c 4,8,9
 555 310 555 310 156 310 c 4,10,11
 141 310 141 310 120.5 331 c 132,-1,12
 100 352 100 352 100 380.5 c 132,-1,13
 100 409 100 409 120 430 c 132,-1,14
 140 451 140 451 148 451 c 6,15,-1
 171 450 l 5,0,-1
171 771 m 5,16,-1
 939 771 l 5,17,18
 939 770 939 770 954 771 c 132,-1,19
 969 772 969 772 989.5 751 c 132,-1,20
 1010 730 1010 730 1010 701.5 c 132,-1,21
 1010 673 1010 673 989.5 652 c 132,-1,22
 969 631 969 631 954 631 c 4,23,24
 555 631 555 631 156 631 c 4,25,26
 141 631 141 631 120.5 652 c 132,-1,27
 100 673 100 673 100 701.5 c 132,-1,28
 100 730 100 730 120.5 751 c 132,-1,29
 141 772 141 772 156 772 c 132,-1,30
 171 772 171 772 171 771 c 5,16,-1
EndSplineSet
EndChar

StartChar: greater
Encoding: 30 62 33
Width: 969
GlyphClass: 2
Flags: W
LayerCount: 2
Fore
SplineSet
115 48 m 1,0,-1
 115 166 l 1,1,-1
 842 463 l 1,2,-1
 115 768 l 1,3,-1
 115 886 l 1,4,-1
 971 522 l 1,5,-1
 971 412 l 1,6,-1
 115 48 l 1,0,-1
EndSplineSet
EndChar

StartChar: question
Encoding: 31 63 34
Width: 939
GlyphClass: 2
Flags: W
LayerCount: 2
Fore
SplineSet
601 585 m 2,0,1
 547 533 547 533 547 454 c 2,2,-1
 547 374 l 1,3,-1
 407 374 l 1,4,-1
 407 460 l 2,5,6
 407 569 407 569 521 679 c 2,7,-1
 643 797 l 2,8,9
 732 884 732 884 732 988 c 128,-1,10
 732 1092 732 1092 663 1147 c 128,-1,11
 594 1202 594 1202 488 1202 c 0,12,13
 247 1202 247 1202 242 925 c 1,14,-1
 113 925 l 1,15,16
 118 1320 118 1320 498 1320 c 0,17,18
 662 1320 662 1320 766.5 1234 c 128,-1,19
 871 1148 871 1148 871 998 c 128,-1,20
 871 848 871 848 779 758 c 2,21,-1
 601 585 l 2,0,1
407 18 m 1,22,-1
 407 180 l 1,23,-1
 547 180 l 1,24,-1
 547 18 l 1,25,-1
 407 18 l 1,22,-1
EndSplineSet
EndChar

StartChar: at
Encoding: 32 64 35
Width: 1784
GlyphClass: 2
Flags: W
LayerCount: 2
Fore
SplineSet
1102 800 m 1,0,-1
 1102 811 l 2,1,2
 1102 842 1102 842 1124 864 c 128,-1,3
 1146 886 1146 886 1177 886 c 128,-1,4
 1208 886 1208 886 1230 864 c 128,-1,5
 1252 842 1252 842 1252 811 c 2,6,-1
 1252 810 l 1,7,-1
 1255 494 l 2,8,9
 1255 487 1255 487 1255 480 c 2,10,11
 1252 321 l 1,12,13
 1264 262 1264 262 1325 235 c 128,-1,14
 1386 208 1386 208 1449 254 c 0,15,16
 1552 330 1552 330 1530 525 c 0,17,18
 1516 649 1516 649 1455 762 c 128,-1,19
 1394 875 1394 875 1298 954 c 0,20,21
 972 1223 972 1223 593.5 1029.5 c 0,22,23
 215 836 215 836 252.5 406 c 0,24,25
 279 105 279 105 539.5 -61 c 0,26,27
 800 -227 800 -227 1097 -120 c 0,28,29
 1209 -80 1209 -80 1209 -176 c 0,30,31
 1209 -239 1209 -239 1149 -261 c 0,32,33
 788 -396 788 -396 461 -189 c 0,34,35
 134 18 134 18 103 391 c 0,36,37
 59 925 59 925 545 1174 c 0,38,39
 990 1402 990 1402 1394 1069 c 0,40,41
 1513 971 1513 971 1587.5 833 c 128,-1,42
 1662 695 1662 695 1680 535 c 128,-1,43
 1698 375 1698 375 1639 256 c 0,44,45
 1602 181 1602 181 1534.5 131 c 128,-1,46
 1467 81 1467 81 1393 77 c 0,47,48
 1225 67 1225 67 1140 201 c 1,49,50
 1078 138 1078 138 997.5 108 c 128,-1,51
 917 78 917 78 838 84 c 0,52,53
 680 95 680 95 575 207.5 c 128,-1,54
 470 320 470 320 466 479.5 c 128,-1,55
 462 639 462 639 575.5 760.5 c 128,-1,56
 689 882 689 882 841 884 c 128,-1,57
 993 886 993 886 1102 800 c 1,0,-1
616 477 m 0,58,59
 619 334 619 334 741 265 c 0,60,61
 839 209 839 209 940.5 247 c 128,-1,62
 1042 285 1042 285 1084 383 c 0,63,64
 1104 431 1104 431 1105 480 c 1,65,66
 1104 589 1104 589 1031.5 662 c 128,-1,67
 959 735 959 735 857 734 c 128,-1,68
 755 733 755 733 684 657 c 128,-1,69
 613 581 613 581 616 477 c 0,58,59
EndSplineSet
EndChar

StartChar: braceleft
Encoding: 85 123 36
Width: 947
GlyphClass: 2
Flags: W
LayerCount: 2
Fore
SplineSet
278 950 m 4,0,1
 209 1263 209 1263 414 1388 c 4,2,3
 508 1445 508 1445 625.5 1431 c 132,-1,4
 743 1417 743 1417 824 1320 c 4,5,6
 841 1300 841 1300 841 1272.5 c 132,-1,7
 841 1245 841 1245 820.5 1224.5 c 132,-1,8
 800 1204 800 1204 769 1204 c 132,-1,9
 738 1204 738 1204 717 1230 c 4,10,11
 671 1284 671 1284 605 1292 c 132,-1,12
 539 1300 539 1300 487 1268 c 4,13,14
 385 1206 385 1206 402 1052 c 4,15,16
 405 1022 405 1022 430.5 907.5 c 132,-1,17
 456 793 456 793 452 695 c 132,-1,18
 448 597 448 597 376 518 c 5,19,20
 516 404 516 404 471 159 c 4,21,22
 465 127 465 127 442 32 c 4,23,24
 384 -214 384 -214 534 -299 c 4,25,26
 582 -326 582 -326 637 -324.5 c 132,-1,27
 692 -323 692 -323 723.5 -301.5 c 132,-1,28
 755 -280 755 -280 780.5 -280 c 132,-1,29
 806 -280 806 -280 826.5 -300.5 c 132,-1,30
 847 -321 847 -321 847 -354.5 c 132,-1,31
 847 -388 847 -388 815 -409 c 4,32,33
 736 -461 736 -461 641.5 -464.5 c 132,-1,34
 547 -468 547 -468 467 -422 c 132,-1,35
 387 -376 387 -376 340.5 -299.5 c 132,-1,36
 294 -223 294 -223 287.5 -151 c 132,-1,37
 281 -79 281 -79 288 -25 c 132,-1,38
 295 29 295 29 312 96 c 132,-1,39
 329 163 329 163 338 211 c 132,-1,40
 347 259 347 259 338 315 c 132,-1,41
 329 371 329 371 297.5 400.5 c 132,-1,42
 266 430 266 430 224 434 c 5,43,44
 149 421 149 421 124.5 446.5 c 132,-1,45
 100 472 100 472 100 497.5 c 132,-1,46
 100 523 100 523 120.5 549 c 132,-1,47
 141 575 141 575 212 576 c 5,48,49
 353 618 353 618 296 870 c 4,50,51
 294 880 294 880 287.5 907 c 132,-1,52
 281 934 281 934 278 950 c 4,0,1
EndSplineSet
EndChar

StartChar: bar
Encoding: 86 124 37
Width: 350
GlyphClass: 2
Flags: W
LayerCount: 2
Fore
SplineSet
186 -370 m 4,0,1
 100 -370 100 -370 100 -294 c 6,2,-1
 100 1211 l 6,3,4
 100 1242 100 1242 121.5 1264 c 132,-1,5
 143 1286 143 1286 174 1286 c 6,6,-1
 175 1286 l 6,7,8
 206 1286 206 1286 228 1264 c 132,-1,9
 250 1242 250 1242 250 1210 c 6,10,-1
 250 -295 l 6,11,12
 250 -326 250 -326 228 -348 c 132,-1,13
 206 -370 206 -370 186 -370 c 4,0,1
EndSplineSet
EndChar

StartChar: asciitilde
Encoding: 88 126 39
Width: 910
GlyphClass: 2
Flags: W
LayerCount: 2
Fore
SplineSet
882 933 m 2,0,1
 882 704 882 704 707 704 c 0,2,3
 623 704 623 704 540 763 c 2,4,-1
 395 866 l 2,5,6
 348 899 348 899 304 899 c 0,7,8
 209 899 209 899 196 751 c 1,9,-1
 123 751 l 1,10,11
 139 1002 139 1002 306 1002 c 0,12,13
 355 1002 355 1002 397 975 c 2,14,-1
 609 839 l 2,15,16
 659 807 659 807 705 807 c 0,17,18
 805 807 805 807 808 950 c 1,19,-1
 882 950 l 1,20,-1
 882 933 l 2,0,1
EndSplineSet
EndChar

StartChar: anuswara
Encoding: 90 3330 41
Width: 824
GlyphClass: 2
Flags: W
LayerCount: 2
Fore
SplineSet
380 666 m 1,0,1
 498 688 498 688 595.5 627.5 c 128,-1,2
 693 567 693 567 735 475 c 128,-1,3
 777 383 777 383 761 283.5 c 128,-1,4
 745 184 745 184 676.5 109.5 c 128,-1,5
 608 35 608 35 506.5 11 c 128,-1,6
 405 -13 405 -13 304.5 28.5 c 128,-1,7
 204 70 204 70 146.5 165 c 128,-1,8
 89 260 89 260 101 356 c 0,9,10
 132 611 132 611 380 666 c 1,0,1
607.5 416.5 m 128,-1,12
 583 470 583 470 526 505 c 128,-1,13
 469 540 469 540 403.5 529 c 128,-1,14
 338 518 338 518 293 473 c 1,15,16
 289 463 289 463 282 454 c 0,17,18
 244 407 244 407 240 347 c 128,-1,19
 236 287 236 287 268 234 c 128,-1,20
 300 181 300 181 358 157 c 128,-1,21
 416 133 416 133 475 147.5 c 128,-1,22
 534 162 534 162 574 205 c 128,-1,23
 614 248 614 248 623 305.5 c 128,-1,11
 632 363 632 363 607.5 416.5 c 128,-1,12
EndSplineSet
EndChar

StartChar: ml_a
Encoding: 92 3333 43
Width: 2693
GlyphClass: 2
Flags: W
LayerCount: 2
Fore
SplineSet
1120 502 m 1,0,1
 1238.96923077 419.034615385 1238.96923077 419.034615385 1238.96923077 274.826700405 c 128,-1,2
 1238.96923077 130.618785425 1238.96923077 130.618785425 1126 45 c 0,3,4
 1033.56756757 -25.0540540541 1033.56756757 -25.0540540541 928.828341855 -25.0540540541 c 0,5,6
 715.718058968 -25.0540540541 715.718058968 -25.0540540541 595 155 c 0,7,8
 512.733870968 276.362903226 512.733870968 276.362903226 512.733870968 429.570759625 c 128,-1,9
 512.733870968 582.822214076 512.733870968 582.822214076 576.366935484 701.411107038 c 128,-1,10
 640 820 640 820 728 894 c 1,11,12
 709.441340782 895.351955307 709.441340782 895.351955307 691.23011142 895.351955307 c 0,13,14
 561.268156425 895.351955307 561.268156425 895.351955307 441.134078212 821.675977654 c 0,15,16
 240.542857143 698.657142857 240.542857143 698.657142857 240.542857143 442.874915636 c 0,17,18
 240.542857143 344.492688414 240.542857143 344.492688414 306.271428571 248.746344207 c 128,-1,19
 372 153 372 153 475 108 c 0,20,21
 517.022727273 90.4090909091 517.022727273 90.4090909091 517.022727273 40.3460743802 c 0,22,23
 517.022727273 39.1818181818 517.022727273 39.1818181818 517.011363636 26.5909090909 c 128,-1,24
 517 14 517 14 496.5 -6.5 c 128,-1,25
 476 -27 476 -27 454 -27 c 128,-1,26
 432 -27 432 -27 418 -21 c 0,27,28
 279 40 279 40 189.66011236 170.893323752 c 128,-1,29
 100.320224719 301.786647505 100.320224719 301.786647505 100.320224719 456.083922485 c 0,30,31
 100.320224719 689.691011236 100.320224719 689.691011236 257 852 c 0,32,33
 361 960 361 960 507 1006 c 0,34,35
 603.572413793 1036.95862069 603.572413793 1036.95862069 703.682758621 1036.95862069 c 128,-1,36
 803.793103448 1036.95862069 803.793103448 1036.95862069 906 995 c 1,37,38
 1003.49382716 1029.67901235 1003.49382716 1029.67901235 1079.30246914 1029.67901235 c 0,39,40
 1404.99283154 1029.67901235 1404.99283154 1029.67901235 1543 792 c 1,41,42
 1626 942 1626 942 1791 1000 c 0,43,44
 1877.33333333 1030.42222222 1877.33333333 1030.42222222 1973.13135802 1030.42222222 c 0,45,46
 2239.81178046 1030.42222222 2239.81178046 1030.42222222 2423 845 c 0,47,48
 2504 763 2504 763 2549.01075269 656.655913978 c 128,-1,49
 2594.02150538 550.311827957 2594.02150538 550.311827957 2594.02150538 437.94276795 c 0,50,51
 2594.02150538 253.25499232 2594.02150538 253.25499232 2488 123 c 0,52,53
 2432 54 2432 54 2352 14.5 c 128,-1,54
 2272 -25 2272 -25 2181.5 -25 c 128,-1,55
 2091 -25 2091 -25 2010 20 c 128,-1,56
 1929 65 1929 65 1872.18478261 151.927282609 c 128,-1,57
 1815.36956522 238.854565217 1815.36956522 238.854565217 1815.36956522 331.824021739 c 128,-1,58
 1815.36956522 424.793478261 1815.36956522 424.793478261 1846.18478261 512.39673913 c 128,-1,59
 1877 600 1877 600 1975.65283757 674.628571429 c 128,-1,60
 2074.30567515 749.257142857 2074.30567515 749.257142857 2176.36712329 749.257142857 c 128,-1,61
 2278.42857143 749.257142857 2278.42857143 749.257142857 2347 720 c 1,62,63
 2280 800 2280 800 2178.82055749 845.674216028 c 128,-1,64
 2077.64111498 891.348432056 2077.64111498 891.348432056 1990.30487805 891.348432056 c 128,-1,65
 1902.96864111 891.348432056 1902.96864111 891.348432056 1835.5 867.5 c 0,66,67
 1670 809 1670 809 1629 626 c 0,68,69
 1616 570 1616 570 1616 441 c 2,70,-1
 1616 42 l 2,71,72
 1616 13 1616 13 1595.5 -7 c 128,-1,73
 1575 -27 1575 -27 1546.5 -27 c 128,-1,74
 1518 -27 1518 -27 1497.5 -6.5 c 128,-1,75
 1477 14 1477 14 1476 42 c 2,76,-1
 1475 440 l 2,77,78
 1475 554 1475 554 1463.5 614.5 c 128,-1,79
 1452 675 1452 675 1415 734 c 0,80,81
 1338 854 1338 854 1182 883 c 0,82,83
 1144.66666667 889.666666667 1144.66666667 889.666666667 1115.66666667 889.666666667 c 128,-1,84
 1086.66666667 889.666666667 1086.66666667 889.666666667 1067 888 c 1,85,86
 1174.5203252 778.609756098 1174.5203252 778.609756098 1174.5203252 656.9814264 c 0,87,88
 1174.5203252 568.759581882 1174.5203252 568.759581882 1120 502 c 1,0,1
962.510416667 413.083333333 m 2,89,-1
 926 412 l 2,90,91
 910 412 910 412 889.5 432.5 c 128,-1,92
 869 453 869 453 869 476 c 128,-1,93
 869 499 869 499 877 514 c 0,94,95
 896 549 896 549 936 551.5 c 128,-1,96
 976 554 976 554 1005.328125 582.804408482 c 128,-1,97
 1034.65625 611.608816964 1034.65625 611.608816964 1034.65625 655.491908482 c 128,-1,98
 1034.65625 699.375 1034.65625 699.375 998.328125 751.6875 c 128,-1,99
 962 804 962 804 901 841 c 1,100,101
 781 782 781 782 704 646 c 0,102,103
 650.269767442 549.851162791 650.269767442 549.851162791 650.269767442 447.204716063 c 0,104,105
 650.269767442 404.660465116 650.269767442 404.660465116 659.5 361 c 0,106,107
 691 212 691 212 800 148 c 0,108,109
 856.776041667 114.966666667 856.776041667 114.966666667 921.521354167 114.966666667 c 1,110,111
 921.521354167 65.5557702851 921.521354167 65.5557702851 1023 143 c 0,112,113
 1098.75757576 201.333333333 1098.75757576 201.333333333 1098.75757576 271.145087236 c 0,114,115
 1098.75757576 293.484848485 1098.75757576 293.484848485 1091 317 c 0,116,117
 1070 381 1070 381 1008 403 c 0,118,119
 979.583333333 413.083333333 979.583333333 413.083333333 962.510416667 413.083333333 c 2,89,-1
2439.20512821 359.392504931 m 0,120,121
 2439.20512821 519.487414726 2439.20512821 519.487414726 2305.5 584.5 c 0,122,123
 2254.8245614 609.140350877 2254.8245614 609.140350877 2188.33918129 609.140350877 c 128,-1,124
 2121.85380117 609.140350877 2121.85380117 609.140350877 2058.42690058 561.570175439 c 0,125,126
 1954.91964286 483.939732143 1954.91964286 483.939732143 1954.91964286 350.69794324 c 0,127,128
 1954.91964286 280.017857143 1954.91964286 280.017857143 1990.95982143 225.008928571 c 1,129,130
 2096.72723228 130.45605545 2096.72723228 130.45605545 2182.53398872 115.728395062 c 1,131,132
 2222.47530864 115.728395062 2222.47530864 115.728395062 2265.5 130 c 0,133,134
 2368 164 2368 164 2421 278 c 0,135,136
 2422 286 2422 286 2430.6025641 309.461538462 c 128,-1,137
 2439.20512821 332.923076923 2439.20512821 332.923076923 2439.20512821 359.392504931 c 0,120,121
EndSplineSet
EndChar

StartChar: ml_aa
Encoding: 93 3334 44
Width: 2919
GlyphClass: 2
Flags: W
LayerCount: 2
Fore
SplineSet
2593 429 m 5,0,-1
 2593.13793103 414.977407848 l 1,1,2
 2593.13793103 247.310344828 2593.13793103 247.310344828 2485 116 c 4,3,4
 2429 48 2429 48 2348.9889881 7.4880952381 c 132,-1,5
 2268.97797619 -33.0238095238 2268.97797619 -33.0238095238 2180.51875 -33.0238095238 c 128,-1,6
 2092.05952381 -33.0238095238 2092.05952381 -33.0238095238 2011.5297619 7.4880952381 c 132,-1,7
 1931 48 1931 48 1871.88659794 132.122918319 c 132,-1,8
 1812.77319588 216.245836638 1812.77319588 216.245836638 1812.77319588 308.004361618 c 128,-1,9
 1812.77319588 399.762886598 1812.77319588 399.762886598 1845.38659794 484.381443299 c 132,-1,10
 1878 569 1878 569 1971 636 c 4,11,12
 2101.4964539 729.794326241 2101.4964539 729.794326241 2263.25768322 729.794326241 c 0,13,14
 2299.82978723 729.794326241 2299.82978723 729.794326241 2338 725 c 5,15,16
 2273 797 2273 797 2174.93309859 841.257042254 c 132,-1,17
 2076.86619718 885.514084507 2076.86619718 885.514084507 1990.06514085 885.514084507 c 128,-1,18
 1903.26408451 885.514084507 1903.26408451 885.514084507 1834.5 861 c 4,19,20
 1669 802 1669 802 1627 619 c 4,21,22
 1614.92857143 567 1614.92857143 567 1614.92857143 504.642857143 c 128,-1,23
 1614.92857143 442.285714286 1614.92857143 442.285714286 1615 433 c 6,24,-1
 1615 42 l 6,25,26
 1615 13 1615 13 1594.5 -7 c 132,-1,27
 1574 -27 1574 -27 1545.5 -27 c 132,-1,28
 1517 -27 1517 -27 1496.5 -6.5 c 132,-1,29
 1476 14 1476 14 1475 42 c 6,30,-1
 1474 432 l 6,31,32
 1474 547 1474 547 1462.5 608 c 132,-1,33
 1451 669 1451 669 1414 728 c 4,34,35
 1337 849 1337 849 1181 879 c 4,36,37
 1143.47058824 886.117647059 1143.47058824 886.117647059 1113.17647059 886.117647059 c 128,-1,38
 1082.88235294 886.117647059 1082.88235294 886.117647059 1061 884 c 5,39,40
 1173.38888889 772.555555556 1173.38888889 772.555555556 1173.38888889 646.839506173 c 0,41,42
 1173.38888889 561.764775414 1173.38888889 561.764775414 1121 496 c 5,43,44
 1238.30769231 413.763679619 1238.30769231 413.763679619 1238.30769231 269.106508876 c 0,45,46
 1238.30769231 188.692307692 1238.30769231 188.692307692 1201.65384615 130.346153846 c 132,-1,47
 1165 72 1165 72 1119 38 c 4,48,49
 1033.86956522 -25.1304347826 1033.86956522 -25.1304347826 933.185255198 -25.1304347826 c 0,50,51
 721.600305111 -25.1304347826 721.600305111 -25.1304347826 598 151 c 4,52,53
 512.277310924 274.915966387 512.277310924 274.915966387 512.277310924 427.24829184 c 128,-1,54
 512.277310924 579.580617294 512.277310924 579.580617294 572.638655462 695.790308647 c 132,-1,55
 633 812 633 812 720 886 c 5,56,57
 703.782178218 886.97029703 703.782178218 886.97029703 688.015880796 886.97029703 c 0,58,59
 590.03960396 886.97029703 590.03960396 886.97029703 503.01980198 846.485148515 c 4,60,61
 331.961174472 766.901722883 331.961174472 766.901722883 268 605 c 4,62,63
 239.154929577 531.985915493 239.154929577 531.985915493 239.154929577 436.025922778 c 128,-1,64
 239.154929577 340.065930063 239.154929577 340.065930063 299.077464789 245.532965032 c 132,-1,65
 359 151 359 151 455 102 c 4,66,67
 494 83 494 83 494 33 c 4,68,69
 494 10 494 10 473.5 -10.5 c 132,-1,70
 453 -31 453 -31 430 -31 c 132,-1,71
 407 -31 407 -31 391 -23 c 4,72,73
 261 44 261 44 180.268571429 171.824761905 c 132,-1,74
 99.5371428571 299.64952381 99.5371428571 299.64952381 99.5371428571 445.608195918 c 0,75,76
 99.5371428571 679.845714286 99.5371428571 679.845714286 257 843 c 4,77,78
 361 950 361 950 506 997 c 4,79,80
 603.338129496 1028.3381295 603.338129496 1028.3381295 701.564748201 1028.3381295 c 128,-1,81
 799.791366906 1028.3381295 799.791366906 1028.3381295 898 990 c 5,82,83
 997.627906977 1026.46511628 997.627906977 1026.46511628 1075.10465116 1026.46511628 c 0,84,85
 1403.28599703 1026.46511628 1403.28599703 1026.46511628 1542 785 c 5,86,87
 1625 934 1625 934 1796 995.5 c 4,88,89
 1880.46987952 1025.87951807 1880.46987952 1025.87951807 1972.88554217 1025.87951807 c 128,-1,90
 2065.30120482 1025.87951807 2065.30120482 1025.87951807 2190.65060241 986.439759036 c 132,-1,91
 2316 947 2316 947 2409.5 852.5 c 132,-1,92
 2503 758 2503 758 2547 654 c 5,93,94
 2632 604 2632 604 2694 528 c 4,95,96
 2818.83673469 374.974325214 2818.83673469 374.974325214 2818.83673469 175.478967097 c 0,97,98
 2818.83673469 80.2448979592 2818.83673469 80.2448979592 2785.5 -10 c 4,99,100
 2736 -144 2736 -144 2629.5 -238 c 4,101,102
 2471.13565743 -377.776978417 2471.13565743 -377.776978417 2264.46723772 -377.776978417 c 0,103,104
 2190.13309353 -377.776978417 2190.13309353 -377.776978417 2115.5 -357 c 4,105,106
 1979 -319 1979 -319 1878 -223 c 4,107,108
 1856 -202 1856 -202 1856 -172.5 c 132,-1,109
 1856 -143 1856 -143 1876.5 -122.5 c 132,-1,110
 1897 -102 1897 -102 1926 -102 c 132,-1,111
 1955 -102 1955 -102 1975 -122 c 4,112,113
 2094.32277683 -236.597122302 2094.32277683 -236.597122302 2256.52469777 -236.597122302 c 128,-1,114
 2418.72661871 -236.597122302 2418.72661871 -236.597122302 2537 -133 c 4,115,116
 2618 -61 2618 -61 2648.58564815 22.3773148148 c 132,-1,117
 2679.1712963 105.75462963 2679.1712963 105.75462963 2679.1712963 157.194444444 c 0,118,119
 2679.1712963 316.840534979 2679.1712963 316.840534979 2593 429 c 5,0,-1
895 836 m 5,120,121
 777 776 777 776 702 640 c 4,122,123
 650.156682028 545.99078341 650.156682028 545.99078341 650.156682028 446.725562233 c 0,124,125
 650.156682028 402.387096774 650.156682028 402.387096774 660.5 357 c 4,126,127
 694 210 694 210 803 148 c 4,128,129
 860.716129032 114.866666667 860.716129032 114.866666667 924.091397849 114.866666667 c 128,-1,130
 987.466666667 114.866666667 987.466666667 114.866666667 1022 141 c 4,131,132
 1098.92307692 197.153846154 1098.92307692 197.153846154 1098.92307692 266.917159763 c 0,133,134
 1098.92307692 287.846153846 1098.92307692 287.846153846 1092 310 c 4,135,136
 1072 372 1072 372 1011 396 c 4,137,138
 982 407 982 407 962 405.5 c 132,-1,139
 942 404 942 404 925.5 404 c 132,-1,140
 909 404 909 404 888.5 424.5 c 132,-1,141
 868 445 868 445 868 472 c 132,-1,142
 868 499 868 499 885.5 519.5 c 132,-1,143
 903 540 903 540 920 542 c 132,-1,144
 937 544 937 544 958 547 c 132,-1,145
 979 550 979 550 1006.32621951 576.800715291 c 132,-1,146
 1033.65243902 603.601430582 1033.65243902 603.601430582 1033.65243902 647.492788462 c 128,-1,147
 1033.65243902 691.384146341 1033.65243902 691.384146341 996.326219512 745.192073171 c 132,-1,148
 959 799 959 799 895 836 c 5,120,121
2434 555 m 5,149,150
 2351.59090909 591.378787879 2351.59090909 591.378787879 2299.43181818 591.378787879 c 128,-1,151
 2247.27272727 591.378787879 2247.27272727 591.378787879 2221 587 c 4,152,153
 2021 554 2021 554 1967 412 c 4,154,155
 1953.37735849 376.150943396 1953.37735849 376.150943396 1953.37735849 348.462264151 c 128,-1,156
 1953.37735849 320.773584906 1953.37735849 320.773584906 1958.18867925 283.886792453 c 132,-1,157
 1963 247 1963 247 1994 203 c 132,-1,158
 2025 159 2025 159 2075.56363636 132.981818182 c 132,-1,159
 2126.12727273 106.963636364 2126.12727273 106.963636364 2178.07603306 106.963636364 c 0,160,161
 2294.29208211 106.963636364 2294.29208211 106.963636364 2373.66985058 201.606360306 c 132,-1,162
 2453.04761905 296.249084249 2453.04761905 296.249084249 2453.04761905 432.188208617 c 0,163,164
 2453.04761905 494.047619048 2453.04761905 494.047619048 2434 555 c 5,149,150
EndSplineSet
EndChar

StartChar: ml_i
Encoding: 94 3335 45
Width: 1974
GlyphClass: 2
Flags: W
LayerCount: 2
Fore
SplineSet
1022.73046875 832.112304688 m 5,0,1
 1088.07226562 942.231445312 1088.07226562 942.231445312 1186.92100542 986.223138904 c 132,-1,2
 1285.76974523 1030.2148325 1285.76974523 1030.2148325 1376.36036993 1030.2148325 c 4,3,4
 1588.48244595 1030.2148325 1588.48244595 1030.2148325 1729.22733452 874.49028599 c 132,-1,5
 1869.9722231 718.765739484 1869.9722231 718.765739484 1869.9722231 509.404118474 c 4,6,7
 1869.9722231 394.452550939 1869.9722231 394.452550939 1821.02566233 287.529986407 c 132,-1,8
 1772.07910156 180.607421875 1772.07910156 180.607421875 1675.6953125 109 c 132,-1,9
 1579.31152344 37.392578125 1579.31152344 37.392578125 1477.75195312 16.6826171875 c 132,-1,10
 1376.19238281 -4.02734375 1376.19238281 -4.02734375 1233.8671875 -4.6416015625 c 6,11,-1
 570.119140625 -7.5048828125 l 6,12,13
 561.318359375 -7.54296875 561.318359375 -7.54296875 532.258789062 -7.5595703125 c 132,-1,14
 503.198242188 -7.5771484375 503.198242188 -7.5771484375 469.1875 -8.21875 c 4,15,16
 324.411132812 -10.951171875 324.411132812 -10.951171875 270.241210938 -58.138671875 c 4,17,18
 238.790963335 -85.5345357351 238.790963335 -85.5345357351 238.790963335 -110.214878721 c 132,-1,19
 238.790963335 -134.895221708 238.790963335 -134.895221708 255.503391823 -156.643899916 c 132,-1,20
 272.215820312 -178.392578125 272.215820312 -178.392578125 311.157226562 -195.399414062 c 132,-1,21
 350.098632812 -212.405273438 350.098632812 -212.405273438 464.24609375 -212.456054688 c 6,22,-1
 1801.953125 -213.055664062 l 6,23,24
 1831.23828125 -212.654296875 1831.23828125 -212.654296875 1852.08496094 -233.2265625 c 132,-1,25
 1872.93066406 -253.798828125 1872.93066406 -253.798828125 1872.91894531 -283.086914062 c 132,-1,26
 1872.90527344 -312.375 1872.90527344 -312.375 1852.04003906 -332.928710938 c 132,-1,27
 1831.17480469 -353.482421875 1831.17480469 -353.482421875 1801.890625 -353.055664062 c 6,28,-1
 464.18359375 -352.456054688 l 6,29,30
 320.833984375 -352.390625 320.833984375 -352.390625 251.997070312 -322.330078125 c 132,-1,31
 183.161132812 -292.26953125 183.161132812 -292.26953125 141.580516688 -238.158838305 c 132,-1,32
 99.9999005649 -184.04814536 99.9999005649 -184.04814536 99.9999005649 -102.407358863 c 132,-1,33
 99.9999005649 -20.7665723667 99.9999005649 -20.7665723667 167.587890625 38.109375 c 4,34,35
 274.540039062 131.274414062 274.540039062 131.274414062 487.916992188 132.567382812 c 4,36,37
 502.6015625 132.657226562 502.6015625 132.657226562 530.530273438 132.551757812 c 132,-1,38
 558.458984375 132.447265625 558.458984375 132.447265625 569.513671875 132.495117188 c 6,39,-1
 1233.26367188 135.358398438 l 6,40,41
 1361.77246094 135.9140625 1361.77246094 135.9140625 1441.29589844 152.129882812 c 132,-1,42
 1520.8203125 168.345703125 1520.8203125 168.345703125 1590.27929688 219.950195312 c 4,43,44
 1730.28716582 323.965489241 1730.28716582 323.965489241 1730.28716582 494.246607925 c 132,-1,46
 1730.28716582 664.527726609 1730.28716582 664.527726609 1628.22094396 777.456806559 c 132,-1,47
 1526.1547221 890.385886509 1526.1547221 890.385886509 1381.95505048 890.385886509 c 132,-1,48
 1237.75537886 890.385886509 1237.75537886 890.385886509 1158.40625 783.918945312 c 4,49,50
 1119.32519531 731.481445312 1119.32519531 731.481445312 1108.35742188 675.6953125 c 132,-1,51
 1097.390625 619.909179688 1097.390625 619.909179688 1097.390625 506.899414062 c 6,52,-1
 1097.390625 230.364257812 l 6,53,54
 1097.06542969 201.201171875 1097.06542969 201.201171875 1076.69238281 180.990234375 c 132,-1,55
 1056.3203125 160.780273438 1056.3203125 160.780273438 1027.62402344 160.68359375 c 132,-1,56
 998.926757812 160.587890625 998.926757812 160.587890625 978.418945312 180.66015625 c 132,-1,57
 957.911132812 200.733398438 957.911132812 200.733398438 957.392578125 229.424804688 c 6,58,-1
 955.552734375 503.459960938 l 6,59,60
 954.828125 611.944335938 954.828125 611.944335938 945.741210938 660.443359375 c 132,-1,61
 936.654296875 708.943359375 936.654296875 708.943359375 903.759765625 758.380859375 c 4,62,63
 837.07421875 858.6015625 837.07421875 858.6015625 692.078125 883.228515625 c 4,64,65
 659.880179473 888.696979164 659.880179473 888.696979164 628.518305626 888.696979164 c 4,66,67
 518.649143579 888.696979164 518.649143579 888.696979164 419.041015625 821.583007812 c 4,68,69
 374.546875 791.604492188 374.546875 791.604492188 339.234375 748.438476562 c 5,70,71
 390.609192688 765.171823178 390.609192688 765.171823178 454.290854923 765.171823178 c 132,-1,72
 517.972517157 765.171823178 517.972517157 765.171823178 580.989676548 730.113255339 c 132,-1,73
 644.006835938 695.0546875 644.006835938 695.0546875 681.875 648.739257812 c 4,74,75
 752.321606199 562.57815935 752.321606199 562.57815935 752.321606199 454.362278204 c 4,76,77
 752.321606199 311.05038986 752.321606199 311.05038986 645.400390625 219.001953125 c 4,78,79
 560.444270837 145.86487289 560.444270837 145.86487289 457.163426912 145.86487289 c 132,-1,80
 353.882582987 145.86487289 353.882582987 145.86487289 274.875 199.740234375 c 4,81,82
 114.191077482 309.308232337 114.191077482 309.308232337 114.191077482 524.619216602 c 4,83,84
 114.191077482 667.00627692 114.191077482 667.00627692 203.643554688 801.530273438 c 4,85,86
 316.481445312 971.221679688 316.481445312 971.221679688 521.569335938 1014.7109375 c 4,87,88
 584.33501682 1028.02045018 584.33501682 1028.02045018 643.215490402 1028.02045018 c 4,89,90
 776.728845048 1028.02045018 776.728845048 1028.02045018 874.159453551 969.295198717 c 132,-1,91
 971.590062054 910.569947258 971.590062054 910.569947258 1022.73046875 832.112304688 c 5,0,1
615.64453125 463.094726562 m 132,-1,93
 615.64453125 535.313476562 615.64453125 535.313476562 564.533203125 586.423828125 c 132,-1,94
 513.421875 637.53515625 513.421875 637.53515625 441.204101562 637.53515625 c 132,-1,95
 368.985351562 637.53515625 368.985351562 637.53515625 317.874023438 586.423828125 c 132,-1,96
 266.763671875 535.313476562 266.763671875 535.313476562 266.763671875 463.094726562 c 132,-1,97
 266.763671875 390.876953125 266.763671875 390.876953125 317.874023438 339.765625 c 132,-1,98
 368.985351562 288.654296875 368.985351562 288.654296875 441.204101562 288.654296875 c 132,-1,99
 513.421875 288.654296875 513.421875 288.654296875 564.533203125 339.765625 c 132,-1,92
 615.64453125 390.876953125 615.64453125 390.876953125 615.64453125 463.094726562 c 132,-1,93
EndSplineSet
EndChar

StartChar: ml_u
Encoding: 96 3337 47
Width: 1329
GlyphClass: 2
Flags: W
LayerCount: 2
Fore
SplineSet
560 534 m 132,-1,1
 560 603 560 603 511.5 651.5 c 132,-1,2
 463 700 463 700 406 700 c 132,-1,3
 349 700 349 700 311 678 c 4,4,5
 228 630 228 630 228 534 c 4,6,7
 228 465 228 465 277 416.5 c 132,-1,8
 326 368 326 368 394.5 368 c 132,-1,9
 463 368 463 368 511.5 416.5 c 132,-1,0
 560 465 560 465 560 534 c 132,-1,1
286 918 m 4,10,11
 457 1049 457 1049 675.5 1021.5 c 132,-1,12
 894 994 894 994 1041 848 c 132,-1,13
 1188 702 1188 702 1201 496 c 4,14,15
 1208 379 1208 379 1163.5 274 c 4,16,17
 1046.00104403 -7.72264297848 1046.00104403 -7.72264297848 654 -2 c 6,18,-1
 517 0 l 6,19,20
 372 2 372 2 327 -16 c 4,21,22
 231 -55 231 -55 241 -106.5 c 132,-1,23
 251 -158 251 -158 312.5 -184.5 c 4,24,25
 354.500513663 -202.782576536 354.500513663 -202.782576536 498 -203 c 6,26,-1
 1158 -204 l 6,27,28
 1187 -204 1187 -204 1208 -224.5 c 132,-1,29
 1229 -245 1229 -245 1229 -274.5 c 132,-1,30
 1229 -304 1229 -304 1208.47672614 -324.022692009 c 132,-1,31
 1187.95345229 -344.045384019 1187.95345229 -344.045384019 1158 -344 c 6,32,-1
 498 -343 l 6,33,34
 140 -342 140 -342 103 -133 c 4,35,36
 89 -55 89 -55 139 12 c 4,37,38
 239 146 239 146 440 141 c 4,39,40
 478 140 478 140 520 140 c 6,41,-1
 657 138 l 6,42,43
 740 137 740 137 809 150 c 4,44,45
 972 182 972 182 1036 330.5 c 4,46,47
 1067 403 1067 403 1062 481 c 4,48,49
 1052 640 1052 640 941 750.5 c 132,-1,50
 830 861 830 861 666 881.5 c 132,-1,51
 502 902 502 902 378 812 c 5,52,53
 483 818 483 818 566 755 c 4,54,55
 675 674 675 674 683.5 540.5 c 132,-1,56
 692 407 692 407 600.5 313 c 132,-1,57
 509 219 509 219 386.5 232 c 132,-1,58
 264 245 264 245 195 328.5 c 132,-1,59
 126 412 126 412 110 523.5 c 132,-1,60
 94 635 94 635 145 742 c 132,-1,61
 196 849 196 849 286 918 c 4,10,11
EndSplineSet
EndChar

StartChar: ml_r
Encoding: 98 3339 49
Width: 1680
GlyphClass: 2
Flags: W
LayerCount: 2
Fore
SplineSet
708 -508 m 6,0,1
 364 -511 364 -511 220 -325 c 4,2,3
 131 -215 131 -215 141.5 -89.5 c 132,-1,4
 152 36 152 36 246 128 c 4,5,6
 307 188 307 188 394 223 c 5,7,8
 266 292 266 292 185.5 407 c 132,-1,9
 105 522 105 522 100.5 665 c 132,-1,10
 96 808 96 808 190.5 922 c 132,-1,11
 285 1036 285 1036 436 1023 c 4,12,13
 529 1015 529 1015 597 952 c 132,-1,14
 665 889 665 889 681 797.5 c 132,-1,15
 697 706 697 706 656 624 c 132,-1,16
 615 542 615 542 537 502 c 4,17,18
 418 441 418 441 298 489 c 5,19,-1
 301 486 l 5,20,21
 352 406 352 406 454 349 c 4,22,23
 618 259 618 259 875 271 c 4,24,25
 1213 287 1213 287 1360 469 c 5,26,27
 1359 469 1359 469 1356 467 c 4,28,29
 1266 442 1266 442 1176 483 c 132,-1,30
 1086 524 1086 524 1042.5 602.5 c 132,-1,31
 999 681 999 681 1005.5 766 c 132,-1,32
 1012 851 1012 851 1065.5 918 c 132,-1,33
 1119 985 1119 985 1201 1010.5 c 132,-1,34
 1283 1036 1283 1036 1366 1009 c 132,-1,35
 1449 982 1449 982 1502 913 c 132,-1,36
 1555 844 1555 844 1572 758 c 4,37,38
 1599 620 1599 620 1539 492 c 4,39,40
 1457 319 1457 319 1275 225 c 5,41,42
 1380 187 1380 187 1448 115 c 4,43,44
 1541 18 1541 18 1545.5 -107.5 c 132,-1,45
 1550 -233 1550 -233 1468 -327 c 5,46,47
 1326 -502 1326 -502 1052 -505 c 6,48,-1
 708 -508 l 6,0,1
502 848 m 4,49,50
 436 909 436 909 351 870 c 4,51,52
 296 845 296 845 267 787 c 4,53,54
 267 786 267 786 261.5 765 c 132,-1,55
 256 744 256 744 269.5 704.5 c 132,-1,56
 283 665 283 665 316 639.5 c 132,-1,57
 349 614 349 614 390.5 609.5 c 132,-1,58
 432 605 432 605 471 625.5 c 132,-1,59
 510 646 510 646 530.5 687 c 132,-1,60
 551 728 551 728 543 772.5 c 132,-1,61
 535 817 535 817 502 848 c 4,49,50
1395 823 m 4,62,63
 1332 904 1332 904 1242 876 c 4,64,65
 1202 864 1202 864 1175.5 830.5 c 132,-1,66
 1149 797 1149 797 1145.5 754.5 c 132,-1,67
 1142 712 1142 712 1164 672 c 132,-1,68
 1186 632 1186 632 1230 612 c 132,-1,69
 1274 592 1274 592 1321 602.5 c 132,-1,70
 1368 613 1368 613 1399 649 c 132,-1,71
 1430 685 1430 685 1434 732 c 5,72,73
 1424 785 1424 785 1395 823 c 4,62,63
790 128 m 6,74,75
 456 128 456 128 342 26 c 4,76,77
 288 -28 288 -28 281.5 -99 c 132,-1,78
 275 -170 275 -170 327 -234 c 4,79,80
 436 -368 436 -368 730 -368 c 6,81,-1
 1019 -368 l 6,82,83
 1249 -368 1249 -368 1348 -253 c 4,84,85
 1408 -183 1408 -183 1405.5 -111.5 c 132,-1,86
 1403 -40 1403 -40 1349 16 c 4,87,88
 1242 128 1242 128 928 128 c 6,89,-1
 790 128 l 6,74,75
EndSplineSet
EndChar

StartChar: ml_l
Encoding: 99 3340 50
Width: 2087
GlyphClass: 2
Flags: W
LayerCount: 2
Fore
SplineSet
1036 789 m 5,0,1
 1103 906 1103 906 1210 959.5 c 132,-1,2
 1317 1013 1317 1013 1427 1015 c 132,-1,3
 1537 1017 1537 1017 1640.5 973.5 c 132,-1,4
 1744 930 1744 930 1821 851 c 4,5,6
 1979 689 1979 689 1987 458 c 4,7,8
 1992 304 1992 304 1922 182 c 5,9,10
 1913 160 1913 160 1876 117 c 4,11,12
 1811 41 1811 41 1719 4 c 132,-1,13
 1627 -33 1627 -33 1534 -15 c 132,-1,14
 1441 3 1441 3 1373 62 c 132,-1,15
 1305 121 1305 121 1276 205.5 c 132,-1,16
 1247 290 1247 290 1263.5 378 c 132,-1,17
 1280 466 1280 466 1337 534 c 4,18,19
 1419 633 1419 633 1561 657 c 132,-1,20
 1703 681 1703 681 1825 578 c 5,21,22
 1792 680 1792 680 1729 745 c 4,23,24
 1599 878 1599 878 1432 874.5 c 132,-1,25
 1265 871 1265 871 1175 747 c 4,26,27
 1133 689 1133 689 1119.5 622 c 132,-1,28
 1106 555 1106 555 1105 445 c 6,29,-1
 1102 53 l 5,30,-1
 1102 53 l 6,31,32
 1101 8 1101 8 1059 -10 c 4,33,34
 1046 -15 1046 -15 1025 -15 c 132,-1,35
 1004 -15 1004 -15 983.5 5 c 132,-1,36
 963 25 963 25 962 54 c 6,37,-1
 962 54 l 5,38,-1
 964 445 l 6,39,40
 964 555 964 555 951 622 c 132,-1,41
 938 689 938 689 897 748 c 4,42,43
 810 871 810 871 646 873 c 4,44,45
 568 874 568 874 492 841 c 4,46,47
 320 766 320 766 262 579 c 5,48,49
 384 683 384 683 526 659 c 132,-1,50
 668 635 668 635 750 536 c 4,51,52
 807 467 807 467 823.5 379.5 c 132,-1,53
 840 292 840 292 811 207 c 132,-1,54
 782 122 782 122 714.5 63 c 132,-1,55
 647 4 647 4 554 -13.5 c 132,-1,56
 461 -31 461 -31 357.5 10 c 132,-1,57
 254 51 254 51 183 156 c 4,58,59
 172 167 172 167 168.5 176.5 c 4,60,-1
 165 186 l 4,61,62
 97 307 97 307 100 437 c 4,63,64
 107 687 107 687 260 847 c 4,65,66
 336 927 336 927 437.5 971 c 132,-1,67
 539 1015 539 1015 648.5 1013.5 c 132,-1,68
 758 1012 758 1012 864 958.5 c 132,-1,69
 970 905 970 905 1036 789 c 5,0,1
518.5 517.5 m 132,-1,71
 443 530 443 530 378 490.5 c 132,-1,72
 313 451 313 451 291 382 c 132,-1,73
 269 313 269 313 292 247 c 5,74,75
 339 169 339 169 407 141.5 c 132,-1,76
 475 114 475 114 529.5 124.5 c 132,-1,77
 584 135 584 135 623 169 c 132,-1,78
 662 203 662 203 679 253 c 4,79,80
 715 359 715 359 643 447 c 4,81,70
 594 505 594 505 518.5 517.5 c 132,-1,71
1710 489 m 132,-1,83
 1645 529 1645 529 1569.5 516.5 c 132,-1,84
 1494 504 1494 504 1452.5 454 c 132,-1,85
 1411 404 1411 404 1401.5 352.5 c 132,-1,86
 1392 301 1392 301 1409 251.5 c 132,-1,87
 1426 202 1426 202 1465 167.5 c 132,-1,88
 1504 133 1504 133 1558.5 122.5 c 132,-1,89
 1613 112 1613 112 1680.5 139 c 132,-1,90
 1748 166 1748 166 1795 243 c 5,91,92
 1819 310 1819 310 1797 379.5 c 132,-1,82
 1775 449 1775 449 1710 489 c 132,-1,83
EndSplineSet
EndChar

StartChar: ml_e
Encoding: 100 3342 51
Width: 2253
GlyphClass: 2
Flags: W
LayerCount: 2
Fore
SplineSet
1019 527 m 0,0,1
 1067 822 1067 822 1294 961 c 0,2,3
 1414 1034 1414 1034 1548 1032 c 0,4,5
 1820 1028 1820 1028 1996 804 c 0,6,7
 2146 612 2146 612 2153 332 c 0,8,9
 2158 126 2158 126 2080.5 -68.5 c 128,-1,10
 2003 -263 2003 -263 1857 -408 c 0,11,12
 1836 -429 1836 -429 1807 -429 c 128,-1,13
 1778 -429 1778 -429 1757.5 -408.5 c 128,-1,14
 1737 -388 1737 -388 1737 -359 c 128,-1,15
 1737 -330 1737 -330 1758 -309 c 0,16,17
 1882 -185 1882 -185 1950 -16 c 0,18,19
 2064 269 2064 269 1978 539 c 0,20,21
 1910 754 1910 754 1733 846 c 0,22,23
 1642 893 1642 893 1544 891.5 c 128,-1,24
 1446 890 1446 890 1361 838 c 0,25,26
 1194 736 1194 736 1157 505 c 0,27,28
 1145 431 1145 431 1145 284 c 2,29,-1
 1144 138 l 1,30,-1
 1524 134 l 1,31,-1
 1528 636 l 2,32,33
 1528 665 1528 665 1548.5 685.5 c 128,-1,34
 1569 706 1569 706 1598 706 c 2,35,-1
 1598 706 l 2,36,37
 1649 706 1649 706 1665 658 c 0,38,39
 1669 647 1669 647 1668.5 641.5 c 128,-1,40
 1668 636 1668 636 1668 635 c 2,41,-1
 1663 1 l 2,42,43
 1661 -196 1661 -196 1601.5 -283.5 c 128,-1,44
 1542 -371 1542 -371 1461 -407 c 128,-1,45
 1380 -443 1380 -443 1292.5 -427 c 128,-1,46
 1205 -411 1205 -411 1141 -354 c 0,47,48
 1011 -237 1011 -237 1005 -0 c 1,49,-1
 574 4 l 2,50,51
 545 4 545 4 524.5 25 c 128,-1,52
 504 46 504 46 504 69 c 0,53,54
 504 120 504 120 543 137 c 0,55,56
 620 171 620 171 656.5 243 c 128,-1,57
 693 315 693 315 674 393.5 c 128,-1,58
 655 472 655 472 590 520 c 128,-1,59
 525 568 525 568 445.5 563 c 128,-1,60
 366 558 366 558 308 504.5 c 128,-1,61
 250 451 250 451 238.5 373 c 128,-1,62
 227 295 227 295 268 227.5 c 128,-1,63
 309 160 309 160 384 133 c 0,64,65
 404 126 404 126 417.5 106.5 c 128,-1,66
 431 87 431 87 431 62.5 c 128,-1,67
 431 38 431 38 410.5 17.5 c 128,-1,68
 390 -3 390 -3 369 -3 c 128,-1,69
 348 -3 348 -3 337 1 c 0,70,71
 216 44 216 44 149 154.5 c 128,-1,72
 82 265 82 265 100 392.5 c 128,-1,73
 118 520 118 520 213 607.5 c 128,-1,74
 308 695 308 695 438 703 c 128,-1,75
 568 711 568 711 673.5 632.5 c 128,-1,76
 779 554 779 554 812.5 413.5 c 128,-1,77
 846 273 846 273 760 142 c 1,78,-1
 1004 140 l 1,79,-1
 1005 285 l 2,80,81
 1005 442 1005 442 1019 527 c 0,0,1
1145 -2 m 1,82,83
 1152 -175 1152 -175 1231 -247 c 0,84,85
 1269 -281 1269 -281 1316 -289 c 128,-1,86
 1363 -297 1363 -297 1406 -278 c 0,87,88
 1494 -239 1494 -239 1515 -120 c 0,89,90
 1522 -81 1522 -81 1523 -6 c 1,91,-1
 1145 -2 l 1,82,83
EndSplineSet
EndChar

StartChar: ml_ee
Encoding: 101 3343 52
Width: 2257
GlyphClass: 2
Flags: W
LayerCount: 2
Fore
SplineSet
1040.28125 337 m 6,0,1
 1040.28125 493 1040.28125 493 1064.28125 604 c 132,-1,2
 1088.28125 715 1088.28125 715 1169.78125 817 c 132,-1,3
 1251.28125 919 1251.28125 919 1373.78125 968.5 c 132,-1,4
 1496.28125 1018 1496.28125 1018 1633.28125 1010 c 4,5,6
 1820.28125 999 1820.28125 999 1949.28125 891 c 4,7,8
 2103.28125 764 2103.28125 764 2105.28125 564 c 4,9,10
 2106.28125 459 2106.28125 459 2036.28125 360 c 4,11,12
 2015.28125 330 2015.28125 330 1988.28125 304 c 5,13,14
 2034.28125 275 2034.28125 275 2068.28125 235 c 4,15,16
 2159.28125 130 2159.28125 130 2157.78125 -19 c 132,-1,17
 2156.28125 -168 2156.28125 -168 2040.78125 -276 c 132,-1,18
 1925.28125 -384 1925.28125 -384 1767.28125 -375 c 4,19,20
 1738.28125 -374 1738.28125 -374 1718.78125 -352 c 132,-1,21
 1699.28125 -330 1699.28125 -330 1700.78125 -300.5 c 132,-1,22
 1702.28125 -271 1702.28125 -271 1724.28125 -252 c 132,-1,23
 1746.28125 -233 1746.28125 -233 1776.28125 -235 c 132,-1,24
 1806.28125 -237 1806.28125 -237 1836.28125 -230 c 4,25,26
 1951.28125 -205 1951.28125 -205 1998.28125 -98 c 4,27,28
 2017.28125 -54 2017.28125 -54 2018.28125 -8 c 4,29,30
 2019.28125 78 2019.28125 78 1962.78125 143 c 132,-1,31
 1906.28125 208 1906.28125 208 1821.28125 220 c 4,32,33
 1797.28125 223 1797.28125 223 1780.28125 241 c 132,-1,34
 1763.28125 259 1763.28125 259 1760.78125 283 c 132,-1,35
 1758.28125 307 1758.28125 307 1771.78125 327.5 c 132,-1,36
 1785.28125 348 1785.28125 348 1808.28125 356 c 4,37,38
 1879.28125 380 1879.28125 380 1922.28125 441 c 4,39,40
 1991.28125 538 1991.28125 538 1951.28125 653 c 4,41,42
 1924.28125 730 1924.28125 730 1860.28125 783 c 4,43,44
 1766.28125 861 1766.28125 861 1642.28125 869 c 4,45,46
 1401.28125 884 1401.28125 884 1277.28125 727 c 4,47,48
 1218.28125 653 1218.28125 653 1199.28125 565.5 c 132,-1,49
 1180.28125 478 1180.28125 478 1180.28125 337 c 6,50,-1
 1180.28125 135 l 5,51,-1
 1528.28125 134 l 5,52,-1
 1532.28125 636 l 6,53,54
 1532.28125 665 1532.28125 665 1552.78125 685.5 c 132,-1,55
 1573.28125 706 1573.28125 706 1602.28125 706.5 c 132,-1,56
 1631.28125 707 1631.28125 707 1652.28125 686 c 132,-1,57
 1673.28125 665 1673.28125 665 1672.78125 627.5 c 132,-1,58
 1672.28125 590 1672.28125 590 1669.78125 414 c 132,-1,59
 1667.28125 238 1667.28125 238 1670.78125 78.5 c 132,-1,60
 1674.28125 -81 1674.28125 -81 1664.78125 -138 c 132,-1,61
 1655.28125 -195 1655.28125 -195 1615.28125 -251 c 4,62,63
 1533.28125 -368 1533.28125 -368 1381.28125 -370 c 4,64,65
 1298.28125 -371 1298.28125 -371 1225.28125 -333 c 4,66,67
 1051.28125 -242 1051.28125 -242 1041.28125 -5 c 5,68,-1
 570.28125 -3 l 6,69,70
 545.28125 -3 545.28125 -3 525.78125 13 c 132,-1,71
 506.28125 29 506.28125 29 501.78125 54 c 132,-1,72
 497.28125 79 497.28125 79 509.28125 101 c 132,-1,73
 521.28125 123 521.28125 123 545.28125 132 c 132,-1,74
 569.28125 141 569.28125 141 603.28125 165 c 132,-1,75
 637.28125 189 637.28125 189 669.28125 249.5 c 132,-1,76
 701.28125 310 701.28125 310 682.28125 392 c 132,-1,77
 663.28125 474 663.28125 474 594.78125 522.5 c 132,-1,78
 526.28125 571 526.28125 571 446.28125 563.5 c 132,-1,79
 366.28125 556 366.28125 556 309.78125 502.5 c 132,-1,80
 253.28125 449 253.28125 449 242.28125 372 c 132,-1,81
 231.28125 295 231.28125 295 270.28125 228 c 132,-1,82
 309.28125 161 309.28125 161 382.28125 132 c 4,83,84
 409.28125 122 409.28125 122 421.28125 95 c 132,-1,85
 433.28125 68 433.28125 68 422.28125 41 c 132,-1,86
 411.28125 14 411.28125 14 384.28125 2.5 c 132,-1,87
 357.28125 -9 357.28125 -9 330.28125 2 c 4,88,89
 213.28125 48 213.28125 48 149.78125 157.5 c 132,-1,90
 86.28125 267 86.28125 267 103.78125 392 c 132,-1,91
 121.28125 517 121.28125 517 212.78125 604 c 132,-1,92
 304.28125 691 304.28125 691 435.28125 703.5 c 132,-1,93
 566.28125 716 566.28125 716 676.78125 636.5 c 132,-1,94
 787.28125 557 787.28125 557 821.28125 412.5 c 132,-1,95
 855.28125 268 855.28125 268 765.28125 136 c 5,96,-1
 1040.28125 135 l 5,97,-1
 1040.28125 337 l 6,0,1
1181.28125 -5 m 5,98,99
 1189.28125 -157 1189.28125 -157 1290.28125 -209 c 4,100,101
 1372.28125 -252 1372.28125 -252 1443.78125 -216.5 c 132,-1,102
 1515.28125 -181 1515.28125 -181 1528.28125 -101 c 4,103,104
 1533.28125 -72 1533.28125 -72 1531.28125 -6 c 5,105,-1
 1181.28125 -5 l 5,98,99
EndSplineSet
EndChar

StartChar: ml_n
Encoding: 103 3346 54
Width: 1289
GlyphClass: 2
Flags: W
LayerCount: 2
Fore
SplineSet
689.94921875 1032.234375 m 4,0,1
 812.37109375 1031.09667969 812.37109375 1031.09667969 906.686523438 984.551757812 c 4,2,3
 1107.84179688 885.279296875 1107.84179688 885.279296875 1123.16015625 712.380859375 c 4,4,5
 1134.0078125 589.924804688 1134.0078125 589.924804688 1047.09375 497.103515625 c 5,6,7
 1144.7734375 450.157226562 1144.7734375 450.157226562 1178.31640625 340.504882812 c 132,-1,8
 1211.85839844 230.852539062 1211.85839844 230.852539062 1147.1796875 115 c 4,9,10
 1112.49023438 52.8642578125 1112.49023438 52.8642578125 1053.26269531 13.8125 c 132,-1,11
 994.034179688 -25.2392578125 994.034179688 -25.2392578125 922.842773438 -31.8466796875 c 132,-1,12
 851.651367188 -38.4541015625 851.651367188 -38.4541015625 786.064453125 -10.89453125 c 4,13,14
 767.930664062 -3.57421875 767.930664062 -3.57421875 755.096679688 15.447265625 c 132,-1,15
 742.262695312 34.4677734375 742.262695312 34.4677734375 742.262695312 58.7373046875 c 132,-1,16
 742.262695312 83.005859375 742.262695312 83.005859375 762.775390625 103.518554688 c 132,-1,17
 783.287109375 124.030273438 783.287109375 124.030273438 805.090820312 124.030273438 c 132,-1,18
 826.89453125 124.030273438 826.89453125 124.030273438 849.41796875 114.454101562 c 132,-1,19
 871.94140625 104.876953125 871.94140625 104.876953125 909.825195312 108.393554688 c 4,20,21
 986.462890625 115.505859375 986.462890625 115.505859375 1023.33496094 181.756835938 c 132,-1,22
 1060.20800781 248.0078125 1060.20800781 248.0078125 1044.10351562 300.65625 c 132,-1,23
 1028 353.3046875 1028 353.3046875 980.970703125 373.42578125 c 4,24,25
 962.310546875 381.41015625 962.310546875 381.41015625 920.388671875 390.275390625 c 6,26,-1
 849.009765625 405.373046875 l 6,27,28
 793.524414062 417.137695312 793.524414062 417.137695312 793.524414062 481.403320312 c 4,29,30
 793.524414062 498.185546875 793.524414062 498.185546875 810.481445312 518.38671875 c 132,-1,31
 827.4375 538.587890625 827.4375 538.587890625 851.796875 542.869140625 c 4,32,33
 926.909179688 556.067382812 926.909179688 556.067382812 964.193359375 618.18359375 c 4,34,35
 1015.34570312 703.409179688 1015.34570312 703.409179688 945.162109375 786.876953125 c 4,36,37
 912.73046875 825.446289062 912.73046875 825.446289062 857.560546875 852.673828125 c 4,38,39
 760.05078125 900.795898438 760.05078125 900.795898438 649.353515625 890.705078125 c 132,-1,40
 538.65625 880.61328125 538.65625 880.61328125 431.221679688 808.423828125 c 132,-1,41
 323.787109375 736.233398438 323.787109375 736.233398438 271.1796875 601.40625 c 4,42,43
 257.586914062 566.572265625 257.586914062 566.572265625 249.75 528.0703125 c 5,44,45
 337.83984375 604.418945312 337.83984375 604.418945312 447.0078125 606.596679688 c 4,46,47
 626.056640625 610.169921875 626.056640625 610.169921875 724.606445312 469.505859375 c 4,48,49
 758.993164062 420.42578125 758.993164062 420.42578125 773.296875 362.486328125 c 4,50,51
 803.120117188 241.6796875 803.120117188 241.6796875 743.291015625 132.532226562 c 132,-1,52
 683.461914062 23.3837890625 683.461914062 23.3837890625 564.9140625 -15.7666015625 c 132,-1,53
 446.365234375 -54.9169921875 446.365234375 -54.9169921875 335.404296875 -2.8994140625 c 132,-1,54
 224.442382812 49.119140625 224.442382812 49.119140625 161.537109375 172.4296875 c 4,55,56
 153.168945312 184.421875 153.168945312 184.421875 125.984375 258.35546875 c 132,-1,57
 98.80078125 332.2890625 98.80078125 332.2890625 100.055664062 441.74609375 c 132,-1,58
 101.310546875 551.202148438 101.310546875 551.202148438 137.704101562 644.475585938 c 4,59,60
 209.302734375 827.9765625 209.302734375 827.9765625 362.532226562 930.938476562 c 132,-1,61
 515.760742188 1033.90039062 515.760742188 1033.90039062 689.94921875 1032.234375 c 4,0,1
637.376953125 328.9296875 m 132,-1,63
 620.658203125 396.65234375 620.658203125 396.65234375 567.689453125 432.290039062 c 132,-1,64
 514.720703125 467.928710938 514.720703125 467.928710938 457.1171875 466.76953125 c 132,-1,65
 399.500976562 465.620117188 399.500976562 465.620117188 353.01171875 431.5703125 c 132,-1,66
 306.51953125 397.51953125 306.51953125 397.51953125 288.80078125 345.18359375 c 132,-1,67
 271.083007812 292.848632812 271.083007812 292.848632812 283.9296875 240.552734375 c 5,68,69
 325.408203125 156.408203125 325.408203125 156.408203125 390.383789062 125.948242188 c 4,70,71
 479.8984375 83.984375 479.8984375 83.984375 560.604492188 136.2265625 c 4,72,73
 599.44140625 161.366210938 599.44140625 161.366210938 626.780273438 211.241210938 c 132,-1,62
 654.119140625 261.115234375 654.119140625 261.115234375 637.376953125 328.9296875 c 132,-1,63
EndSplineSet
EndChar

StartChar: k1
Encoding: 106 3349 57
Width: 1896
GlyphClass: 2
Flags: W
LayerCount: 2
Fore
SplineSet
578 647 m 5,0,1
 629 875 629 875 809 976 c 4,2,3
 891 1022 891 1022 985 1023 c 132,-1,4
 1079 1024 1079 1024 1163 979 c 4,5,6
 1347 880 1347 880 1400 650 c 5,7,8
 1451 649 1451 649 1514 638 c 132,-1,9
 1577 627 1577 627 1647.5 581 c 132,-1,10
 1718 535 1718 535 1758.5 457 c 132,-1,11
 1799 379 1799 379 1796 301 c 4,12,13
 1789 150 1789 150 1683 57.5 c 132,-1,14
 1577 -35 1577 -35 1437 -22 c 4,15,16
 1410 -20 1410 -20 1391.5 0.5 c 132,-1,17
 1373 21 1373 21 1373 49 c 132,-1,18
 1373 77 1373 77 1393.5 97.5 c 132,-1,19
 1414 118 1414 118 1430 118 c 132,-1,20
 1446 118 1446 118 1466.5 116 c 132,-1,21
 1487 114 1487 114 1537.5 130.5 c 132,-1,22
 1588 147 1588 147 1624 201 c 4,23,24
 1686 295 1686 295 1632 397.5 c 132,-1,25
 1578 500 1578 500 1417 509 c 5,26,27
 1422 309 1422 309 1326 166 c 4,28,29
 1268 79 1268 79 1178 26.5 c 132,-1,30
 1088 -26 1088 -26 985 -24.5 c 132,-1,31
 882 -23 882 -23 804.5 23.5 c 132,-1,32
 727 70 727 70 679 130 c 5,33,34
 623 40 623 40 523 2 c 4,35,36
 457 -23 457 -23 386 -18 c 4,37,38
 264 -8 264 -8 180.5 82.5 c 132,-1,39
 97 173 97 173 100 283 c 132,-1,40
 103 393 103 393 160.5 471 c 132,-1,41
 218 549 218 549 313.5 596 c 132,-1,42
 409 643 409 643 578 647 c 5,0,1
723 648 m 5,43,-1
 1255 650 l 5,44,45
 1211 794 1211 794 1099 854.5 c 132,-1,46
 987 915 987 915 876.5 853 c 132,-1,47
 766 791 766 791 723 648 c 5,43,-1
1277 510 m 5,48,-1
 702 508 l 5,49,50
 698 350 698 350 773 236 c 4,51,52
 806 186 806 186 864 151 c 4,53,54
 987 77 987 77 1111 150 c 4,55,56
 1169 184 1169 184 1210 244 c 4,57,58
 1282 352 1282 352 1277 510 c 5,48,-1
562 506 m 5,59,60
 437 501 437 501 373 470 c 4,61,62
 243 406 243 406 240 292 c 4,63,64
 238 226 238 226 283.5 176.5 c 132,-1,65
 329 127 329 127 382 123 c 4,66,67
 512 113 512 113 565 214 c 4,68,69
 589 260 589 260 586 309 c 5,70,71
 560 401 560 401 562 506 c 5,59,60
EndSplineSet
EndChar

StartChar: k2
Encoding: 107 3350 58
Width: 1727
GlyphClass: 2
Flags: W
LayerCount: 2
Fore
SplineSet
1486 955 m 1,0,1
 1486 970 l 2,2,3
 1486 985 1486 985 1506.5 1005.5 c 128,-1,4
 1527 1026 1527 1026 1556 1026 c 128,-1,5
 1585 1026 1585 1026 1606 1005.5 c 128,-1,6
 1627 985 1627 985 1627 970 c 128,-1,7
 1627 955 1627 955 1626 955 c 2,8,-1
 1623 69 l 2,9,10
 1623 40 1623 40 1602.5 19.5 c 128,-1,11
 1582 -1 1582 -1 1553 -1 c 2,12,-1
 904 -1 l 2,13,14
 858 -1 858 -1 836 48 c 128,-1,15
 814 97 814 97 889 142 c 0,16,17
 924 163 924 163 967.5 213.5 c 128,-1,18
 1011 264 1011 264 1035 324 c 0,19,20
 1086 450 1086 450 1052 581 c 128,-1,21
 1018 712 1018 712 911.5 796.5 c 128,-1,22
 805 881 805 881 686 884 c 0,23,24
 449 891 449 891 319 708 c 0,25,26
 255 617 255 617 244 499 c 1,27,28
 287 547 287 547 354.5 578 c 128,-1,29
 422 609 422 609 506 601 c 0,30,31
 629 590 629 590 711.5 498.5 c 128,-1,32
 794 407 794 407 792 283.5 c 128,-1,33
 790 160 790 160 702 71.5 c 128,-1,34
 614 -17 614 -17 488 -18.5 c 128,-1,35
 362 -20 362 -20 268 63.5 c 128,-1,36
 174 147 174 147 130.5 272.5 c 128,-1,37
 87 398 87 398 106.5 537.5 c 128,-1,38
 126 677 126 677 205.5 790 c 128,-1,39
 285 903 285 903 410 966 c 128,-1,40
 535 1029 535 1029 674 1025 c 0,41,42
 856 1020 856 1020 998.5 906.5 c 128,-1,43
 1141 793 1141 793 1187.5 616.5 c 128,-1,44
 1234 440 1234 440 1165 272 c 0,45,46
 1136 201 1136 201 1087 139 c 1,47,-1
 1483 139 l 1,48,-1
 1486 955 l 1,0,1
607.5 404.5 m 128,-1,50
 562 455 562 455 504 461 c 0,51,52
 392 471 392 471 334.5 389.5 c 128,-1,53
 277 308 277 308 315 218 c 1,54,55
 387 120 387 120 488 121 c 0,56,57
 555 122 555 122 603 170 c 128,-1,58
 651 218 651 218 652 286 c 128,-1,49
 653 354 653 354 607.5 404.5 c 128,-1,50
EndSplineSet
EndChar

StartChar: k3
Encoding: 108 3351 59
Width: 1819
GlyphClass: 2
Flags: W
LayerCount: 2
Fore
SplineSet
455 1014 m 4,0,1
 468 1020 468 1020 489.5 1020 c 132,-1,2
 511 1020 511 1020 531.5 999.5 c 132,-1,3
 552 979 552 979 552 954.5 c 132,-1,4
 552 930 552 930 539 911 c 132,-1,5
 526 892 526 892 508 885 c 4,6,7
 390 837 390 837 317 732.5 c 132,-1,8
 244 628 244 628 239.5 489 c 132,-1,9
 235 350 235 350 326 239 c 4,10,11
 370 186 370 186 433 154 c 4,12,13
 561 87 561 87 675 135.5 c 132,-1,14
 789 184 789 184 817 314 c 4,15,16
 826 359 826 359 826 450 c 6,17,-1
 826 542 l 6,18,19
 826 640 826 640 839.5 711.5 c 132,-1,20
 853 783 853 783 901 853 c 4,21,22
 999 997 999 997 1186 1016 c 4,23,24
 1292 1027 1292 1027 1394 989 c 132,-1,25
 1496 951 1496 951 1571 875 c 132,-1,26
 1646 799 1646 799 1684 699.5 c 132,-1,27
 1722 600 1722 600 1719 502 c 4,28,29
 1713 309 1713 309 1595 161 c 4,30,31
 1476 16 1476 16 1293 -25 c 4,32,33
 1285 -27 1285 -27 1266 -27 c 132,-1,34
 1247 -27 1247 -27 1226.5 -6.5 c 132,-1,35
 1206 14 1206 14 1206 36 c 4,36,37
 1206 100 1206 100 1279 116 c 4,38,39
 1327 126 1327 126 1385.5 162.5 c 132,-1,40
 1444 199 1444 199 1487 250 c 4,41,42
 1576 358 1576 358 1579 498 c 4,43,44
 1581 575 1581 575 1553 649 c 4,45,46
 1496 800 1496 800 1352 854 c 132,-1,47
 1208 908 1208 908 1102.5 849 c 132,-1,48
 997 790 997 790 974 669 c 4,49,50
 966 627 966 627 966 542 c 6,51,-1
 966 450 l 6,52,53
 966 345 966 345 950 268 c 132,-1,54
 934 191 934 191 877.5 118.5 c 132,-1,55
 821 46 821 46 735.5 9.5 c 132,-1,56
 650 -27 650 -27 553.5 -22 c 132,-1,57
 457 -17 457 -17 369 28.5 c 132,-1,58
 281 74 281 74 219 149 c 4,59,60
 94 301 94 301 100 487.5 c 132,-1,61
 106 674 106 674 202.5 812.5 c 132,-1,62
 299 951 299 951 455 1014 c 4,0,1
EndSplineSet
EndChar

StartChar: k4
Encoding: 109 3352 60
Width: 2343
GlyphClass: 2
Flags: W
LayerCount: 2
Fore
SplineSet
1112.01367188 882 m 4,0,1
 1244 1033 1244 1033 1467.51367188 1023 c 132,-1,2
 1691 1013 1691 1013 1807.01367188 867 c 4,3,4
 1860 800 1860 800 1879.36411929 725.506884462 c 132,-1,6
 1898.72823858 651.013768924 1898.72823858 651.013768924 1896.01367188 518 c 6,7,-1
 1893.01367188 371 l 6,8,9
 1892 343 1892 343 1872.10387834 323.103807381 c 4,10,11
 1852.20775669 303.207614763 1852.20775669 303.207614763 1824.01367188 303 c 6,12,-1
 1145.01367188 298 l 5,13,-1
 1145.01367188 140 l 5,14,-1
 2102.01367188 140 l 5,15,-1
 2103.01367188 947 l 5,16,-1
 2103.01367188 948 l 6,17,18
 2103 977 2103 977 2123.51367188 997.5 c 132,-1,19
 2144 1018 2144 1018 2173.01367188 1018 c 132,-1,20
 2202 1018 2202 1018 2222.51367188 997.5 c 132,-1,21
 2243.01367188 976.986319001 2243.01367188 976.986319001 2243.01367188 962 c 6,22,-1
 2243.01367188 947 l 5,23,-1
 2242.01367188 70 l 6,24,25
 2242 41 2242 41 2221.51367188 20.5 c 132,-1,26
 2201 0 2201 0 2172.01367188 0 c 6,27,-1
 1075.01367188 0 l 6,28,29
 1046 0 1046 0 1025.51367188 20.5 c 132,-1,30
 1005.01367188 40.986337232 1005.01367188 40.986337232 1005.01367188 70 c 6,31,-1
 1005.01367188 297 l 5,32,-1
 560.013671875 294 l 6,33,34
 531 294 531 294 510.513671875 314.5 c 132,-1,35
 490 335 490 335 490.013671875 360 c 132,-1,36
 490 385 490 385 503.513671875 404 c 132,-1,37
 517 423 517 423 546.513671875 433.5 c 132,-1,38
 576 444 576 444 609.013671875 472 c 132,-1,39
 642 500 642 500 661.013671875 536 c 4,40,41
 718 644 718 644 659.013671875 750 c 4,42,43
 630 801 630 801 569.513671875 839.5 c 132,-1,44
 509 878 509 878 430.013671875 863 c 132,-1,45
 351 848 351 848 300.513671875 794.5 c 132,-1,46
 250 741 250 741 241.513671875 667.5 c 132,-1,47
 233 594 233 594 269.513671875 530 c 132,-1,48
 306 466 306 466 374.013671875 437 c 4,49,50
 417 419 417 419 416.013671875 367 c 4,51,52
 416 343 416 343 395.513671875 322.5 c 132,-1,53
 375 302 375 302 353.013671875 302 c 132,-1,54
 331 302 331 302 317.013671875 309 c 4,55,56
 207 357 207 357 148.013671875 461 c 132,-1,57
 89 565 89 565 102.513671875 684 c 132,-1,58
 116 803 116 803 198.013671875 890.5 c 132,-1,59
 280 978 280 978 409.013671875 1001.5 c 132,-1,60
 538 1025 538 1025 658.513671875 949 c 132,-1,61
 779 873 779 873 818.513671875 723 c 132,-1,62
 858 573 858 573 763.013671875 435 c 5,63,-1
 1005.01367188 437 l 5,64,-1
 1006.01367188 517 l 5,65,66
 1006 635 1006 635 1026.01367188 720.5 c 132,-1,67
 1046 806 1046 806 1112.01367188 882 c 4,0,1
1697.01367188 780 m 4,68,69
 1620 876 1620 876 1462.51367188 882.5 c 132,-1,70
 1305 889 1305 889 1218.01367188 789 c 4,71,72
 1175 740 1175 740 1160.51367188 679.5 c 132,-1,73
 1146 619 1146 619 1146.01367188 517 c 5,74,-1
 1145.01367188 438 l 5,75,-1
 1755.01367188 442 l 5,76,-1
 1757.01367188 522 l 6,77,78
 1759 616 1759 616 1747 674 c 132,-1,80
 1735 732 1735 732 1697.01367188 780 c 4,68,69
EndSplineSet
EndChar

StartChar: ng
Encoding: 110 3353 61
Width: 2048
GlyphClass: 2
Flags: W
LayerCount: 2
Fore
SplineSet
1073 779 m 5,0,1
 1152 919 1152 919 1297 978 c 4,2,3
 1404 1021 1404 1021 1536.5 1016.5 c 132,-1,4
 1669 1012 1669 1012 1774 944 c 4,5,6
 1905 860 1905 860 1932 719 c 4,7,8
 1946 648 1946 648 1924 576.5 c 132,-1,9
 1902 505 1902 505 1845 458 c 4,10,11
 1844 457 1844 457 1843 456 c 5,12,13
 1896 416 1896 416 1925 353.5 c 132,-1,14
 1954 291 1954 291 1946 225 c 4,15,16
 1930 95 1930 95 1827 28 c 132,-1,17
 1724 -39 1724 -39 1604 -19 c 4,18,19
 1529 -7 1529 -7 1467 36 c 4,20,21
 1436 57 1436 57 1436 91 c 132,-1,22
 1436 125 1436 125 1456.5 145.5 c 132,-1,23
 1477 166 1477 166 1503 166 c 132,-1,24
 1529 166 1529 166 1556.5 147 c 132,-1,25
 1584 128 1584 128 1638.5 119 c 132,-1,26
 1693 110 1693 110 1731 135 c 4,27,28
 1798 178 1798 178 1805.5 241 c 132,-1,29
 1813 304 1813 304 1760 341 c 132,-1,30
 1707 378 1707 378 1596 379 c 5,31,-1
 1536 379 l 6,32,33
 1507 379 1507 379 1486.5 400 c 132,-1,34
 1466 421 1466 421 1466 444.5 c 132,-1,35
 1466 468 1466 468 1475 484 c 4,36,37
 1495 519 1495 519 1534 521 c 6,38,-1
 1603 524 l 6,39,40
 1712 529 1712 529 1746 559 c 4,41,42
 1831 636 1831 636 1774 742 c 4,43,44
 1747 792 1747 792 1686 831.5 c 132,-1,45
 1625 871 1625 871 1527 875 c 4,46,47
 1330 882 1330 882 1226 753 c 4,48,49
 1176 691 1176 691 1160 617.5 c 132,-1,50
 1144 544 1144 544 1145 423 c 6,51,-1
 1147 46 l 6,52,53
 1147 17 1147 17 1126 -4 c 132,-1,54
 1105 -25 1105 -25 1076 -25 c 132,-1,55
 1047 -25 1047 -25 1026.5 -4.5 c 132,-1,56
 1006 16 1006 16 1005 45 c 6,57,-1
 1002 424 l 6,58,59
 1001 542 1001 542 986 614.5 c 132,-1,60
 971 687 971 687 923 749.5 c 132,-1,61
 875 812 875 812 802 844.5 c 132,-1,62
 729 877 729 877 649 874 c 4,63,64
 483 868 483 868 366 749 c 4,65,66
 303 685 303 685 271 596 c 5,67,68
 391 692 391 692 531 670.5 c 132,-1,69
 671 649 671 649 755 551 c 4,70,71
 814 482 814 482 831.5 392 c 132,-1,72
 849 302 849 302 820 215 c 132,-1,73
 791 128 791 128 722 67.5 c 132,-1,74
 653 7 653 7 558 -11 c 132,-1,75
 463 -29 463 -29 368.5 8.5 c 132,-1,76
 274 46 274 46 212 121 c 4,77,78
 89 267 89 267 101.5 480 c 132,-1,79
 114 693 114 693 267 850.5 c 132,-1,80
 420 1008 420 1008 640 1016 c 4,81,82
 757 1020 757 1020 877.5 966.5 c 132,-1,83
 998 913 998 913 1073 779 c 5,0,1
376.675649968 498.23208624 m 4,84,85
 304.904941378 458.158040748 304.904941378 458.158040748 287.175649968 370.73208624 c 4,86,87
 255.943026674 209.372922932 255.943026674 209.372922932 415.024213143 142.896256259 c 4,88,89
 549.684056653 86.6247528203 549.684056653 86.6247528203 628.5 174.5 c 4,90,91
 759 320 759 320 649.707595146 453.510468014 c 132,-1,93
 540.415190292 587.020936028 540.415190292 587.020936028 376.675649968 498.23208624 c 4,84,85
EndSplineSet
EndChar

StartChar: ch1
Encoding: 111 3354 62
Width: 1523
GlyphClass: 2
Flags: W
LayerCount: 2
Fore
SplineSet
1283 954 m 2,0,1
 1284 974 1284 974 1293 990 c 0,2,3
 1313 1025 1313 1025 1347.5 1025 c 128,-1,4
 1382 1025 1382 1025 1402.5 1004.5 c 128,-1,5
 1423 984 1423 984 1423 955 c 2,6,-1
 1423 70 l 2,7,8
 1423 41 1423 41 1402.5 20.5 c 128,-1,9
 1382.09472656 0.0947265625 1382.09472656 0.0947265625 1353 0 c 2,10,-1
 121 -4 l 1,11,12
 105.5 -4 l 2,13,14
 91 -4 91 -4 70.5 16.5 c 128,-1,15
 50 37 50 37 50 66 c 128,-1,16
 50 95 50 95 70.5 115.5 c 128,-1,17
 91 136 91 136 120 136 c 2,18,-1
 121 136 l 1,19,-1
 682 138 l 1,20,21
 769 149 769 149 830 213 c 0,22,23
 919 305 919 305 894.5 418.5 c 128,-1,24
 870 532 870 532 786 578 c 0,25,26
 681 635 681 635 593.5 577 c 128,-1,27
 506 519 506 519 501 424 c 0,28,29
 499 377 499 377 511 350 c 128,-1,30
 523 323 523 323 523 301 c 128,-1,31
 523 279 523 279 502.5 258.5 c 128,-1,32
 482 238 482 238 458 238 c 0,33,34
 407 238 407 238 389 280 c 0,35,36
 357 352 357 352 360.5 431 c 128,-1,37
 364 510 364 510 403 578 c 128,-1,38
 442 646 442 646 517 695.5 c 128,-1,39
 592 745 592 745 676 744 c 0,40,41
 834 743 834 743 940.5 633 c 128,-1,42
 1047 523 1047 523 1037 358 c 0,43,44
 1029 235 1029 235 951 139 c 1,45,-1
 1283 140 l 1,46,-1
 1283 954 l 2,0,1
EndSplineSet
EndChar

StartChar: ch2
Encoding: 112 3355 63
Width: 2478
GlyphClass: 2
Flags: W
LayerCount: 2
Fore
SplineSet
2357 596 m 4,0,1
 2387 500 2387 500 2375.5 390 c 132,-1,2
 2364 280 2364 280 2307 187 c 132,-1,3
 2250 94 2250 94 2149.5 41 c 132,-1,4
 2049 -12 2049 -12 1958 -1 c 4,5,6
 1793 19 1793 19 1700.5 130.5 c 132,-1,7
 1608 242 1608 242 1598 387 c 4,8,9
 1591 490 1591 490 1627 589 c 132,-1,10
 1663 688 1663 688 1735.5 762 c 132,-1,11
 1808 836 1808 836 1906 874 c 5,12,13
 1711 928 1711 928 1542 813 c 4,14,15
 1441 744 1441 744 1391 630 c 4,16,17
 1314 457 1314 457 1388 281 c 4,18,19
 1428 186 1428 186 1502 121 c 4,20,21
 1526 100 1526 100 1526 69.5 c 132,-1,22
 1526 39 1526 39 1505.5 18.5 c 132,-1,23
 1485 -2 1485 -2 1456 -2 c 6,24,-1
 121 4 l 6,25,26
 120 4 l 4,27,28
 91 4 91 4 70.5 24.5 c 132,-1,29
 50 45 50 45 50 74 c 132,-1,30
 50 103 50 103 70.5 123.5 c 132,-1,31
 91 144 91 144 106 144 c 4,32,-1
 121 144 l 6,33,-1
 661 142 l 5,34,35
 669 145 669 145 677 145 c 4,36,37
 766 154 766 154 828.5 219.5 c 132,-1,38
 891 285 891 285 897 381.5 c 132,-1,39
 903 478 903 478 835 549 c 4,40,41
 803 582 803 582 757.5 599 c 132,-1,42
 712 616 712 616 668.5 611 c 132,-1,43
 625 606 625 606 585.5 580 c 132,-1,44
 546 554 546 554 524.5 516.5 c 132,-1,45
 503 479 503 479 501 432 c 132,-1,46
 499 385 499 385 511 358 c 132,-1,47
 523 331 523 331 523 309 c 132,-1,48
 523 287 523 287 502.5 266.5 c 132,-1,49
 482 246 482 246 458 246 c 4,50,51
 407 246 407 246 389 288 c 4,52,53
 357 360 357 360 360.5 438.5 c 132,-1,54
 364 517 364 517 403 585.5 c 132,-1,55
 442 654 442 654 508 697 c 4,56,57
 635 781 635 781 781 739 c 4,58,59
 870 713 870 713 930 652 c 4,60,61
 1047 531 1047 531 1037 366 c 4,62,63
 1029 239 1029 239 946 141 c 5,64,-1
 1305 139 l 5,65,66
 1204 297 1204 297 1213 481 c 4,67,68
 1224 703 1224 703 1381.5 861 c 132,-1,69
 1539 1019 1539 1019 1753 1029.5 c 132,-1,70
 1967 1040 1967 1040 2134 917.5 c 132,-1,71
 2301 795 2301 795 2357 596 c 4,0,1
2096 767 m 5,72,73
 2021 770 2021 770 1952 741 c 132,-1,74
 1883 712 1883 712 1834 662 c 132,-1,75
 1785 612 1785 612 1758.5 540.5 c 132,-1,76
 1732 469 1732 469 1738.5 383 c 132,-1,77
 1745 297 1745 297 1805 224.5 c 132,-1,78
 1865 152 1865 152 1944 142 c 132,-1,79
 2023 132 2023 132 2086.5 166 c 132,-1,80
 2150 200 2150 200 2189 262.5 c 132,-1,81
 2228 325 2228 325 2236 404.5 c 132,-1,82
 2244 484 2244 484 2222 558 c 4,83,84
 2188 679 2188 679 2096 767 c 5,72,73
EndSplineSet
EndChar

StartChar: ch3
Encoding: 113 3356 64
Width: 1529
GlyphClass: 2
Flags: W
LayerCount: 2
Fore
SplineSet
1276.45410156 122.659179688 m 128,-1,1
 1304.81542969 151.284179688 1304.81542969 151.284179688 1304.81542969 184.770507812 c 128,-1,2
 1304.81542969 218.256835938 1304.81542969 218.256835938 1291.85644531 240.763671875 c 0,3,4
 1263.83691406 289.430664062 1263.83691406 289.430664062 1215.88964844 289.430664062 c 128,-1,5
 1167.94335938 289.430664062 1167.94335938 289.430664062 1139.58105469 260.8046875 c 128,-1,6
 1111.21972656 232.178710938 1111.21972656 232.178710938 1111.21972656 198.692382812 c 128,-1,7
 1111.21972656 165.206054688 1111.21972656 165.206054688 1124.17871094 142.69921875 c 0,8,9
 1152.19824219 94.033203125 1152.19824219 94.033203125 1200.14550781 94.033203125 c 128,-1,0
 1248.09179688 94.033203125 1248.09179688 94.033203125 1276.45410156 122.659179688 c 128,-1,1
446.139648438 673.243164062 m 128,-1,11
 446.139648438 717.978515625 446.139648438 717.978515625 414.5078125 749.610351562 c 128,-1,12
 382.875 781.243164062 382.875 781.243164062 338.139648438 781.243164062 c 128,-1,13
 293.404296875 781.243164062 293.404296875 781.243164062 261.772460938 749.610351562 c 128,-1,14
 230.139648438 717.978515625 230.139648438 717.978515625 230.139648438 673.243164062 c 128,-1,15
 230.139648438 628.5078125 230.139648438 628.5078125 261.772460938 596.875 c 128,-1,16
 293.404296875 565.243164062 293.404296875 565.243164062 338.139648438 565.243164062 c 128,-1,17
 382.875 565.243164062 382.875 565.243164062 414.5078125 596.875 c 128,-1,10
 446.139648438 628.5078125 446.139648438 628.5078125 446.139648438 673.243164062 c 128,-1,11
772.74609375 871.9140625 m 1,18,19
 845 993 845 993 979.055664062 1022.14941406 c 0,20,21
 1071 1042 1071 1042 1176 1009 c 128,-1,23
 1281 976 1281 976 1354.19238281 877.515625 c 0,24,25
 1427 779 1427 779 1423.56054688 675.862304688 c 0,26,27
 1417 504 1417 504 1295.96484375 391.0390625 c 1,28,29
 1361 359 1361 359 1400.5 295.5 c 128,-1,31
 1440 232 1440 232 1426 148.5 c 128,-1,33
 1412 65 1412 65 1345.5 12 c 128,-1,35
 1279 -41 1279 -41 1194.5 -37 c 128,-1,37
 1110 -33 1110 -33 1060.66015625 15.56640625 c 0,38,39
 968 106 968 106 984.0859375 218 c 1,40,41
 936 192 936 192 868 150 c 128,-1,43
 800 108 800 108 754.029296875 82.029296875 c 0,44,45
 425 -105 425 -105 232.94140625 0.224609375 c 0,46,47
 175 32 175 32 141 89.5 c 128,-1,49
 107 147 107 147 115.786132812 210.5 c 0,50,51
 124 274 124 274 162.850585938 318.377929688 c 0,52,53
 247 414 247 414 423.952148438 406.470703125 c 128,-1,54
 601 399 601 399 757 392 c 128,-1,56
 913 385 913 385 970.412109375 392.609375 c 0,57,58
 1176 419 1176 419 1254.8515625 562.666015625 c 0,59,60
 1281 611 1281 611 1283.28613281 673 c 0,61,62
 1285 735 1285 735 1240.65234375 795.583007812 c 0,63,64
 1195 856 1195 856 1130.27441406 876.783203125 c 0,65,66
 1000 918 1000 918 919.36328125 835.01171875 c 0,67,68
 859 773 859 773 858.322265625 665.551757812 c 0,69,70
 858 627 858 627 856.966796875 608.44921875 c 2,71,-1
 854.771484375 490.98828125 l 2,72,73
 854 463 854 463 833 443 c 128,-1,75
 812 423 812 423 783.5 423 c 128,-1,77
 755 423 755 423 734.766601562 444.247558594 c 128,-1,79
 714.533203125 465.495117188 714.533203125 465.495117188 714.787109375 492.9453125 c 2,80,-1
 715.859375 608.72265625 l 2,81,82
 716 647 716 647 716.48046875 647.51171875 c 0,83,84
 707 774 707 774 598.025390625 843.61328125 c 0,85,86
 525 890 525 890 441.5546875 882.4296875 c 1,87,88
 442 882 442 882 443.256835938 881.65234375 c 0,89,90
 528 843 528 843 564 756.5 c 128,-1,92
 600 670 600 670 565 587 c 0,93,94
 509 455 509 455 361 450 c 128,-1,96
 213 445 213 445 155 534 c 0,97,98
 78 652 78 652 116 780.5 c 128,-1,100
 154 909 154 909 279.5 977 c 128,-1,102
 405 1045 405 1045 544.5 1015 c 128,-1,104
 684 985 684 985 772.74609375 871.9140625 c 1,18,19
759.146484375 248.01171875 m 1,105,-1
 535.659179688 268.712890625 l 2,106,107
 370.40625 283.361328125 370.40625 283.361328125 315.346679688 259.31640625 c 128,-1,108
 260.286132812 235.271484375 260.286132812 235.271484375 254.704101562 193.34375 c 128,-1,109
 249.123046875 151.416992188 249.123046875 151.416992188 299.018554688 123.671875 c 128,-1,110
 348.9140625 95.92578125 348.9140625 95.92578125 451.297851562 109.125 c 128,-1,111
 553.681640625 122.32421875 553.681640625 122.32421875 759.146484375 248.01171875 c 1,105,-1
EndSplineSet
EndChar

StartChar: ch4
Encoding: 114 3357 65
Width: 3144
GlyphClass: 2
Flags: W
LayerCount: 2
Fore
SplineSet
179.6640625 762.115234375 m 132,-1,1
 259.500976562 894.118164062 259.500976562 894.118164062 395.197265625 965.07421875 c 132,-1,2
 530.89453125 1036.03027344 530.89453125 1036.03027344 662.208007812 1029.54199219 c 132,-1,3
 793.521484375 1023.05371094 793.521484375 1023.05371094 894.677734375 977.470703125 c 5,4,5
 1066.73730469 1045.953125 1066.73730469 1045.953125 1247.55566406 1002.99902344 c 132,-1,6
 1428.37304688 960.044921875 1428.37304688 960.044921875 1527.03515625 811.97265625 c 4,7,8
 1574.17871094 741.221679688 1574.17871094 741.221679688 1591.10839844 667.514648438 c 132,-1,9
 1608.03710938 593.80859375 1608.03710938 593.80859375 1614.22460938 490.751953125 c 6,10,-1
 1618.91796875 412.55859375 l 6,11,12
 1623.93847656 328.930664062 1623.93847656 328.930664062 1634.39257812 278.908203125 c 4,13,14
 1658.31738281 164.421875 1658.31738281 164.421875 1749.00488281 119.03125 c 132,-1,15
 1839.69238281 73.6396484375 1839.69238281 73.6396484375 1918.41503906 156.55078125 c 132,-1,16
 1997.13867188 239.461914062 1997.13867188 239.461914062 1998.84765625 441.267578125 c 4,17,18
 1999 481 1999 481 1997.89453125 521.119140625 c 6,19,-1
 1990.2421875 918.94140625 l 6,20,21
 1990.24121094 948.291992188 1990.24121094 948.291992188 2010.75292969 968.8046875 c 132,-1,22
 2031.265625 989.31640625 2031.265625 989.31640625 2059.76464844 989.31640625 c 132,-1,23
 2088.26367188 989.31640625 2088.26367188 989.31640625 2108.76367188 969.500976562 c 132,-1,24
 2129.26464844 949.684570312 2129.26464844 949.684570312 2130.21484375 921.685546875 c 6,25,-1
 2138.11328125 526.3359375 l 6,26,27
 2139.21875 471.043945312 2139.21875 471.043945312 2139.21875 446.44921875 c 4,28,29
 2153.2421875 321.614257812 2153.2421875 321.614257812 2234.22070312 230.955078125 c 4,30,31
 2285.11425781 173.978515625 2285.11425781 173.978515625 2357.30078125 140.000976562 c 4,32,33
 2507.69921875 69.2109375 2507.69921875 69.2109375 2663.83984375 131.442382812 c 132,-1,34
 2819.98046875 193.673828125 2819.98046875 193.673828125 2879.31542969 352.852539062 c 132,-1,35
 2938.63183594 511.98046875 2938.63183594 511.98046875 2860.52441406 662.7734375 c 132,-1,36
 2782.41601562 813.568359375 2782.41601562 813.568359375 2618.22167969 856.920898438 c 4,37,38
 2537.89648438 878.129882812 2537.89648438 878.129882812 2459.59960938 865.556640625 c 4,39,40
 2453.62597656 864.515625 2453.62597656 864.515625 2436.10839844 864.515625 c 132,-1,41
 2418.58984375 864.515625 2418.58984375 864.515625 2398.07714844 885.028320312 c 132,-1,42
 2377.56542969 905.540039062 2377.56542969 905.540039062 2377.56542969 932.55078125 c 132,-1,43
 2377.56542969 959.561523438 2377.56542969 959.561523438 2395.09765625 979.85546875 c 132,-1,44
 2412.62988281 1000.15039062 2412.62988281 1000.15039062 2437.40234375 1003.78710938 c 4,45,46
 2546.10644531 1021.2421875 2546.10644531 1021.2421875 2654.08007812 992.733398438 c 132,-1,47
 2762.0546875 964.225585938 2762.0546875 964.225585938 2847.97070312 895.3828125 c 132,-1,48
 2933.88867188 826.541015625 2933.88867188 826.541015625 2985.25195312 727.379882812 c 132,-1,49
 3036.61425781 628.21875 3036.61425781 628.21875 3043.27734375 518.32421875 c 132,-1,50
 3049.94140625 408.431640625 3049.94140625 408.431640625 3010.93457031 303.791015625 c 132,-1,51
 2971.92773438 199.151367188 2971.92773438 199.151367188 2894.95703125 120.431640625 c 132,-1,52
 2817.98632812 41.712890625 2817.98632812 41.712890625 2714.24902344 0.3671875 c 4,53,54
 2503.08398438 -83.794921875 2503.08398438 -83.794921875 2297.5078125 12.96484375 c 4,55,56
 2174.54980469 70.8388671875 2174.54980469 70.8388671875 2096.08789062 179.72265625 c 5,57,58
 2021.19628906 -1.6044921875 2021.19628906 -1.6044921875 1857.61816406 -29.96875 c 4,59,60
 1765.73730469 -45.900390625 1765.73730469 -45.900390625 1685.18457031 -5.5830078125 c 4,61,62
 1535.12695312 69.5205078125 1535.12695312 69.5205078125 1495.375 259.736328125 c 4,63,64
 1484.80273438 310.326171875 1484.80273438 310.326171875 1479.16992188 404.16796875 c 6,65,-1
 1474.4765625 482.361328125 l 6,66,67
 1468.98730469 573.810546875 1468.98730469 573.810546875 1456.22851562 629.360351562 c 132,-1,68
 1443.46972656 684.909179688 1443.46972656 684.909179688 1410.65527344 734.15625 c 4,69,70
 1342.4140625 836.5703125 1342.4140625 836.5703125 1209.04101562 868.251953125 c 4,71,72
 1133.29492188 886.24609375 1133.29492188 886.24609375 1050.85546875 874.474609375 c 5,73,74
 1236.15039062 704.400390625 1236.15039062 704.400390625 1251.97460938 450.7578125 c 4,75,76
 1263.5 266.046875 1263.5 266.046875 1172.52734375 133.240234375 c 4,77,78
 1120.85546875 57.8076171875 1120.85546875 57.8076171875 1041.73046875 13.0849609375 c 132,-1,79
 962.60546875 -31.6376953125 962.60546875 -31.6376953125 871.487304688 -29.431640625 c 132,-1,80
 780.370117188 -27.2255859375 780.370117188 -27.2255859375 703.348632812 21.521484375 c 132,-1,81
 626.327148438 70.2685546875 626.327148438 70.2685546875 578.400390625 148.44921875 c 4,82,83
 494.106445312 285.95703125 494.106445312 285.95703125 515.01953125 470.3984375 c 4,84,85
 528.588867188 590.069335938 528.588867188 590.069335938 585.59765625 697.649414062 c 132,-1,86
 642.607421875 805.229492188 642.607421875 805.229492188 734.34765625 881.947265625 c 5,87,88
 589.43359375 908.65625 589.43359375 908.65625 474.241210938 848.422851562 c 132,-1,89
 359.047851562 788.189453125 359.047851562 788.189453125 299.458984375 689.6640625 c 132,-1,90
 239.872070312 591.139648438 239.872070312 591.139648438 240 475.998046875 c 132,-1,91
 240.127929688 360.858398438 240.127929688 360.858398438 299.93359375 262.466796875 c 132,-1,92
 359.740234375 164.076171875 359.740234375 164.076171875 461.892578125 110.94921875 c 4,93,94
 477.868164062 102.926757812 477.868164062 102.926757812 489.174804688 84.595703125 c 132,-1,95
 500.481445312 66.265625 500.481445312 66.265625 500.481445312 47.82421875 c 132,-1,96
 500.481445312 29.3818359375 500.481445312 29.3818359375 485.663085938 3.8818359375 c 132,-1,97
 470.844726562 -21.6181640625 470.844726562 -21.6181640625 441.838867188 -21.6181640625 c 132,-1,98
 412.83203125 -21.6181640625 412.83203125 -21.6181640625 397.296875 -13.2578125 c 4,99,100
 260.431640625 57.923828125 260.431640625 57.923828125 180.30078125 189.748046875 c 132,-1,101
 100.171875 321.57421875 100.171875 321.57421875 100 475.841796875 c 132,-1,0
 99.8291015625 630.11328125 99.8291015625 630.11328125 179.6640625 762.115234375 c 132,-1,1
891.435546875 820.7890625 m 5,102,103
 780.375976562 758.741210938 780.375976562 758.741210938 714.825195312 641.4140625 c 4,104,105
 665.247070312 552.67578125 665.247070312 552.67578125 651.9453125 435.364257812 c 132,-1,106
 638.64453125 318.053710938 638.64453125 318.053710938 701.431640625 215.62890625 c 132,-1,107
 764.219726562 113.205078125 764.219726562 113.205078125 874.829101562 110.52734375 c 132,-1,108
 985.439453125 107.849609375 985.439453125 107.849609375 1053.10546875 206.630859375 c 132,-1,109
 1120.77148438 305.413085938 1120.77148438 305.413085938 1112.9609375 430.586914062 c 132,-1,110
 1105.15136719 555.760742188 1105.15136719 555.760742188 1045.4921875 658.650390625 c 132,-1,111
 985.833984375 761.540039062 985.833984375 761.540039062 891.435546875 820.7890625 c 5,102,103
EndSplineSet
EndChar

StartChar: nj
Encoding: 115 3358 66
Width: 2517
GlyphClass: 2
Flags: W
LayerCount: 2
Fore
SplineSet
1039 802 m 5,0,1
 1118 938 1118 938 1246 990 c 4,2,3
 1439 1070 1439 1070 1658 967 c 5,4,5
 1805 1036 1805 1036 1912 1026 c 4,6,7
 2144 1005 2144 1005 2282 839.5 c 132,-1,8
 2420 674 2420 674 2417 472 c 4,9,10
 2413 170 2413 170 2176 -16 c 4,11,12
 2157 -31 2157 -31 2130.5 -30.5 c 132,-1,13
 2104 -30 2104 -30 2083.5 -10 c 132,-1,14
 2063 10 2063 10 2063 42 c 132,-1,15
 2063 74 2063 74 2092 96 c 4,16,17
 2176 159 2176 159 2225.5 257.5 c 132,-1,18
 2275 356 2275 356 2276 446 c 4,19,20
 2279 688 2279 688 2104 814 c 4,21,22
 1967 912 1967 912 1806 876 c 5,23,24
 1979 720 1979 720 2014 480 c 4,25,26
 2042 288 2042 288 1960 148 c 4,27,28
 1912 65 1912 65 1831.5 14.5 c 132,-1,29
 1751 -36 1751 -36 1659 -33 c 132,-1,30
 1567 -30 1567 -30 1493.5 18 c 132,-1,31
 1420 66 1420 66 1375 142 c 4,32,33
 1298 270 1298 270 1311 448 c 4,34,35
 1331 710 1331 710 1511 876 c 5,36,37
 1400 902 1400 902 1316 868 c 4,38,39
 1140 797 1140 797 1127 655.5 c 132,-1,40
 1114 514 1114 514 1114 480 c 6,41,-1
 1115 38 l 6,42,43
 1115 -2 1115 -2 1074.5 -25 c 132,-1,44
 1034 -48 1034 -48 1005 -20 c 132,-1,45
 976 8 976 8 975 36 c 5,46,-1
 975 38 l 5,47,-1
 973 476 l 6,48,49
 972 629 972 629 943 690 c 4,50,51
 889 803 889 803 790 848.5 c 132,-1,52
 691 894 691 894 586 878 c 132,-1,53
 481 862 481 862 397 794 c 4,54,55
 265 687 265 687 230 466 c 5,56,57
 295 588 295 588 445 615 c 132,-1,58
 595 642 595 642 698.5 554 c 132,-1,59
 802 466 802 466 812.5 330 c 132,-1,60
 823 194 823 194 732.5 90.5 c 132,-1,61
 642 -13 642 -13 506 -20 c 4,62,63
 318 -29 318 -29 222 102 c 5,64,-1
 218 106 l 5,65,66
 114 222 114 222 102 385 c 132,-1,67
 90 548 90 548 144 680 c 132,-1,68
 198 812 198 812 310 904 c 132,-1,69
 422 996 422 996 567 1017 c 132,-1,70
 712 1038 712 1038 840 976.5 c 132,-1,71
 968 915 968 915 1039 802 c 5,0,1
1658 814 m 5,72,73
 1469 688 1469 688 1449 416 c 4,74,75
 1440 303 1440 303 1498.5 206.5 c 132,-1,76
 1557 110 1557 110 1660 106 c 4,77,78
 1713 104 1713 104 1761 134 c 132,-1,79
 1809 164 1809 164 1839 218 c 4,80,81
 1916 351 1916 351 1859.5 535.5 c 132,-1,82
 1803 720 1803 720 1658 814 c 5,72,73
607 448 m 4,83,84
 505 536 505 536 387 468 c 4,85,86
 329 434 329 434 310 384 c 4,87,88
 269 274 269 274 329 192 c 5,89,90
 403 114 403 114 489.5 119 c 132,-1,91
 576 124 576 124 627.5 183 c 132,-1,92
 679 242 679 242 672.5 319.5 c 132,-1,93
 666 397 666 397 607 448 c 4,83,84
EndSplineSet
EndChar

StartChar: t1
Encoding: 116 3359 67
Width: 1134
GlyphClass: 2
Flags: W
LayerCount: 2
Fore
SplineSet
113 729 m 0,0,1
 109 889 109 889 293 988 c 0,2,3
 380 1035 380 1035 535 1037 c 0,4,5
 824 1042 824 1042 976 844 c 0,6,7
 991 825 991 825 991 798.5 c 128,-1,8
 991 772 991 772 970.5 751.5 c 128,-1,9
 950 731 950 731 918 731 c 128,-1,10
 886 731 886 731 865 759 c 0,11,12
 756 901 756 901 531 897 c 0,13,14
 417 895 417 895 359 864 c 0,15,16
 252 807 252 807 253 732 c 0,17,18
 254 691 254 691 295 648.5 c 128,-1,19
 336 606 336 606 433 594 c 0,20,21
 478 588 478 588 561 587 c 0,22,23
 772 584 772 584 856 542 c 0,24,25
 1018 460 1018 460 1033 314 c 0,26,27
 1043 221 1043 221 992 145 c 0,28,29
 879 -22 879 -22 613 -29 c 0,30,31
 302 -37 302 -37 120 157 c 0,32,33
 100 177 100 177 100 206 c 128,-1,34
 100 235 100 235 120.5 255.5 c 128,-1,35
 141 276 141 276 171 276 c 128,-1,36
 201 276 201 276 222 253 c 0,37,38
 362 105 362 105 609 111 c 0,39,40
 803 116 803 116 871 216 c 0,41,42
 922 292 922 292 867 362 c 0,43,44
 844 391 844 391 789.5 418.5 c 128,-1,45
 735 446 735 446 574 446 c 0,46,47
 295 447 295 447 205 540.5 c 128,-1,48
 115 634 115 634 113 729 c 0,0,1
EndSplineSet
EndChar

StartChar: t2
Encoding: 117 3360 68
Width: 1238
GlyphClass: 2
Flags: W
LayerCount: 2
Fore
SplineSet
430.454101562 985.5 m 132,-1,1
 522.454101562 1021 522.454101562 1021 622.454101562 1021 c 132,-1,2
 722.454101562 1021 722.454101562 1021 818.454101562 981 c 132,-1,3
 914.454101562 941 914.454101562 941 986.454101562 869 c 132,-1,4
 1058.45410156 797 1058.45410156 797 1098.45410156 701 c 132,-1,5
 1138.45410156 605 1138.45410156 605 1138.45410156 503 c 4,6,7
 1138.45410156 288 1138.45410156 288 986.454101562 136 c 132,-1,8
 834.454101562 -16 834.454101562 -16 620.454101562 -16 c 4,9,10
 512.454101562 -16 512.454101562 -16 412.454101562 27.5 c 132,-1,11
 312.454101562 71 312.454101562 71 238.954101562 150 c 132,-1,12
 165.454101562 229 165.454101562 229 129.454101562 332 c 132,-1,13
 93.4541015625 435 93.4541015625 435 101.454101562 537.5 c 132,-1,14
 109.454101562 640 109.454101562 640 152.454101562 728.5 c 132,-1,15
 195.454101562 817 195.454101562 817 266.954101562 883.5 c 132,-1,0
 338.454101562 950 338.454101562 950 430.454101562 985.5 c 132,-1,1
764.454101562 851.5 m 132,-1,17
 693.454101562 881 693.454101562 881 621.454101562 881 c 132,-1,18
 549.454101562 881 549.454101562 881 481.454101562 854.5 c 132,-1,19
 413.454101562 828 413.454101562 828 362.454101562 781 c 4,20,21
 253.454101562 680 253.454101562 680 241.454101562 532 c 4,22,23
 235.454101562 455 235.454101562 455 262.454101562 378.5 c 132,-1,24
 289.454101562 302 289.454101562 302 341.954101562 245.5 c 132,-1,25
 394.454101562 189 394.454101562 189 468.454101562 156.5 c 132,-1,26
 542.454101562 124 542.454101562 124 617.954101562 124 c 132,-1,27
 693.454101562 124 693.454101562 124 764.454101562 153.5 c 132,-1,28
 835.454101562 183 835.454101562 183 887.454101562 235 c 4,29,30
 998.454101562 346 998.454101562 346 998.454101562 502.5 c 132,-1,31
 998.454101562 659 998.454101562 659 887.454101562 770 c 4,32,16
 835.454101562 822 835.454101562 822 764.454101562 851.5 c 132,-1,17
EndSplineSet
EndChar

StartChar: t4
Encoding: 119 3362 70
Width: 2654
GlyphClass: 2
Flags: W
LayerCount: 2
Fore
SplineSet
159.2578125 745.298828125 m 132,-1,1
 209.805664062 840.912109375 209.805664062 840.912109375 285.568359375 900.697265625 c 4,2,3
 470.125976562 1046.33398438 470.125976562 1046.33398438 692.013671875 1009.44238281 c 4,4,5
 808.8359375 990.021484375 808.8359375 990.021484375 901.954101562 918.89453125 c 132,-1,6
 995.072265625 847.767578125 995.072265625 847.767578125 1028.38378906 750.155273438 c 132,-1,7
 1061.69628906 652.54296875 1061.69628906 652.54296875 1055.015625 516.138671875 c 132,-1,8
 1048.33496094 379.734375 1048.33496094 379.734375 1058.2109375 314.504882812 c 132,-1,9
 1068.08691406 249.274414062 1068.08691406 249.274414062 1104.56933594 209.670898438 c 4,10,11
 1169.35742188 139.337890625 1169.35742188 139.337890625 1230.97851562 139.72265625 c 132,-1,12
 1292.59863281 140.106445312 1292.59863281 140.106445312 1340.05371094 179.901367188 c 4,13,14
 1451.75878906 273.57421875 1451.75878906 273.57421875 1453.66210938 513.8046875 c 4,15,16
 1454.16503906 577.420898438 1454.16503906 577.420898438 1454.24414062 581.973632812 c 6,17,-1
 1460.32226562 933.598632812 l 6,18,19
 1460.97070312 974.354492188 1460.97070312 974.354492188 1496.00195312 994.333007812 c 4,20,21
 1511.9140625 1003.40722656 1511.9140625 1003.40722656 1535.61132812 1003.40722656 c 132,-1,22
 1559.30859375 1003.40722656 1559.30859375 1003.40722656 1579.82128906 982.895507812 c 132,-1,23
 1600.33300781 962.3828125 1600.33300781 962.3828125 1600.33300781 933.400390625 c 6,24,-1
 1600.33300781 933.204101562 l 5,25,-1
 1594.42675781 579.057617188 l 6,26,27
 1594.34179688 574.002929688 1594.34179688 574.002929688 1593.30566406 515.311523438 c 4,28,29
 1590.35351562 348.145507812 1590.35351562 348.145507812 1676.60742188 246 c 4,30,31
 1783.63671875 119.250976562 1783.63671875 119.250976562 1978.06152344 135.020507812 c 4,32,33
 2122.19042969 146.7109375 2122.19042969 146.7109375 2235.05566406 233.217773438 c 4,34,35
 2310.04785156 290.697265625 2310.04785156 290.697265625 2357.29980469 373.813476562 c 5,36,37
 2214.53320312 282.01953125 2214.53320312 282.01953125 2055.87792969 340.03515625 c 4,38,39
 1970.29589844 371.331054688 1970.29589844 371.331054688 1919.38964844 431.770507812 c 4,40,41
 1821.36132812 548.157226562 1821.36132812 548.157226562 1832.59667969 688.211914062 c 132,-1,42
 1843.81640625 828.09765625 1843.81640625 828.09765625 1950.07910156 919.877929688 c 132,-1,43
 2056.21289062 1011.54882812 2056.21289062 1011.54882812 2196.24121094 1002.53417969 c 4,44,45
 2298.55078125 995.948242188 2298.55078125 995.948242188 2381.55273438 935.759765625 c 132,-1,46
 2464.55566406 875.571289062 2464.55566406 875.571289062 2507.74609375 786.520507812 c 132,-1,47
 2550.93554688 697.469726562 2550.93554688 697.469726562 2554.13085938 597.540039062 c 132,-1,48
 2557.32617188 497.610351562 2557.32617188 497.610351562 2526.64550781 411.620117188 c 4,49,50
 2468.80566406 235.987304688 2468.80566406 235.987304688 2321.71289062 123.24609375 c 132,-1,51
 2174.62011719 10.50390625 2174.62011719 10.50390625 1989.37988281 -4.5205078125 c 4,52,53
 1867.27539062 -14.423828125 1867.27539062 -14.423828125 1756.84765625 25.1640625 c 4,54,55
 1614.29296875 76.2685546875 1614.29296875 76.2685546875 1532.45996094 206.655273438 c 5,56,57
 1493.51660156 125.884765625 1493.51660156 125.884765625 1418.7109375 63.154296875 c 132,-1,58
 1343.90527344 0.4228515625 1343.90527344 0.4228515625 1226.11425781 -0.3115234375 c 132,-1,59
 1108.32421875 -1.0458984375 1108.32421875 -1.0458984375 1022.20019531 92.4482421875 c 4,60,61
 909.0390625 215.294921875 909.0390625 215.294921875 910.524414062 402.599609375 c 4,62,63
 910.844726562 443.022460938 910.844726562 443.022460938 912.787109375 478.395507812 c 4,64,65
 921.161132812 630.868164062 921.161132812 630.868164062 898.731445312 696.59375 c 132,-1,66
 876.30078125 762.318359375 876.30078125 762.318359375 813.912109375 809.97265625 c 132,-1,67
 751.522460938 857.627929688 751.522460938 857.627929688 672.822265625 870.711914062 c 132,-1,68
 594.123046875 883.795898438 594.123046875 883.795898438 517.010742188 863.96875 c 132,-1,69
 439.899414062 844.141601562 439.899414062 844.141601562 380.272460938 797.088867188 c 132,-1,70
 320.64453125 750.037109375 320.64453125 750.037109375 283.432617188 679.649414062 c 132,-1,71
 246.220703125 609.26171875 246.220703125 609.26171875 240.915039062 533.491210938 c 132,-1,72
 235.608398438 457.721679688 235.608398438 457.721679688 262.646484375 382.833984375 c 132,-1,73
 289.685546875 307.946289062 289.685546875 307.946289062 342.172851562 253.041992188 c 132,-1,74
 394.659179688 198.137695312 394.659179688 198.137695312 468.254882812 167.7578125 c 132,-1,75
 541.849609375 137.376953125 541.849609375 137.376953125 617.782226562 139.268554688 c 4,76,77
 619.129882812 139.321289062 619.129882812 139.321289062 634.305664062 139.321289062 c 132,-1,78
 649.481445312 139.321289062 649.481445312 139.321289062 669.993164062 118.809570312 c 132,-1,79
 690.505859375 98.296875 690.505859375 98.296875 690.505859375 69.47265625 c 132,-1,80
 690.505859375 40.6484375 690.505859375 40.6484375 670.21875 20.1376953125 c 132,-1,81
 649.932617188 -0.373046875 649.932617188 -0.373046875 621.268554688 -0.6884765625 c 4,82,83
 514.626953125 -3.3447265625 514.626953125 -3.3447265625 414.658203125 37.9228515625 c 132,-1,84
 314.689453125 79.19140625 314.689453125 79.19140625 240.975585938 156.299804688 c 132,-1,85
 167.260742188 233.408203125 167.260742188 233.408203125 130.532226562 335.133789062 c 132,-1,86
 93.8037109375 436.859375 93.8037109375 436.859375 101.256835938 543.272460938 c 132,-1,0
 108.708984375 649.685546875 108.708984375 649.685546875 159.2578125 745.298828125 c 132,-1,1
2153.98925781 860.166992188 m 4,87,88
 2150.35742188 859.788085938 2150.35742188 859.788085938 2147.13574219 859.788085938 c 132,-1,89
 2143.91503906 859.788085938 2143.91503906 859.788085938 2141.13183594 860.010742188 c 4,90,91
 2023.359375 839.6171875 2023.359375 839.6171875 1983.21972656 727.715820312 c 4,92,93
 1955.70898438 651.021484375 1955.70898438 651.021484375 1987.52050781 582.568359375 c 132,-1,94
 2019.33203125 514.115234375 2019.33203125 514.115234375 2080.08203125 482.474609375 c 4,95,96
 2170.36328125 435.453125 2170.36328125 435.453125 2255.58105469 477.586914062 c 132,-1,97
 2340.79980469 519.719726562 2340.79980469 519.719726562 2363.11816406 597.149414062 c 132,-1,98
 2385.43652344 674.579101562 2385.43652344 674.579101562 2361.76269531 727.93359375 c 4,99,100
 2297.14550781 873.5625 2297.14550781 873.5625 2153.98925781 860.166992188 c 4,87,88
EndSplineSet
EndChar

StartChar: nh
Encoding: 120 3363 71
Width: 2763
GlyphClass: 2
Flags: W
LayerCount: 2
Fore
SplineSet
434.095703125 987.447265625 m 132,-1,1
 535.849609375 1033.71582031 535.849609375 1033.71582031 649.463867188 1032.95117188 c 132,-1,2
 763.078125 1032.18652344 763.078125 1032.18652344 873.166015625 973.745117188 c 132,-1,3
 983.254882812 915.3046875 983.254882812 915.3046875 1051.48632812 796.474609375 c 5,4,5
 1051.97753906 797.475585938 1051.97753906 797.475585938 1053.3359375 800.366210938 c 4,6,7
 1102.23828125 904.4609375 1102.23828125 904.4609375 1201.95703125 969.986328125 c 132,-1,8
 1301.67675781 1035.51171875 1301.67675781 1035.51171875 1413.64648438 1028.27148438 c 132,-1,9
 1525.61621094 1021.03125 1525.61621094 1021.03125 1608.20800781 956.038085938 c 132,-1,10
 1690.80078125 891.044921875 1690.80078125 891.044921875 1736.66992188 797.162109375 c 5,11,12
 1815.27539062 933.091796875 1815.27539062 933.091796875 1959.51953125 991.564453125 c 4,13,14
 2068.54394531 1035.75976562 2068.54394531 1035.75976562 2181.60253906 1024.55566406 c 132,-1,15
 2294.66113281 1013.35253906 2294.66113281 1013.35253906 2387.73730469 963.19921875 c 132,-1,16
 2480.81445312 913.045898438 2480.81445312 913.045898438 2546.54296875 831.947265625 c 132,-1,17
 2612.27246094 750.848632812 2612.27246094 750.848632812 2642.06347656 649.404296875 c 132,-1,18
 2671.85351562 547.959960938 2671.85351562 547.959960938 2660.41210938 444.19921875 c 132,-1,19
 2648.96972656 340.4375 2648.96972656 340.4375 2597.79199219 247.920898438 c 132,-1,20
 2546.61328125 155.404296875 2546.61328125 155.404296875 2464.79296875 90.576171875 c 4,21,22
 2293.17285156 -45.404296875 2293.17285156 -45.404296875 2075.80859375 -19 c 4,23,24
 2049.91308594 -16.2265625 2049.91308594 -16.2265625 2031.5859375 4.1689453125 c 132,-1,25
 2013.25878906 24.564453125 2013.25878906 24.564453125 2013.25878906 52.078125 c 132,-1,26
 2013.25878906 79.591796875 2013.25878906 79.591796875 2033.77050781 100.103515625 c 132,-1,27
 2054.28320312 120.615234375 2054.28320312 120.615234375 2071.14160156 120.615234375 c 132,-1,28
 2088.00097656 120.615234375 2088.00097656 120.615234375 2092.68945312 119.978515625 c 4,29,30
 2252.03515625 100.623046875 2252.03515625 100.623046875 2377.84960938 200.30859375 c 4,31,32
 2436.91113281 247.104492188 2436.91113281 247.104492188 2474.95410156 315.874023438 c 4,33,34
 2539.02929688 431.701171875 2539.02929688 431.701171875 2520.54199219 548.095703125 c 132,-1,35
 2502.05566406 664.491210938 2502.05566406 664.491210938 2446.19433594 733.4140625 c 4,36,37
 2336.70898438 868.5 2336.70898438 868.5 2176.97460938 884.328125 c 4,38,39
 2089.11621094 893.034179688 2089.11621094 893.034179688 2011.45996094 861.5546875 c 4,40,41
 1852.36523438 797.0625 1852.36523438 797.0625 1814.13476562 609.328125 c 4,42,43
 1801.37207031 546.658203125 1801.37207031 546.658203125 1802.0078125 422.599609375 c 6,44,-1
 1803.94726562 44.11328125 l 6,45,46
 1803.62695312 -1.9033203125 1803.62695312 -1.9033203125 1760.98828125 -20.0927734375 c 4,47,48
 1748.07714844 -25.6005859375 1748.07714844 -25.6005859375 1726.80761719 -25.6005859375 c 132,-1,49
 1705.53808594 -25.6005859375 1705.53808594 -25.6005859375 1685.03027344 -5.501953125 c 132,-1,50
 1664.52246094 14.595703125 1664.52246094 14.595703125 1663.94921875 42.994140625 c 6,51,-1
 1660.953125 418.01953125 l 6,52,53
 1659.24121094 632.211914062 1659.24121094 632.211914062 1620.55664062 715.411132812 c 4,54,55
 1544.24609375 879.53515625 1544.24609375 879.53515625 1408.53515625 888.30859375 c 4,56,57
 1339.39746094 892.778320312 1339.39746094 892.778320312 1278.05761719 852.471679688 c 4,58,59
 1159.07421875 774.287109375 1159.07421875 774.287109375 1135.6640625 587.802734375 c 4,60,61
 1128.91992188 534.084960938 1128.91992188 534.084960938 1129.671875 413.912109375 c 6,62,-1
 1132 44.1015625 l 6,63,64
 1131.8125 15.3076171875 1131.8125 15.3076171875 1111.30078125 -5.0703125 c 132,-1,65
 1090.7890625 -25.4482421875 1090.7890625 -25.4482421875 1067.07910156 -25.4482421875 c 132,-1,66
 1043.37011719 -25.4482421875 1043.37011719 -25.4482421875 1027.37988281 -16.2666015625 c 4,67,68
 992.8046875 3.5869140625 992.8046875 3.5869140625 992.001953125 43.138671875 c 4,69,-1
 989.25390625 411.677734375 l 6,70,71
 988.328125 536.65234375 988.328125 536.65234375 974.625 609.782226562 c 132,-1,72
 960.921875 682.911132812 960.921875 682.911132812 915.862304688 749.703125 c 132,-1,73
 870.802734375 816.495117188 870.802734375 816.495117188 799.267578125 854.470703125 c 4,74,75
 652.352539062 932.462890625 652.352539062 932.462890625 491.0390625 859.0234375 c 4,76,77
 367.197265625 802.643554688 367.197265625 802.643554688 300.236328125 680.46484375 c 4,78,79
 249.08203125 587.126953125 249.08203125 587.126953125 241.27734375 478.603515625 c 5,80,81
 269.892578125 516.399414062 269.892578125 516.399414062 308.064453125 543.873046875 c 4,82,83
 400.529296875 610.420898438 400.529296875 610.420898438 511.213867188 602.362304688 c 132,-1,84
 621.8984375 594.302734375 621.8984375 594.302734375 701.837890625 521.802734375 c 132,-1,85
 781.9765625 449.120117188 781.9765625 449.120117188 799.977539062 342.424804688 c 132,-1,86
 817.978515625 235.729492188 817.978515625 235.729492188 765.755859375 140.793945312 c 132,-1,87
 713.532226562 45.8583984375 713.532226562 45.8583984375 607.784179688 1.798828125 c 4,88,89
 470.33203125 -55.470703125 470.33203125 -55.470703125 318.315429688 24.3935546875 c 4,90,91
 271.484375 48.9970703125 271.484375 48.9970703125 213.288085938 111.939453125 c 132,-1,92
 155.092773438 174.881835938 155.092773438 174.881835938 125.59375 270.90625 c 132,-1,93
 96.095703125 366.931640625 96.095703125 366.931640625 100.595703125 472.750976562 c 4,94,95
 110.235351562 699.416015625 110.235351562 699.416015625 257.2734375 859.466796875 c 4,96,0
 332.341796875 941.177734375 332.341796875 941.177734375 434.095703125 987.447265625 c 132,-1,1
607.78515625 418.1015625 m 132,-1,98
 563.598632812 458.17578125 563.598632812 458.17578125 502.32421875 462.63671875 c 132,-1,99
 441.048828125 467.096679688 441.048828125 467.096679688 389.84375 430.244140625 c 132,-1,100
 338.635742188 393.38671875 338.635742188 393.38671875 323 332.263671875 c 132,-1,101
 307.364257812 271.13671875 307.364257812 271.13671875 332.116210938 219.380859375 c 4,102,103
 367.01171875 146.4140625 367.01171875 146.4140625 434.400390625 127.858398438 c 132,-1,104
 501.7890625 109.302734375 501.7890625 109.302734375 558.131835938 132.778320312 c 132,-1,105
 614.475585938 156.25390625 614.475585938 156.25390625 643.15625 208.392578125 c 132,-1,106
 671.822265625 260.502929688 671.822265625 260.502929688 661.90625 319.26953125 c 132,-1,97
 651.997070312 378.002929688 651.997070312 378.002929688 607.78515625 418.1015625 c 132,-1,98
EndSplineSet
EndChar

StartChar: th1
Encoding: 121 3364 72
Width: 1790
GlyphClass: 2
Flags: W
LayerCount: 2
Fore
SplineSet
892 974 m 5,0,1
 1049 1046 1049 1046 1217.5 1022 c 132,-1,2
 1386 998 1386 998 1500 895.5 c 132,-1,3
 1614 793 1614 793 1660 661 c 132,-1,4
 1706 529 1706 529 1682.5 391 c 132,-1,5
 1659 253 1659 253 1572 144 c 132,-1,6
 1485 35 1485 35 1356 -19 c 4,7,8
 1343 -25 1343 -25 1321.5 -25 c 132,-1,9
 1300 -25 1300 -25 1279.5 -4.5 c 132,-1,10
 1259 16 1259 16 1259 40 c 132,-1,11
 1259 64 1259 64 1271.5 83.5 c 132,-1,12
 1284 103 1284 103 1302 110 c 4,13,14
 1398 150 1398 150 1462.5 231 c 132,-1,15
 1527 312 1527 312 1544.5 414.5 c 132,-1,16
 1562 517 1562 517 1527.5 615 c 132,-1,17
 1493 713 1493 713 1408.5 789 c 132,-1,18
 1324 865 1324 865 1198 883 c 4,19,20
 1121 894 1121 894 1041 877 c 5,21,22
 1214 724 1214 724 1248 489 c 4,23,24
 1275 302 1275 302 1193 163 c 4,25,26
 1146 83 1146 83 1068 32.5 c 132,-1,27
 990 -18 990 -18 897 -18.5 c 132,-1,28
 804 -19 804 -19 725.5 29.5 c 132,-1,29
 647 78 647 78 599 158 c 4,30,31
 515 296 515 296 537 471 c 4,32,33
 569 720 569 720 744 876 c 5,34,35
 670 892 670 892 598 883 c 4,36,37
 475 868 475 868 388 794 c 132,-1,38
 301 720 301 720 264.5 620.5 c 132,-1,39
 228 521 228 521 246 416.5 c 132,-1,40
 264 312 264 312 331 230 c 132,-1,41
 398 148 398 148 497 110 c 4,42,43
 516 103 516 103 529 83.5 c 132,-1,44
 542 64 542 64 542 39.5 c 132,-1,45
 542 15 542 15 521.5 -5.5 c 132,-1,46
 501 -26 501 -26 480 -26 c 132,-1,47
 459 -26 459 -26 446 -21 c 4,48,49
 313 31 313 31 222.5 141.5 c 132,-1,50
 132 252 132 252 108 393 c 132,-1,51
 84 534 84 534 133 668.5 c 132,-1,52
 182 803 182 803 299 902 c 132,-1,53
 416 1001 416 1001 582 1022 c 132,-1,54
 748 1043 748 1043 891 974 c 5,55,56
 892 974 l 5,0,1
893 814 m 5,57,58
 819 766 819 766 756 679.5 c 132,-1,59
 693 593 693 593 676.5 460 c 132,-1,60
 660 327 660 327 718 230 c 4,61,62
 749 179 749 179 796 150 c 4,63,64
 896 88 896 88 996 152 c 4,65,66
 1042 182 1042 182 1072 233 c 4,67,68
 1129 331 1129 331 1110.5 463 c 132,-1,69
 1092 595 1092 595 1030 680.5 c 132,-1,70
 968 766 968 766 893 814 c 5,57,58
EndSplineSet
EndChar

StartChar: th2
Encoding: 122 3365 73
Width: 1549
GlyphClass: 2
Flags: W
LayerCount: 2
Fore
SplineSet
241 968 m 0,0,1
 246 188 246 188 246 142 c 1,2,-1
 521 141 l 1,3,4
 519 393 519 393 518 431 c 0,5,6
 509 714 509 714 641 870.5 c 128,-1,8
 773 1027 773 1027 984.5 1023.5 c 128,-1,10
 1196 1020 1196 1020 1315 888 c 128,-1,11
 1434 756 1434 756 1446 575 c 0,12,13
 1450 517 1450 517 1448.5 317.5 c 128,-1,14
 1447 118 1447 118 1449 97 c 128,-1,15
 1451 76 1451 76 1444 53 c 0,16,17
 1428.98902992 0.96197038891 1428.98902992 0.96197038891 1384 1 c 2,18,-1
 201 2 l 1,19,20
 168 -3 168 -3 138 14.5 c 128,-1,21
 108 32 108 32 107 64 c 0,22,23
 104 230 104 230 103.5 545.5 c 128,-1,25
 103 861 103 861 102 939 c 1,26,27
 93 987 93 987 130 1017 c 0,28,29
 147 1031 147 1031 172 1031.5 c 128,-1,30
 197 1032 197 1032 219 1012.5 c 128,-1,31
 241 993 241 993 241 968 c 0,0,1
990 883 m 0,32,33
 820 886 820 886 728 755 c 0,34,35
 670 672 670 672 664.5 591 c 128,-1,36
 659 510 659 510 658.5 440.5 c 128,-1,37
 658 371 658 371 659.5 285 c 128,-1,38
 661 199 661 199 661 141 c 1,39,-1
 1307 141 l 1,40,-1
 1307 304 l 2,41,42
 1307 345 1307 345 1309.5 465.5 c 128,-1,43
 1312 586 1312 586 1284.5 676 c 128,-1,44
 1257 766 1257 766 1175 823.5 c 128,-1,45
 1093 881 1093 881 990 883 c 0,32,33
EndSplineSet
EndChar

StartChar: th3
Encoding: 123 3366 74
Width: 1206
GlyphClass: 2
Flags: W
LayerCount: 2
Fore
SplineSet
235.956054688 -4.232421875 m 0,0,1
 138 123 138 123 110 285 c 128,-1,2
 82 447 82 447 134 611 c 128,-1,3
 186 775 186 775 324 892 c 128,-1,4
 462 1009 462 1009 627.91796875 1021.79003906 c 0,5,6
 890.583376797 1041.8915871 890.583376797 1041.8915871 1016.9140625 860.026367188 c 0,7,8
 1060 798 1060 798 1068.1640625 727.690429688 c 0,9,10
 1087 576 1087 576 981.348632812 472.412109375 c 1,11,12
 982 472 982 472 983.984375 470.784179688 c 0,13,14
 1101 399 1101 399 1105.38769531 243.958007812 c 0,15,16
 1108 167 1108 167 1058.5 93.5 c 128,-1,17
 1009 20 1009 20 933.854492188 -11 c 0,18,19
 784.213890796 -73.0815212765 784.213890796 -73.0815212765 646.424804688 13.6015625 c 0,20,21
 614 34 614 34 614 67.5 c 128,-1,22
 614 101 614 101 634.5 121.5 c 128,-1,23
 655 142 655 142 680.5 142 c 128,-1,24
 706 142 706 142 731 125.5 c 128,-1,25
 756 109 756 109 797.5 105 c 0,26,27
 891.16165575 95.9723705301 891.16165575 95.9723705301 941.270507812 170.671875 c 0,28,29
 966 208 966 208 965.287109375 245.396484375 c 0,30,31
 962.067178156 351.780486408 962.067178156 351.780486408 849.739257812 375.552734375 c 0,32,33
 828.200223734 380.495131516 828.200223734 380.495131516 769.381835938 381.48046875 c 2,34,-1
 736.270507812 382.03515625 l 2,35,36
 706.386569597 383.092464431 706.386569597 383.092464431 687.193284799 403.546232216 c 128,-1,37
 668 424 668 424 668 450.5 c 128,-1,38
 668 477 668 477 686.056566082 498.064815481 c 128,-1,39
 704.113132163 519.129630961 704.113132163 519.129630961 726.202148438 521.1171875 c 2,40,-1
 753.704101562 523.591796875 l 2,41,42
 846.850932126 531.809752732 846.850932126 531.809752732 892.925466063 582.404876366 c 128,-1,43
 939 633 939 633 929 712.5 c 128,-1,44
 919 792 919 792 839.110351562 841.526367188 c 0,45,46
 759 891 759 891 638.5 882 c 128,-1,47
 518 873 518 873 412.53515625 783.404296875 c 128,-1,48
 307 694 307 694 266.572265625 566.537109375 c 128,-1,49
 226 439 226 439 249 308 c 128,-1,50
 272 177 272 177 347.084960938 80.916015625 c 0,51,52
 362 62 362 62 362 35.5 c 128,-1,53
 362 9 362 9 341.625976562 -11.9501953125 c 0,54,55
 321 -32 321 -32 289 -32 c 128,-1,56
 257 -32 257 -32 235.956054688 -4.232421875 c 0,0,1
EndSplineSet
EndChar

StartChar: th4
Encoding: 124 3367 75
Width: 1908
GlyphClass: 2
Flags: W
LayerCount: 2
Fore
SplineSet
945 187 m 5,0,1
 885 87 885 87 790 34.5 c 132,-1,2
 695 -18 695 -18 584.5 -21.5 c 132,-1,3
 474 -25 474 -25 371 27 c 132,-1,4
 268 79 268 79 200.5 170.5 c 132,-1,5
 133 262 133 262 110.5 375 c 132,-1,6
 88 488 88 488 113 595 c 4,7,8
 152 767 152 767 284 885 c 132,-1,9
 416 1003 416 1003 592 1021 c 4,10,11
 596 1021 596 1021 612.5 1021.5 c 132,-1,12
 629 1022 629 1022 649.5 1001 c 132,-1,13
 670 980 670 980 670 952.5 c 132,-1,14
 670 925 670 925 651.5 904.5 c 132,-1,15
 633 884 633 884 607 882 c 4,16,17
 476 868 476 868 377.5 780.5 c 132,-1,18
 279 693 279 693 250 565 c 4,19,20
 232 486 232 486 248 402 c 4,21,22
 282 228 282 228 433 153 c 4,23,24
 506 116 506 116 581 118 c 4,25,26
 736 123 736 123 818 247 c 4,27,28
 867 321 867 321 875 432 c 5,29,30
 873 471 873 471 873 538 c 6,31,-1
 878 953 l 6,32,33
 879 981 879 981 899 1001.5 c 132,-1,34
 919 1022 919 1022 942.5 1022 c 132,-1,35
 966 1022 966 1022 982 1012 c 4,36,37
 1017 992 1017 992 1018 952 c 6,38,-1
 1018 539 l 6,39,40
 1018 470 1018 470 1015 431 c 5,41,42
 1017 400 1017 400 1027 348.5 c 132,-1,43
 1037 297 1037 297 1078 239 c 132,-1,44
 1119 181 1119 181 1183 150 c 4,45,46
 1321 84 1321 84 1454.5 151.5 c 132,-1,47
 1588 219 1588 219 1633 329.5 c 132,-1,48
 1678 440 1678 440 1666 527 c 4,49,50
 1643 691 1643 691 1530.5 787 c 132,-1,51
 1418 883 1418 883 1271 882 c 4,52,53
 1270 882 1270 882 1255 882 c 132,-1,54
 1240 882 1240 882 1219.5 902.5 c 132,-1,55
 1199 923 1199 923 1199 952 c 132,-1,56
 1199 981 1199 981 1219.5 1001.5 c 132,-1,57
 1240 1022 1240 1022 1269 1022 c 4,58,59
 1469 1024 1469 1024 1620.5 894 c 132,-1,60
 1772 764 1772 764 1802 567 c 4,61,62
 1827 406 1827 406 1754 257 c 4,63,64
 1662 71 1662 71 1474 8 c 132,-1,65
 1286 -55 1286 -55 1123 24 c 4,66,67
 1010 79 1010 79 945 187 c 5,0,1
EndSplineSet
EndChar

StartChar: n1
Encoding: 125 3368 76
Width: 1908
GlyphClass: 2
Flags: W
LayerCount: 2
Fore
SplineSet
650.844252804 109.492711121 m 6,0,-1
 653.500898646 109.50444846 l 6,1,2
 709.002119969 109.50444846 709.002119969 109.50444846 709.23828125 54.30078125 c 4,3,4
 709 20 709 20 688.7265625 -0.8876953125 c 4,5,6
 668 -21 668 -21 652.398069888 -21.2094405568 c 132,-1,7
 636.796139775 -21.4188811137 636.796139775 -21.4188811137 634.367968888 -21.4188811137 c 4,8,9
 437.151307148 -21.4188811137 437.151307148 -21.4188811137 286.075653574 107.790559443 c 132,-1,10
 135 237 135 237 104 448.5 c 4,11,12
 98.3157116451 487.281515712 98.3157116451 487.281515712 98.3157116451 524.777368329 c 4,13,14
 98.3157116451 691.769986137 98.3157116451 691.769986137 211.0625 833.26171875 c 4,15,16
 279 918 279 918 380.762261015 969.400325717 c 132,-1,17
 482.52452203 1020.80065143 482.52452203 1020.80065143 586.971438149 1020.80065143 c 132,-1,18
 691.418354269 1020.80065143 691.418354269 1020.80065143 794.709177134 971.400325717 c 132,-1,19
 898 922 898 922 963.235351562 813.427734375 c 5,20,21
 1023 913 1023 913 1118.5 965.5 c 4,22,23
 1220.76816817 1021.72072072 1220.76816817 1021.72072072 1330.63183183 1021.72072072 c 132,-1,24
 1440.4954955 1021.72072072 1440.4954955 1021.72072072 1540.24774775 971.36036036 c 132,-1,25
 1640 921 1640 921 1708 829.5 c 4,26,27
 1807.6195938 695.453046578 1807.6195938 695.453046578 1807.6195938 521.841949129 c 4,28,29
 1807.6195938 277.904567344 1807.6195938 277.904567344 1616 107.5 c 4,30,31
 1471.50200803 -21 1471.50200803 -21 1295.5 -21 c 4,32,33
 1279 -21 1279 -21 1258.5 -0.5 c 132,-1,34
 1238 20 1238 20 1238 43 c 132,-1,35
 1238 66 1238 66 1246.51660156 81.4765625 c 4,36,37
 1265 115 1265 115 1301.66308594 118.3359375 c 4,38,39
 1433 132 1433 132 1530.98046875 219.59375 c 4,40,41
 1667.56761719 341.39162325 1667.56761719 341.39162325 1667.56761719 520.003552904 c 4,42,43
 1667.56761719 558.55413987 1667.56761719 558.55413987 1659.953125 597.883789062 c 4,44,45
 1626 772 1626 772 1475.66308594 847.310546875 c 4,46,47
 1407.30490939 881.826340993 1407.30490939 881.826340993 1336.10153066 881.826340993 c 4,48,49
 1175.17615795 881.826340993 1175.17615795 881.826340993 1090.51660156 753.181640625 c 4,50,51
 1036.94231154 671.912489889 1036.94231154 671.912489889 1034.8125 462.513671875 c 6,52,-1
 1030.58691406 47.0625 l 6,53,54
 1030 19 1030 19 1009.51367188 -1.447265625 c 132,-1,55
 989 -22 989 -22 960.5 -22 c 132,-1,56
 932 -22 932 -22 911.409179688 -1.259765625 c 132,-1,57
 890.619566146 19.3776487259 890.619566146 19.3776487259 890.590820312 47.703125 c 6,58,-1
 890.170898438 461.484375 l 6,59,60
 890 603 890 603 880.5 653.5 c 132,-1,61
 871 704 871 704 830 761.5 c 132,-1,62
 789 819 789 819 724.281519668 850.086082391 c 132,-1,63
 659.563039336 881.172164782 659.563039336 881.172164782 588.626874323 881.172164782 c 132,-1,64
 517.69070931 881.172164782 517.69070931 881.172164782 440.8359375 842.552734375 c 4,65,66
 295 769 295 769 253.119140625 608.75 c 4,67,68
 240.322685757 558.650459093 240.322685757 558.650459093 240.322685757 497.190889401 c 132,-1,69
 240.322685757 435.731319708 240.322685757 435.731319708 269.5 364.35546875 c 4,70,71
 337 201 337 201 499.6875 142.798828125 c 4,72,73
 594.595979728 109.492711121 594.595979728 109.492711121 650.844252804 109.492711121 c 6,0,-1
EndSplineSet
EndChar

StartChar: p1
Encoding: 127 3370 77
Width: 1671
GlyphClass: 2
Flags: W
LayerCount: 2
Fore
SplineSet
1430 956 m 1,0,1
 1430 971.5 l 2,2,3
 1430 986 1430 986 1450.5 1006.5 c 128,-1,4
 1471 1027 1471 1027 1500 1027 c 128,-1,5
 1529 1027 1529 1027 1549.5 1006.5 c 128,-1,6
 1570 986 1570 986 1570 971.5 c 2,7,-1
 1570 957 l 1,8,-1
 1572 69 l 2,9,10
 1572 40 1572 40 1551.5 19.5 c 128,-1,11
 1530.87566988 -1.1243301179 1530.87566988 -1.1243301179 1502 -1 c 2,12,-1
 573 3 l 2,13,14
 544 3 544 3 524 24 c 128,-1,15
 504 45 504 45 504 65.5 c 128,-1,16
 504 86 504 86 512.5 106.5 c 128,-1,17
 521 127 521 127 568.5 148 c 128,-1,18
 616 169 616 169 651 237.5 c 128,-1,19
 686 306 686 306 669.5 381.5 c 128,-1,20
 653 457 653 457 593 505 c 128,-1,21
 533 553 533 553 455 552.5 c 128,-1,22
 377 552 377 552 317 501 c 128,-1,23
 257 450 257 450 243.5 372.5 c 128,-1,24
 230 295 230 295 269.5 227 c 128,-1,25
 309 159 309 159 369.5 137 c 128,-1,26
 430 115 430 115 430 76 c 128,-1,27
 430 37 430 37 409.5 16.5 c 128,-1,28
 389 -4 389 -4 368 -4 c 128,-1,29
 347 -4 347 -4 335 0 c 0,30,31
 213 44 213 44 148.5 156.5 c 128,-1,32
 84 269 84 269 106 396.5 c 128,-1,33
 128 524 128 524 226.5 608 c 128,-1,34
 325 692 325 692 453.5 693 c 128,-1,35
 582 694 582 694 681 614.5 c 128,-1,36
 780 535 780 535 808.5 400.5 c 128,-1,37
 837 266 837 266 757 142 c 1,38,-1
 1431 139 l 1,39,-1
 1430 956 l 1,0,1
EndSplineSet
EndChar

StartChar: p2
Encoding: 128 3371 78
Width: 2188
GlyphClass: 2
Flags: W
LayerCount: 2
Fore
SplineSet
1062 415 m 2,0,1
 1062 552 1062 552 1083.5 650 c 128,-1,2
 1105 748 1105 748 1178 838.5 c 128,-1,3
 1251 929 1251 929 1358 973.5 c 128,-1,4
 1465 1018 1465 1018 1585 1015 c 0,5,6
 1842 1009 1842 1009 1982 824 c 0,7,8
 2049 735 2049 735 2069 638.5 c 128,-1,9
 2089 542 2089 542 2088 407 c 2,10,-1
 2085 71 l 2,11,12
 2085 28 2085 28 2047 8 c 0,13,14
 2030 -1 2030 -1 2018 -1 c 2,15,-1
 580 3 l 2,16,17
 555 3 555 3 528.5 25 c 128,-1,18
 502 47 502 47 511.5 85 c 128,-1,19
 521 123 521 123 551 137 c 0,20,21
 621 169 621 169 655.5 238.5 c 128,-1,22
 690 308 690 308 673 383.5 c 128,-1,23
 656 459 656 459 595.5 507.5 c 128,-1,24
 535 556 535 556 456 555 c 128,-1,25
 377 554 377 554 316.5 501.5 c 128,-1,26
 256 449 256 449 243 370 c 128,-1,27
 230 291 230 291 271.5 222.5 c 128,-1,28
 313 154 313 154 389 128 c 0,29,30
 417 119 417 119 430 93 c 128,-1,31
 443 67 443 67 433.5 39 c 128,-1,32
 424 11 424 11 397.5 -1.5 c 128,-1,33
 371 -14 371 -14 344 -4 c 0,34,35
 220 38 220 38 152 150.5 c 128,-1,36
 84 263 84 263 105 392.5 c 128,-1,37
 126 522 126 522 225 607.5 c 128,-1,38
 324 693 324 693 453.5 694.5 c 128,-1,39
 583 696 583 696 682.5 617 c 128,-1,40
 782 538 782 538 812.5 403 c 128,-1,41
 843 268 843 268 762 142 c 1,42,-1
 1062 141 l 1,43,-1
 1062 415 l 2,0,1
1871 739 m 0,44,45
 1771 871 1771 871 1580.5 875.5 c 128,-1,46
 1390 880 1390 880 1285 749 c 0,47,48
 1235 686 1235 686 1219 611.5 c 128,-1,49
 1203 537 1203 537 1202 415 c 1,50,-1
 1202 140 l 1,51,-1
 1946 140 l 1,52,-1
 1948 408 l 2,53,54
 1949 528 1949 528 1934 602 c 128,-1,55
 1919 676 1919 676 1871 739 c 0,44,45
EndSplineSet
EndChar

StartChar: p3
Encoding: 129 3372 79
Width: 2550
GlyphClass: 2
Flags: W
LayerCount: 2
Fore
SplineSet
712 1037 m 4,0,1
 825 1031 825 1031 934 974 c 132,-1,2
 1043 917 1043 917 1111 795 c 5,3,4
 1169 901 1169 901 1263.5 960 c 132,-1,5
 1358 1019 1358 1019 1439 1027 c 4,6,7
 1695 1053 1695 1053 1859 886 c 4,8,9
 1935 808 1935 808 1973 705 c 132,-1,10
 2011 602 2011 602 2005 502 c 4,11,12
 1992 283 1992 283 1838 139 c 5,13,-1
 2310 138 l 5,14,-1
 2311 945 l 6,15,16
 2311 974 2311 974 2331 995 c 4,17,18
 2369 1034 2369 1034 2410 1009.5 c 132,-1,19
 2451 985 2451 985 2451 945 c 6,20,-1
 2450 67 l 6,21,22
 2450 38 2450 38 2429.5 17.5 c 132,-1,23
 2409 -3 2409 -3 2380 -3 c 6,24,-1
 1536 0 l 6,25,26
 1508 0 1508 0 1488.5 19 c 132,-1,27
 1469 38 1469 38 1467 59 c 4,28,29
 1462 131 1462 131 1547 142 c 4,30,31
 1594 148 1594 148 1655 180 c 132,-1,32
 1716 212 1716 212 1761 261 c 4,33,34
 1856 363 1856 363 1865 502 c 4,35,36
 1870 580 1870 580 1842 656.5 c 132,-1,37
 1814 733 1814 733 1760 788 c 132,-1,38
 1706 843 1706 843 1630 870.5 c 132,-1,39
 1554 898 1554 898 1480 891 c 4,40,41
 1324 875 1324 875 1242 743 c 4,42,43
 1205 683 1205 683 1193.5 615 c 132,-1,44
 1182 547 1182 547 1182 438 c 6,45,-1
 1182 67 l 6,46,47
 1182 38 1182 38 1161.5 18 c 132,-1,48
 1141 -2 1141 -2 1112 -2 c 132,-1,49
 1083 -2 1083 -2 1062.5 19 c 132,-1,50
 1042 40 1042 40 1042 67 c 6,51,-1
 1041 439 l 6,52,53
 1041 556 1041 556 1027 625.5 c 132,-1,54
 1013 695 1013 695 969 758 c 4,55,56
 878 888 878 888 713 897 c 132,-1,57
 548 906 548 906 419 805 c 4,58,59
 318 727 318 727 271 596 c 4,60,61
 260 566 260 566 255 532 c 5,62,63
 274 566 274 566 319 601.5 c 132,-1,64
 364 637 364 637 430 653 c 132,-1,65
 496 669 496 669 554 653 c 5,66,67
 673 630 673 630 755.5 511 c 132,-1,68
 838 392 838 392 797 244 c 4,69,70
 777 173 777 173 729 117.5 c 132,-1,71
 681 62 681 62 613 33 c 4,72,73
 499 -15 499 -15 382.5 23 c 132,-1,74
 266 61 266 61 195 155 c 4,75,76
 58 335 58 335 119 582 c 4,77,78
 170 788 170 788 336 918 c 132,-1,79
 502 1048 502 1048 712 1037 c 4,0,1
522 517 m 4,80,81
 423 541 423 541 347 473 c 4,82,83
 311 440 311 440 290.5 383 c 132,-1,84
 270 326 270 326 297 257 c 4,85,86
 299 253 299 253 299.5 250.5 c 132,-1,87
 300 248 300 248 303 244 c 4,88,89
 351 181 351 181 422 158 c 4,90,91
 526 124 526 124 605 192 c 132,-1,92
 684 260 684 260 666 363 c 4,93,94
 659 406 659 406 635 439 c 4,95,96
 594 500 594 500 522 517 c 4,80,81
EndSplineSet
EndChar

StartChar: p4
Encoding: 130 3373 80
Width: 1335
GlyphClass: 2
Flags: W
LayerCount: 2
Fore
SplineSet
932.784179688 1013 m 4,0,1
 1091.78417969 980 1091.78417969 980 1169.78417969 892 c 4,2,3
 1224.78417969 829 1224.78417969 829 1233.78417969 745 c 132,-1,4
 1242.78417969 661 1242.78417969 661 1190.78417969 597 c 4,5,6
 1099.78417969 487 1099.78417969 487 919.784179688 521 c 4,7,8
 881.784179688 528 881.784179688 528 819.784179688 544 c 4,9,10
 697.784179688 575 697.784179688 575 647.784179688 534 c 132,-1,11
 597.784179688 493 597.784179688 493 633.784179688 444 c 132,-1,12
 669.784179688 395 669.784179688 395 778.784179688 398 c 4,13,14
 799.784179688 399 799.784179688 399 849.784179688 403 c 4,15,16
 1023.78417969 418 1023.78417969 418 1111.78417969 372 c 4,17,18
 1165.78417969 343 1165.78417969 343 1200.28417969 291.5 c 132,-1,19
 1234.78417969 240 1234.78417969 240 1229.78417969 177 c 132,-1,20
 1224.78417969 114 1224.78417969 114 1186.78417969 70 c 4,21,22
 1127.78417969 1 1127.78417969 1 1011.28417969 -20 c 132,-1,23
 894.784179688 -41 894.784179688 -41 572.784179688 -7 c 4,24,25
 530.784179688 -3 530.784179688 -3 513.784179688 37 c 4,26,27
 508.784179688 49 508.784179688 49 508.784179688 70.5 c 132,-1,28
 508.784179688 92 508.784179688 92 529.284179688 112.5 c 132,-1,29
 549.784179688 133 549.784179688 133 566.284179688 133 c 132,-1,30
 582.784179688 133 582.784179688 133 666.284179688 124 c 132,-1,31
 749.784179688 115 749.784179688 115 875.284179688 115 c 132,-1,32
 1000.78417969 115 1000.78417969 115 1031.78417969 128 c 4,33,34
 1116.78417969 164 1116.78417969 164 1078.78417969 221.5 c 132,-1,35
 1040.78417969 279 1040.78417969 279 889.784179688 266 c 4,36,37
 810.784179688 259 810.784179688 259 782.784179688 258 c 4,38,39
 600.784179688 253 600.784179688 253 524.284179688 356 c 132,-1,40
 447.784179688 459 447.784179688 459 498.784179688 566 c 4,41,42
 518.784179688 609 518.784179688 609 556.784179688 640 c 4,43,44
 650.784179688 719 650.784179688 719 799.784179688 693 c 4,45,46
 840.784179688 686 840.784179688 686 884.784179688 674 c 4,47,48
 1037.78417969 631 1037.78417969 631 1079.78417969 683 c 4,49,50
 1097.78417969 705 1097.78417969 705 1093.78417969 737 c 4,51,52
 1082.78417969 839 1082.78417969 839 902.784179688 876.5 c 132,-1,53
 722.784179688 914 722.784179688 914 557.784179688 857.5 c 132,-1,54
 392.784179688 801 392.784179688 801 306.284179688 661.5 c 132,-1,55
 219.784179688 522 219.784179688 522 244.784179688 363 c 132,-1,56
 269.784179688 204 269.784179688 204 392.784179688 100 c 4,57,58
 418.784179688 79 418.784179688 79 418.784179688 48 c 132,-1,59
 418.784179688 17 418.784179688 17 398.284179688 -3.5 c 132,-1,60
 377.784179688 -24 377.784179688 -24 350.284179688 -24 c 132,-1,61
 322.784179688 -24 322.784179688 -24 302.784179688 -7 c 4,62,63
 139.784179688 130 139.784179688 130 107.284179688 341.5 c 132,-1,64
 74.7841796875 553 74.7841796875 553 187.284179688 735 c 132,-1,65
 299.784179688 917 299.784179688 917 506.784179688 987.5 c 132,-1,66
 713.784179688 1058 713.784179688 1058 932.784179688 1013 c 4,0,1
EndSplineSet
EndChar

StartChar: m1
Encoding: 131 3374 81
Width: 1398
GlyphClass: 2
Flags: W
LayerCount: 2
Fore
SplineSet
316 889 m 0,0,1
 499 1046 499 1046 751 1018.5 c 128,-1,2
 1003 991 1003 991 1150.5 821 c 128,-1,3
 1298 651 1298 651 1298 411 c 1,4,5
 1296 63 l 6,6,7
 1296 34 1296 34 1275.5 13.5 c 128,-1,8
 1255 -7 1255 -7 1226 -7 c 2,9,-1
 170 -7 l 2,10,11
 141 -7 141 -7 120.5 13.5 c 128,-1,12
 100 34 100 34 100 63 c 2,13,-1
 100 449 l 2,14,15
 100 565 100 565 157 683 c 128,-1,16
 214 801 214 801 316 889 c 0,0,1
639 882 m 2,17,-1
 638 882 l 1,18,19
 500 863 500 863 399 776 c 0,20,21
 328 715 328 715 286 627 c 128,-1,22
 244 539 244 539 240 446 c 1,23,-1
 240 133 l 1,24,25
 391.472081218 133 391.472081218 133 544.736040609 242 c 128,-1,26
 698 351 698 351 771.5 499 c 128,-1,27
 845 647 845 647 803.1875 764.5 c 128,-1,28
 761.375 882 761.375 882 639 882 c 2,17,-1
931 823 m 1,29,30
 1002 648 1002 648 904 450 c 128,-1,31
 806 252 806 252 635 133 c 1,32,-1
 1156 133 l 1,33,-1
 1156 447 l 1,34,-1
 1157 447 l 1,35,36
 1150 608 1150 608 1045 729 c 0,37,38
 997 784 997 784 931 823 c 1,29,30
EndSplineSet
EndChar

StartChar: y1
Encoding: 132 3375 82
Width: 1915
GlyphClass: 2
Flags: W
LayerCount: 2
Fore
SplineSet
146.74609375 842 m 4,0,1
 190.74609375 927 190.74609375 927 270.74609375 979 c 132,-1,2
 350.74609375 1031 350.74609375 1031 460.24609375 1026 c 132,-1,3
 569.74609375 1021 569.74609375 1021 659.74609375 923 c 4,4,5
 689.74609375 891 689.74609375 891 712.74609375 850 c 5,6,7
 785.74609375 960 785.74609375 960 893.74609375 999.5 c 132,-1,8
 1001.74609375 1039 1001.74609375 1039 1089.74609375 1018 c 4,9,10
 1256.74609375 978 1256.74609375 978 1334.74609375 820 c 4,11,12
 1397.74609375 693 1397.74609375 693 1380.74609375 553 c 4,13,14
 1347.74609375 280 1347.74609375 280 1153.74609375 117 c 5,15,16
 1328.74609375 87 1328.74609375 87 1474.74609375 184 c 4,17,18
 1535.74609375 225 1535.74609375 225 1579.74609375 281 c 4,19,20
 1671.74609375 399 1671.74609375 399 1674.74609375 549 c 4,21,22
 1676.74609375 647 1676.74609375 647 1635.74609375 740.5 c 132,-1,23
 1594.74609375 834 1594.74609375 834 1521.74609375 898 c 4,24,25
 1497.74609375 919 1497.74609375 919 1497.74609375 949.5 c 132,-1,26
 1497.74609375 980 1497.74609375 980 1518.24609375 1000.5 c 132,-1,27
 1538.74609375 1021 1538.74609375 1021 1566.74609375 1021 c 132,-1,28
 1594.74609375 1021 1594.74609375 1021 1614.74609375 1003 c 4,29,30
 1711.74609375 917 1711.74609375 917 1764.74609375 796.5 c 132,-1,31
 1817.74609375 676 1817.74609375 676 1815.74609375 563 c 4,32,33
 1811.74609375 349 1811.74609375 349 1690.74609375 194.5 c 132,-1,34
 1569.74609375 40 1569.74609375 40 1375.74609375 -11 c 132,-1,35
 1181.74609375 -62 1181.74609375 -62 992.74609375 20 c 5,36,37
 835.74609375 -46 835.74609375 -46 670.74609375 -24 c 4,38,39
 460.74609375 4 460.74609375 4 308.24609375 152.5 c 132,-1,40
 155.74609375 301 155.74609375 301 114.74609375 500.5 c 132,-1,41
 73.74609375 700 73.74609375 700 146.74609375 842 c 4,0,1
632.74609375 588 m 5,42,43
 639.74609375 738 639.74609375 738 552.74609375 833 c 4,44,45
 499.74609375 890 499.74609375 890 441.74609375 887 c 4,46,47
 326.74609375 882 326.74609375 882 273.74609375 781 c 132,-1,48
 220.74609375 680 220.74609375 680 252.74609375 525.5 c 132,-1,49
 284.74609375 371 284.74609375 371 404.74609375 253.5 c 132,-1,50
 524.74609375 136 524.74609375 136 688.74609375 115 c 4,51,52
 761.74609375 105 761.74609375 105 836.74609375 119 c 5,53,54
 744.74609375 201 744.74609375 201 697.092518725 302.689325277 c 132,-1,56
 649.4389437 404.378650554 649.4389437 404.378650554 632.74609375 588 c 5,42,43
1149.74609375 836 m 4,57,58
 1061.74609375 912 1061.74609375 912 947.74609375 870 c 132,-1,59
 833.74609375 828 833.74609375 828 787.24609375 676.5 c 132,-1,60
 740.74609375 525 740.74609375 525 826.74609375 358 c 4,61,62
 887.74609375 241 887.74609375 241 994.74609375 176 c 5,63,64
 1111.74609375 242 1111.74609375 242 1178.74609375 364 c 4,65,66
 1227.74609375 452 1227.74609375 452 1240.74609375 560.5 c 132,-1,67
 1253.74609375 669 1253.74609375 669 1209.74609375 758 c 4,68,69
 1186.74609375 804 1186.74609375 804 1149.74609375 836 c 4,57,58
EndSplineSet
EndChar

StartChar: r3
Encoding: 133 3376 83
Width: 1453
GlyphClass: 2
Flags: W
LayerCount: 2
Fore
SplineSet
522 994 m 0,0,1
 696 1047 696 1047 857.5 1011 c 128,-1,2
 1019 975 1019 975 1119 896 c 0,3,4
 1316 740 1316 740 1347 519.5 c 128,-1,5
 1378 299 1378 299 1247 135 c 0,6,7
 1182 54 1182 54 1086 10 c 0,8,9
 930 -61 930 -61 772 2 c 0,10,11
 661 46 661 46 602 130 c 0,12,13
 487 293 487 293 529.5 464.5 c 128,-1,14
 572 636 572 636 728 730 c 128,-1,15
 884 824 884 824 1067 756 c 1,16,17
 929 881 929 881 740.5 883.5 c 128,-1,18
 552 886 552 886 414 784.5 c 128,-1,19
 276 683 276 683 246 519 c 0,20,21
 224 398 224 398 273.5 286 c 128,-1,22
 323 174 323 174 427 109 c 0,23,24
 452 94 452 94 459 65.5 c 128,-1,25
 466 37 466 37 450.5 12.5 c 128,-1,26
 435 -12 435 -12 406 -18.5 c 128,-1,27
 377 -25 377 -25 353 -9 c 0,28,29
 213 79 213 79 146 230.5 c 128,-1,30
 79 382 79 382 109 545 c 0,31,32
 128 651 128 651 187 743 c 0,33,34
 306 928 306 928 522 994 c 0,0,1
1194 378.5 m 128,-1,36
 1194 489 1194 489 1115.5 567 c 128,-1,37
 1037 645 1037 645 926.5 645 c 128,-1,38
 816 645 816 645 738 567 c 128,-1,39
 660 489 660 489 660 378.5 c 128,-1,40
 660 268 660 268 738 189.5 c 128,-1,41
 816 111 816 111 926.5 111 c 128,-1,42
 1037 111 1037 111 1115.5 189.5 c 128,-1,35
 1194 268 1194 268 1194 378.5 c 128,-1,36
EndSplineSet
EndChar

StartChar: rh
Encoding: 134 3377 84
Width: 1328
GlyphClass: 2
Flags: W
LayerCount: 2
Fore
SplineSet
460 982 m 0,0,1
 621 1041 621 1041 774.5 1008 c 128,-1,2
 928 975 928 975 1022 897 c 0,3,4
 1206 744 1206 744 1225.5 542.5 c 128,-1,5
 1245 341 1245 341 1137.5 185.5 c 128,-1,6
 1030 30 1030 30 847 -19 c 0,7,8
 838 -22 838 -22 818.5 -22 c 128,-1,9
 799 -22 799 -22 778.5 -1.5 c 128,-1,10
 758 19 758 19 758 41 c 0,11,12
 758 102 758 102 828 121 c 0,13,14
 875 133 875 133 930 172 c 128,-1,15
 985 211 985 211 1022 265 c 0,16,17
 1100 378 1100 378 1086 524.5 c 128,-1,18
 1072 671 1072 671 947 776 c 128,-1,19
 822 881 822 881 660 878 c 128,-1,20
 498 875 498 875 379.5 775 c 128,-1,21
 261 675 261 675 243 530.5 c 128,-1,22
 225 386 225 386 301.5 270 c 128,-1,23
 378 154 378 154 512 116 c 0,24,25
 533 110 533 110 548 90.5 c 128,-1,26
 563 71 563 71 563 45.5 c 128,-1,27
 563 20 563 20 542.5 -1 c 128,-1,28
 522 -22 522 -22 503 -22 c 0,29,30
 450 -22 450 -22 351.5 34 c 128,-1,31
 253 90 253 90 194 180 c 0,32,33
 80 352 80 352 104.5 549 c 128,-1,34
 129 746 129 746 291 883 c 0,35,36
 366 947 366 947 460 982 c 0,0,1
EndSplineSet
EndChar

StartChar: l3
Encoding: 135 3378 85
Width: 1647
GlyphClass: 2
Flags: W
LayerCount: 2
Fore
SplineSet
1405 958 m 5,0,1
 1405 973 l 6,2,3
 1405 987 1405 987 1425.5 1008 c 132,-1,4
 1446 1029 1446 1029 1475 1029 c 132,-1,5
 1504 1029 1504 1029 1524.5 1008.5 c 132,-1,6
 1545 988 1545 988 1545 959 c 6,7,-1
 1545 958 l 5,8,-1
 1547 75 l 6,9,10
 1547 35 1547 35 1512 14 c 4,11,12
 1496 5 1496 5 1477 4 c 6,13,-1
 170 1 l 6,14,15
 141 1 141 1 120.5 21.5 c 132,-1,16
 100 42 100 42 100 71 c 6,17,-1
 100 389 l 6,18,19
 100 530 100 530 119 630.5 c 132,-1,20
 138 731 138 731 206.5 828 c 132,-1,21
 275 925 275 925 385.5 977.5 c 132,-1,22
 496 1030 496 1030 612 1023 c 132,-1,23
 728 1016 728 1016 823.5 964 c 132,-1,24
 919 912 919 912 983.5 826 c 132,-1,25
 1048 740 1048 740 1071 633.5 c 132,-1,26
 1094 527 1094 527 1070 422 c 4,27,28
 1065 399 1065 399 1045 383 c 132,-1,29
 1025 367 1025 367 1002 367 c 6,30,-1
 240 366 l 5,31,-1
 240 141 l 5,32,-1
 1407 144 l 5,33,-1
 1405 958 l 5,0,1
757 840 m 4,34,35
 602 923 602 923 446 852 c 4,36,37
 261 764 261 764 243 506 c 5,38,-1
 941 507 l 5,39,40
 949 639 949 639 872 742 c 4,41,42
 827 802 827 802 757 840 c 4,34,35
EndSplineSet
EndChar

StartChar: lh
Encoding: 136 3379 86
Width: 1272
GlyphClass: 2
Flags: W
LayerCount: 2
Fore
SplineSet
862 419 m 1,0,-1
 824 421 l 2,1,2
 787 423 787 423 767.5 444.5 c 128,-1,3
 748 466 748 466 749.5 494.5 c 128,-1,4
 751 523 751 523 772 542.5 c 128,-1,5
 793 562 793 562 822 561 c 0,6,7
 972 556 972 556 997.5 628.5 c 128,-1,8
 1023 701 1023 701 968 774 c 0,9,10
 883 887 883 887 687 885 c 0,11,12
 447 883 447 883 323 749 c 1,13,14
 396 766 396 766 475.5 742 c 128,-1,15
 555 718 555 718 609 644.5 c 128,-1,16
 663 571 663 571 661.5 478.5 c 128,-1,17
 660 386 660 386 601 314.5 c 128,-1,18
 542 243 542 243 463 227 c 0,19,20
 313 197 313 197 213 291 c 128,-1,21
 113 385 113 385 103.5 509 c 128,-1,22
 94 633 94 633 144.5 733.5 c 128,-1,23
 195 834 195 834 286 903 c 0,24,25
 444 1023 444 1023 677 1025 c 0,26,27
 953 1028 953 1028 1080 858 c 0,28,29
 1132 789 1132 789 1142 716 c 0,30,31
 1160 593 1160 593 1062 496 c 1,32,33
 1149 429 1149 429 1167 335.5 c 128,-1,34
 1185 242 1185 242 1147 172 c 0,35,36
 1075 37 1075 37 907 11 c 0,37,38
 862 4 862 4 780 4 c 2,39,-1
 397 4 l 2,40,41
 308 4 308 4 282 -15 c 0,42,43
 232 -51 232 -51 243 -104 c 0,44,45
 256 -170 256 -170 383 -170 c 2,46,-1
 1092 -170 l 2,47,48
 1121 -170 1121 -170 1142 -190 c 128,-1,49
 1163 -210 1163 -210 1163 -239.5 c 128,-1,50
 1163 -269 1163 -269 1142.5 -289.5 c 128,-1,51
 1122 -310 1122 -310 1092 -310 c 2,52,-1
 384 -310 l 2,53,54
 280 -310 280 -310 228 -283 c 0,55,56
 125 -230 125 -230 104 -128 c 0,57,58
 91 -64 91 -64 116 -5 c 0,59,60
 164 111 164 111 299 137 c 0,61,62
 335 144 335 144 398 144 c 2,63,-1
 780 144 l 2,64,65
 912 144 912 144 958 172 c 0,66,67
 1046 226 1046 226 1036 305 c 0,68,69
 1022 419 1022 419 862 419 c 1,0,-1
496.5 561.5 m 128,-1,71
 470 597 470 597 415 614 c 128,-1,72
 360 631 360 631 305.22170143 587.84134052 c 128,-1,73
 250.443402859 544.682681041 250.443402859 544.682681041 253.72170143 492.34134052 c 152,-1,74
 257 440 257 440 296 406 c 0,75,76
 356 349 356 349 423 362 c 0,77,78
 465 370 465 370 493 404 c 128,-1,79
 521 438 521 438 522 482 c 128,-1,70
 523 526 523 526 496.5 561.5 c 128,-1,71
EndSplineSet
EndChar

StartChar: zh
Encoding: 137 3380 87
Width: 1157
GlyphClass: 2
Flags: W
LayerCount: 2
Fore
SplineSet
263 1039 m 6,0,1
 292 1039 292 1039 312 1018.5 c 132,-1,2
 332 998 332 998 332 969.416503906 c 132,-1,3
 332 940.833007812 332 940.833007812 310 917 c 4,4,5
 261 871 261 871 246.5 806 c 132,-1,6
 232 741 232 741 252 689 c 4,7,8
 321 514 321 514 558 497 c 5,9,10
 384 665 384 665 446 839 c 4,11,12
 484 946 484 946 589 1000 c 4,13,14
 666 1039 666 1039 768 1033 c 132,-1,15
 870 1027 870 1027 957 949.5 c 132,-1,16
 1044 872 1044 872 1055.5 767 c 132,-1,17
 1067 662 1067 662 1023 578 c 4,18,19
 961 460 961 460 832 402 c 5,20,21
 868 333 868 333 865 264 c 4,22,23
 861 160 861 160 786.5 90.5 c 132,-1,24
 712 21 712 21 615 2 c 132,-1,25
 518 -17 518 -17 425 9 c 132,-1,26
 332 35 332 35 261 99 c 4,27,28
 237 120 237 120 237 150.5 c 132,-1,29
 237 181 237 181 257.5 201.5 c 132,-1,30
 278 222 278 222 306.5 222 c 132,-1,31
 335 222 335 222 367.5 192 c 132,-1,32
 400 162 400 162 462.5 144.5 c 132,-1,33
 525 127 525 127 585.5 139 c 132,-1,34
 646 151 646 151 684 187 c 4,35,36
 764 262 764 262 693 360 c 4,37,38
 692 361 692 361 664.5 357.5 c 132,-1,39
 637 354 637 354 578 356 c 4,40,41
 340 363 340 363 203 507 c 4,42,43
 153 560 153 560 119.5 644.5 c 132,-1,44
 86 729 86 729 110 836.5 c 132,-1,45
 134 944 134 944 214 1019 c 4,46,47
 234 1039 234 1039 262 1039 c 6,48,-1
 263 1039 l 6,0,1
821 556 m 4,49,50
 929 631 929 631 917 747 c 4,51,52
 911 804 911 804 862.5 847 c 132,-1,53
 814 890 814 890 741 894.5 c 132,-1,54
 668 899 668 899 614.5 847.5 c 132,-1,55
 561 796 561 796 570 741 c 4,56,57
 590.852853067 613.565897925 590.852853067 613.565897925 742 517 c 5,58,59
 787 532 787 532 821 556 c 4,49,50
EndSplineSet
EndChar

StartChar: v1
Encoding: 138 3381 88
Width: 1719
GlyphClass: 2
Flags: W
LayerCount: 2
Fore
SplineSet
1488 988 m 4,0,1
 1508 1023 1508 1023 1543 1023.5 c 132,-1,2
 1578 1024 1578 1024 1598.5 1003.5 c 132,-1,3
 1619 983 1619 983 1619 968 c 6,4,-1
 1619 953 l 5,5,-1
 1618 63 l 6,6,7
 1618 34 1618 34 1597.5 13.5 c 132,-1,8
 1577 -7 1577 -7 1548 -7 c 6,9,-1
 826 -4 l 6,10,11
 780 -4 780 -4 762 39 c 4,12,13
 756 52 756 52 756 69 c 132,-1,14
 756 86 756 86 769.5 105 c 132,-1,15
 783 124 783 124 802 131 c 4,16,17
 918 174 918 174 987 277 c 132,-1,18
 1056 380 1056 380 1050 518.5 c 132,-1,19
 1044 657 1044 657 932.5 766 c 132,-1,20
 821 875 821 875 659 883 c 132,-1,21
 497 891 497 891 374 784 c 4,22,23
 315 733 315 733 279.5 661.5 c 132,-1,24
 244 590 244 590 241 517 c 4,25,26
 234 368 234 368 328.5 257 c 132,-1,27
 423 146 423 146 567 130 c 4,28,29
 593 127 593 127 611.5 106.5 c 132,-1,30
 630 86 630 86 630 58.5 c 132,-1,31
 630 31 630 31 609.5 10.5 c 132,-1,32
 589 -10 589 -10 573 -10 c 4,33,34
 478 -10 478 -10 381 41.5 c 132,-1,35
 284 93 284 93 222 167 c 4,36,37
 92 320 92 320 101 520 c 4,38,39
 106 626 106 626 153.5 723 c 132,-1,40
 201 820 201 820 281 890 c 4,41,42
 447 1034 447 1034 664 1023 c 132,-1,43
 881 1012 881 1012 1031.5 865.5 c 132,-1,44
 1182 719 1182 719 1190.5 506 c 132,-1,45
 1199 293 1199 293 1053 135 c 5,46,-1
 1478 134 l 5,47,-1
 1479 953 l 5,48,49
 1479 962 l 6,50,51
 1479 972 1479 972 1488 988 c 4,0,1
EndSplineSet
EndChar

StartChar: z1
Encoding: 139 3382 89
Width: 1934
GlyphClass: 2
Flags: W
LayerCount: 2
Fore
SplineSet
385.330078125 1013 m 0,0,1
 404.330078125 1027 404.330078125 1027 430.330078125 1027.5 c 128,-1,2
 456.330078125 1028 456.330078125 1028 476.830078125 1007 c 128,-1,3
 497.330078125 986 497.330078125 986 497.330078125 954 c 128,-1,4
 497.330078125 922 497.330078125 922 468.330078125 901 c 0,5,6
 382.330078125 837 382.330078125 837 324.330078125 742.5 c 128,-1,7
 266.330078125 648 266.330078125 648 250.330078125 551 c 0,8,9
 216.330078125 352 216.330078125 352 312.330078125 222 c 0,10,11
 362.330078125 155 362.330078125 155 435.830078125 125.5 c 128,-1,12
 509.330078125 96 509.330078125 96 573.330078125 113 c 0,13,14
 692.330078125 145 692.330078125 145 752.330078125 266 c 0,15,16
 802.330078125 366 802.330078125 366 804.330078125 519 c 0,17,18
 806.330078125 717 806.330078125 717 924.330078125 854 c 128,-1,19
 1042.33007812 991 1042.33007812 991 1218.33007812 1020 c 0,20,21
 1352.33007812 1042 1352.33007812 1042 1479.33007812 994 c 128,-1,22
 1606.33007812 946 1606.33007812 946 1693.83007812 844.5 c 128,-1,23
 1781.33007812 743 1781.33007812 743 1814.83007812 613.5 c 128,-1,24
 1848.33007812 484 1848.33007812 484 1824.33007812 353 c 0,25,26
 1792.33007812 173 1792.33007812 173 1673.33007812 67 c 0,27,28
 1606.33007812 7 1606.33007812 7 1519.83007812 -17.5 c 128,-1,29
 1433.33007812 -42 1433.33007812 -42 1343.33007812 -18.5 c 128,-1,30
 1253.33007812 5 1253.33007812 5 1188.33007812 75 c 128,-1,31
 1123.33007812 145 1123.33007812 145 1101.33007812 237 c 0,32,33
 1058.33007812 412 1058.33007812 412 1150.33007812 578 c 0,34,35
 1261.33007812 777 1261.33007812 777 1480.33007812 840 c 1,36,37
 1366.33007812 903 1366.33007812 903 1240.83007812 882 c 128,-1,38
 1115.33007812 861 1115.33007812 861 1030.33007812 762.5 c 128,-1,39
 945.330078125 664 945.330078125 664 944.330078125 498 c 0,40,41
 941.330078125 216 941.330078125 216 771.330078125 63 c 0,42,43
 705.330078125 4 705.330078125 4 603.330078125 -24 c 128,-1,44
 501.330078125 -52 501.330078125 -52 387.330078125 -6 c 128,-1,45
 273.330078125 40 273.330078125 40 203.330078125 134 c 0,46,47
 67.330078125 316 67.330078125 316 110.330078125 567 c 0,48,49
 133.330078125 700 133.330078125 700 205.330078125 816 c 128,-1,50
 277.330078125 932 277.330078125 932 385.330078125 1013 c 0,0,1
1612.33007812 721 m 1,51,52
 1509.33007812 715 1509.33007812 715 1418.33007812 661 c 128,-1,53
 1327.33007812 607 1327.33007812 607 1266.83007812 498.5 c 128,-1,54
 1206.33007812 390 1206.33007812 390 1235.33007812 273 c 0,55,56
 1250.33007812 214 1250.33007812 214 1289.33007812 172 c 0,57,58
 1369.33007812 85 1369.33007812 85 1484.33007812 118 c 0,59,60
 1536.33007812 133 1536.33007812 133 1580.33007812 171 c 0,61,62
 1663.33007812 245 1663.33007812 245 1687.33007812 378 c 0,63,64
 1703.33007812 467 1703.33007812 467 1683.33007812 558 c 128,-1,65
 1663.33007812 649 1663.33007812 649 1612.33007812 721 c 1,51,52
EndSplineSet
EndChar

StartChar: sh
Encoding: 140 3383 90
Width: 1928
GlyphClass: 2
Flags: W
LayerCount: 2
Fore
SplineSet
891.327148438 970 m 0,0,1
 996.327148438 1045 996.327148438 1045 1127.32714844 1027.5 c 128,-1,2
 1258.32714844 1010 1258.32714844 1010 1324.32714844 912 c 0,3,4
 1362.32714844 856 1362.32714844 856 1366.82714844 815.5 c 0,5,6
 1375.43164062 716.795898438 1375.43164062 716.795898438 1375.32714844 702 c 2,7,-1
 1374.32714844 561 l 1,8,9
 1544.32714844 640 1544.32714844 640 1632.32714844 805 c 0,10,11
 1674.32714844 884 1674.32714844 884 1683.32714844 934.5 c 128,-1,12
 1692.32714844 985 1692.32714844 985 1708.82714844 1006 c 128,-1,13
 1725.32714844 1027 1725.32714844 1027 1751.32714844 1027 c 128,-1,14
 1777.32714844 1027 1777.32714844 1027 1793.32714844 1018 c 0,15,16
 1828.32714844 998 1828.32714844 998 1828.32714844 957 c 2,17,-1
 1828.32714844 68 l 2,18,19
 1828.32714844 39 1828.32714844 39 1807.82714844 18.5 c 128,-1,20
 1787.32714844 -2 1787.32714844 -2 1758.32714844 -2 c 2,21,-1
 534.327148438 -2 l 2,22,23
 494.327148438 -2 494.327148438 -2 474.327148438 33 c 0,24,25
 453.342773438 70.3046875 453.342773438 70.3046875 471.334960938 97.65234375 c 128,-1,26
 489.327148438 125 489.327148438 125 506.327148438 132 c 0,27,28
 569.327148438 159 569.327148438 159 600.827148438 220.5 c 128,-1,29
 632.327148438 282 632.327148438 282 617.327148438 349 c 128,-1,30
 602.327148438 416 602.327148438 416 547.827148438 458 c 128,-1,31
 493.327148438 500 493.327148438 500 425.827148438 498 c 128,-1,32
 358.327148438 496 358.327148438 496 307.327148438 452.5 c 128,-1,33
 256.327148438 409 256.327148438 409 243.827148438 343 c 128,-1,34
 231.327148438 277 231.327148438 277 262.827148438 218 c 128,-1,35
 294.327148438 159 294.327148438 159 346.327148438 136.5 c 128,-1,36
 398.327148438 114 398.327148438 114 398.327148438 76.5 c 128,-1,37
 398.327148438 39 398.327148438 39 377.827148438 18.5 c 128,-1,38
 357.327148438 -2 357.327148438 -2 335.327148438 -2 c 128,-1,39
 313.327148438 -2 313.327148438 -2 300.327148438 4 c 0,40,41
 193.327148438 50 193.327148438 50 138.827148438 152.5 c 128,-1,42
 84.3271484375 255 84.3271484375 255 106.327148438 369 c 128,-1,43
 128.327148438 483 128.327148438 483 216.327148438 558.5 c 128,-1,44
 304.327148438 634 304.327148438 634 421.827148438 638 c 128,-1,45
 539.327148438 642 539.327148438 642 633.327148438 569 c 128,-1,46
 727.327148438 496 727.327148438 496 754.827148438 373.5 c 128,-1,47
 782.327148438 251 782.327148438 251 715.327148438 138 c 1,48,-1
 1231.32714844 138 l 1,49,-1
 1233.32714844 376 l 1,50,51
 1075.32714844 357 1075.32714844 357 966.827148438 414.5 c 128,-1,52
 858.327148438 472 858.327148438 472 805.327148438 563 c 0,53,54
 725.327148438 698 725.327148438 698 786.327148438 840 c 0,55,56
 820.327148438 920 820.327148438 920 891.327148438 970 c 0,0,1
1109.32714844 888 m 0,57,58
 1003.32714844 902 1003.32714844 902 939.327148438 824 c 0,59,60
 908.327148438 786 908.327148438 786 902.327148438 735 c 128,-1,61
 896.327148438 684 896.327148438 684 927.827148438 631 c 128,-1,62
 959.327148438 578 959.327148438 578 1033.32714844 538 c 128,-1,63
 1107.32714844 498 1107.32714844 498 1234.32714844 517 c 1,64,-1
 1235.32714844 703 l 2,65,66
 1235.32714844 792.784179688 1235.32714844 792.784179688 1214.32714844 824 c 0,67,68
 1177.32714844 879 1177.32714844 879 1109.32714844 888 c 0,57,58
1688.32714844 635 m 1,69,70
 1563.32714844 476 1563.32714844 476 1373.32714844 409 c 1,71,-1
 1371.32714844 138 l 1,72,-1
 1688.32714844 138 l 1,73,-1
 1688.32714844 635 l 1,69,70
EndSplineSet
EndChar

StartChar: s1
Encoding: 141 3384 91
Width: 2443
GlyphClass: 2
Flags: W
LayerCount: 2
Fore
SplineSet
961 831 m 5,0,1
 998 905 998 905 1068 964.5 c 132,-1,2
 1138 1024 1138 1024 1223 1027 c 4,3,4
 1378 1032 1378 1032 1480 917 c 132,-1,5
 1582 802 1582 802 1587 590 c 4,6,7
 1587 576 1587 576 1587 534 c 132,-1,8
 1587 492 1587 492 1587 436 c 4,9,10
 1587 259 1587 259 1716 169.5 c 132,-1,11
 1845 80 1845 80 1989 137 c 4,12,13
 2154 202 2154 202 2194 383 c 4,14,15
 2227 533 2227 533 2150.5 670 c 132,-1,16
 2074 807 2074 807 1926 861 c 4,17,18
 1853 887 1853 887 1779 886 c 4,19,20
 1778 886 1778 886 1771.5 886 c 132,-1,21
 1765 886 1765 886 1755 890 c 4,22,23
 1707 906 1707 906 1707 959 c 4,24,25
 1707 985 1707 985 1727.5 1005.5 c 132,-1,26
 1748 1026 1748 1026 1777 1026 c 4,27,28
 1987 1029 1987 1029 2147 893 c 132,-1,29
 2307 757 2307 757 2337 545.5 c 132,-1,30
 2367 334 2367 334 2251 170 c 4,31,32
 2191 86 2191 86 2100.5 34.5 c 132,-1,33
 2010 -17 2010 -17 1908 -23 c 4,34,35
 1760 -31 1760 -31 1638.5 53 c 132,-1,36
 1517 137 1517 137 1472 278 c 4,37,38
 1447 358 1447 358 1447 493 c 132,-1,39
 1447 628 1447 628 1441 671 c 4,40,41
 1418 823 1418 823 1313 872 c 4,42,43
 1225 914 1225 914 1145 846 c 4,44,45
 1040 757 1040 757 1041 518 c 4,46,47
 1041 471 1041 471 1042 468 c 6,48,-1
 1041 46 l 6,49,50
 1041 17 1041 17 1020.5 -3 c 132,-1,51
 1000 -23 1000 -23 971.5 -23 c 132,-1,52
 943 -23 943 -23 922.5 -3 c 132,-1,53
 902 17 902 17 901 46 c 6,54,-1
 901 467 l 6,55,56
 901 585 901 585 886 655.5 c 132,-1,57
 871 726 871 726 821.5 785 c 132,-1,58
 772 844 772 844 698.5 869 c 132,-1,59
 625 894 625 894 569 884 c 4,60,61
 331 843 331 843 261 632 c 4,62,63
 212 484 212 484 283 333.5 c 132,-1,64
 354 183 354 183 522 133 c 4,65,66
 604 109 604 109 686 120 c 4,67,68
 691 121 691 121 708 121 c 132,-1,69
 725 121 725 121 745.5 100.5 c 132,-1,70
 766 80 766 80 766 57 c 132,-1,71
 766 34 766 34 753 9.5 c 132,-1,72
 740 -15 740 -15 704 -19 c 4,73,74
 592 -34 592 -34 482.5 -1.5 c 132,-1,75
 373 31 373 31 287 104.5 c 132,-1,76
 201 178 201 178 152 282 c 4,77,78
 75 444 75 444 112 618 c 4,79,80
 137 740 137 740 204 823 c 4,81,82
 333 985 333 985 521 1018 c 4,83,84
 637 1038 637 1038 759.5 996 c 132,-1,85
 882 954 882 954 961 831 c 5,0,1
EndSplineSet
EndChar

StartChar: h1
Encoding: 142 3385 92
Width: 2151
GlyphClass: 2
Flags: W
LayerCount: 2
Fore
SplineSet
1204.5 897.5 m 132,-1,1
 1355 1026 1355 1026 1560 1019.5 c 132,-1,2
 1765 1013 1765 1013 1910 857.5 c 132,-1,3
 2055 702 2055 702 2051 476 c 4,4,5
 2048 318 2048 318 1963 193.5 c 132,-1,6
 1878 69 1878 69 1724 -2 c 4,7,8
 1711 -8 1711 -8 1689 -8 c 132,-1,9
 1667 -8 1667 -8 1646.5 12.5 c 132,-1,10
 1626 33 1626 33 1626 57.5 c 132,-1,11
 1626 82 1626 82 1639 101 c 132,-1,12
 1652 120 1652 120 1671 127 c 4,13,14
 1778 171 1778 171 1843.5 266.5 c 132,-1,15
 1909 362 1909 362 1911 457 c 4,16,17
 1914 648 1914 648 1808.5 761.5 c 132,-1,18
 1703 875 1703 875 1554 880 c 132,-1,19
 1405 885 1405 885 1296 791.5 c 132,-1,20
 1187 698 1187 698 1169 549 c 132,-1,21
 1151 400 1151 400 1234.5 282.5 c 132,-1,22
 1318 165 1318 165 1458 135 c 4,23,24
 1481 130 1481 130 1497 110 c 132,-1,25
 1513 90 1513 90 1513 64 c 132,-1,26
 1513 38 1513 38 1492.5 17.5 c 132,-1,27
 1471.90022936 -3.0997706422 1471.90022936 -3.0997706422 1443 -3 c 6,28,-1
 574 0 l 6,29,30
 545 0 545 0 525 20.5 c 132,-1,31
 505 41 505 41 505 65 c 4,32,33
 505 116 505 116 546 134 c 4,34,35
 610 162 610 162 646 221.5 c 132,-1,36
 682 281 682 281 676.5 350.5 c 132,-1,37
 671 420 671 420 626 473.5 c 132,-1,38
 581 527 581 527 528 541 c 4,39,40
 429 567 429 567 352.5 524.5 c 132,-1,41
 276 482 276 482 250 398.5 c 132,-1,42
 224 315 224 315 263.5 235.5 c 132,-1,43
 303 156 303 156 384 128 c 4,44,45
 404 121 404 121 417.5 102 c 132,-1,46
 431 83 431 83 431 63 c 132,-1,47
 431 43 431 43 422 27 c 4,48,49
 402 -8 402 -8 361 -8 c 4,50,51
 348 -8 348 -8 336 -4 c 4,52,53
 201 45 201 45 137 174 c 132,-1,54
 73 303 73 303 116 440 c 132,-1,55
 159 577 159 577 284.5 647 c 132,-1,56
 410 717 410 717 535 684 c 132,-1,57
 660 651 660 651 733.5 563.5 c 132,-1,58
 807 476 807 476 816 358.5 c 132,-1,59
 825 241 825 241 759 139 c 5,60,-1
 1174 138 l 5,61,62
 1076 237 1076 237 1047.5 349.5 c 132,-1,64
 1019 462 1019 462 1030 559 c 4,65,0
 1054 769 1054 769 1204.5 897.5 c 132,-1,1
EndSplineSet
EndChar

StartChar: avagraha
Encoding: 144 3389 93
Width: 1438
GlyphClass: 2
Flags: W
LayerCount: 2
Fore
SplineSet
889.846679688 1337.26757812 m 4,0,1
 1015.9921875 1459.53027344 1015.9921875 1459.53027344 1179.91894531 1428.44726562 c 4,2,3
 1261.05175781 1413.06445312 1261.05175781 1413.06445312 1324.41503906 1360.10351562 c 132,-1,4
 1387.78027344 1307.140625 1387.78027344 1307.140625 1417.31347656 1230.02539062 c 132,-1,5
 1446.84765625 1152.91015625 1446.84765625 1152.91015625 1435.07324219 1071.171875 c 4,6,7
 1427.19726562 1010.12109375 1427.19726562 1010.12109375 1359.50683594 1010.12109375 c 4,8,9
 1336.65917969 1010.12109375 1336.65917969 1010.12109375 1316.14746094 1030.6328125 c 132,-1,10
 1295.63476562 1051.14550781 1295.63476562 1051.14550781 1295.63476562 1068.40625 c 132,-1,11
 1295.63476562 1085.66601562 1295.63476562 1085.66601562 1299.36230469 1111.24902344 c 132,-1,12
 1303.08886719 1136.83203125 1303.08886719 1136.83203125 1286.57324219 1179.95507812 c 132,-1,13
 1270.05859375 1223.07421875 1270.05859375 1223.07421875 1234.63183594 1252.68554688 c 4,14,15
 1158.63769531 1316.20410156 1158.63769531 1316.20410156 1069.02929688 1286.36621094 c 132,-1,16
 979.420898438 1256.52734375 979.420898438 1256.52734375 930.104492188 1156.24414062 c 4,17,18
 897.053710938 1089.03515625 897.053710938 1089.03515625 874.409179688 939.103515625 c 6,19,-1
 831.266601562 653.44921875 l 5,20,-1
 1035.22167969 653.44921875 l 6,21,22
 1035.70019531 653.456054688 1035.70019531 653.456054688 1050.44726562 653.456054688 c 132,-1,23
 1065.19433594 653.456054688 1065.19433594 653.456054688 1085.70703125 632.944335938 c 132,-1,24
 1106.21875 612.431640625 1106.21875 612.431640625 1106.21875 583.44921875 c 132,-1,25
 1106.21875 554.466796875 1106.21875 554.466796875 1085.70703125 533.954101562 c 132,-1,26
 1065.19433594 513.442382812 1065.19433594 513.442382812 1050.44726562 513.442382812 c 132,-1,27
 1035.70019531 513.442382812 1035.70019531 513.442382812 1035.22167969 513.44921875 c 6,28,-1
 810.122070312 513.44921875 l 5,29,-1
 729.608398438 -19.65625 l 6,30,31
 708.291015625 -160.80859375 708.291015625 -160.80859375 678.901367188 -232.947265625 c 4,32,33
 626.583984375 -361.364257812 626.583984375 -361.364257812 534.517578125 -416.119140625 c 132,-1,34
 442.451171875 -470.875 442.451171875 -470.875 347.143554688 -465.720703125 c 132,-1,35
 251.834960938 -460.56640625 251.834960938 -460.56640625 175.538085938 -403.212890625 c 132,-1,36
 99.240234375 -345.859375 99.240234375 -345.859375 67.8037109375 -255.736328125 c 132,-1,37
 36.3671875 -165.615234375 36.3671875 -165.615234375 60.4384765625 -73.25 c 4,38,39
 65.8564453125 -51.17578125 65.8564453125 -51.17578125 85.77734375 -35.552734375 c 132,-1,40
 105.698242188 -19.9296875 105.698242188 -19.9296875 131.5546875 -19.9296875 c 132,-1,41
 157.411132812 -19.9296875 157.411132812 -19.9296875 177.922851562 -40.44140625 c 132,-1,42
 198.434570312 -60.953125 198.434570312 -60.953125 198.434570312 -80.1845703125 c 132,-1,43
 198.434570312 -99.416015625 198.434570312 -99.416015625 195.913085938 -108.556640625 c 4,44,45
 182.58203125 -159.7109375 182.58203125 -159.7109375 199.993164062 -209.626953125 c 132,-1,46
 217.403320312 -259.538085938 217.403320312 -259.538085938 259.661132812 -291.3046875 c 132,-1,47
 301.91796875 -323.0703125 301.91796875 -323.0703125 354.704101562 -325.923828125 c 132,-1,48
 407.489257812 -328.779296875 407.489257812 -328.779296875 461.072265625 -296.912109375 c 132,-1,49
 514.654296875 -265.044921875 514.654296875 -265.044921875 543.501953125 -194.236328125 c 132,-1,50
 572.349609375 -123.426757812 572.349609375 -123.426757812 591.178710938 1.25 c 6,51,-1
 668.536132812 513.44921875 l 5,52,-1
 459.221679688 513.44921875 l 6,53,54
 458.743164062 513.442382812 458.743164062 513.442382812 443.99609375 513.442382812 c 132,-1,55
 429.249023438 513.442382812 429.249023438 513.442382812 408.737304688 533.954101562 c 132,-1,56
 388.224609375 554.466796875 388.224609375 554.466796875 388.224609375 583.44921875 c 132,-1,57
 388.224609375 612.431640625 388.224609375 612.431640625 408.737304688 632.944335938 c 132,-1,58
 429.249023438 653.456054688 429.249023438 653.456054688 443.99609375 653.456054688 c 132,-1,59
 458.743164062 653.456054688 458.743164062 653.456054688 459.221679688 653.44921875 c 6,60,-1
 689.678710938 653.44921875 l 5,61,-1
 735.979492188 960.01171875 l 6,62,63
 755.805664062 1091.28417969 755.805664062 1091.28417969 772.596679688 1139.31542969 c 132,-1,64
 789.38671875 1187.34570312 789.38671875 1187.34570312 814.076171875 1237.55175781 c 132,-1,65
 838.766601562 1287.7578125 838.766601562 1287.7578125 889.846679688 1337.26757812 c 4,0,1
EndSplineSet
EndChar

StartChar: a2
Encoding: 145 3390 94
Width: 1000
GlyphClass: 2
Flags: W
LayerCount: 2
Fore
SplineSet
462 1013 m 4,0,1
 562 1016 562 1016 650 968.5 c 132,-1,2
 738 921 738 921 798 840 c 4,3,4
 905 695 905 695 900.5 487.5 c 132,-1,5
 896 280 896 280 777 138 c 4,6,7
 631 -36 631 -36 408 -12 c 4,8,9
 292 1 292 1 196 100 c 4,10,11
 100 200 100 200 100 340 c 4,12,13
 100 356 100 356 120.5 376.5 c 132,-1,14
 141 397 141 397 164.5 397 c 132,-1,15
 188 397 188 397 204 388 c 4,16,17
 238 369 238 369 240 331 c 4,18,19
 246 250 246 250 302 192 c 132,-1,20
 358 134 358 134 430 127 c 4,21,22
 572 112 572 112 664.5 222 c 132,-1,23
 757 332 757 332 760.5 491 c 132,-1,24
 764 650 764 650 681 763 c 4,25,26
 597 876 597 876 454 873 c 4,27,28
 380 871 380 871 318.5 813 c 132,-1,29
 257 755 257 755 249 670 c 4,30,31
 247 643 247 643 226.5 624.5 c 132,-1,32
 206 606 206 606 178 606 c 132,-1,33
 150 606 150 606 129.5 626.5 c 132,-1,34
 109 647 109 647 109 663 c 4,35,36
 109 736 109 736 142 802.5 c 132,-1,37
 175 869 175 869 223 915 c 4,38,39
 324 1009 324 1009 462 1013 c 4,0,1
EndSplineSet
EndChar

StartChar: i1
Encoding: 146 3391 95
Width: 340
GlyphClass: 2
Flags: W
LayerCount: 2
Fore
SplineSet
43.1669921875 1351.5 m 4,0,1
 201.603515625 1241.67089844 201.603515625 1241.67089844 229 1052 c 4,2,3
 238 996 238 996 238 896 c 6,4,-1
 240 47 l 5,5,-1
 240 46 l 6,6,7
 240 17 240 17 219.5 -3.5 c 132,-1,8
 199 -24 199 -24 170 -24 c 132,-1,9
 141 -24 141 -24 120.5 -3.5 c 132,-1,10
 100 17 100 17 100 46 c 6,11,-1
 98 895 l 6,12,13
 98 985 98 985 89.5 1040 c 4,14,15
 70.2587890625 1164.50488281 70.2587890625 1164.50488281 -23 1228 c 4,16,17
 -70 1261 -70 1261 -142 1270.5 c 132,-1,18
 -214 1280 -214 1280 -289 1235.5 c 132,-1,19
 -364 1191 -364 1191 -394 1109 c 4,20,21
 -402.356445312 1081.84179688 -402.356445312 1081.84179688 -424.677734375 1071.92089844 c 132,-1,22
 -447 1062 -447 1062 -468 1062 c 132,-1,23
 -489 1062 -489 1062 -509.5 1082.5 c 132,-1,24
 -530 1103 -530 1103 -530 1124 c 132,-1,25
 -530 1145 -530 1145 -526 1157 c 4,26,27
 -479 1286 -479 1286 -361 1356 c 4,28,29
 -268 1412 -268 1412 -155.333007812 1411.5 c 132,-1,30
 -42.6669921875 1411 -42.6669921875 1411 43.1669921875 1351.5 c 4,0,1
EndSplineSet
EndChar

StartChar: i2
Encoding: 147 3392 96
Width: 398
GlyphClass: 2
Flags: W
LayerCount: 2
Fore
SplineSet
-342 1315 m 4,0,1
 -261 1429 -261 1429 -74.5 1420 c 132,-1,2
 112 1411 112 1411 212 1297 c 4,3,4
 266 1235 266 1235 282 1165.5 c 132,-1,5
 298 1096 298 1096 298 1003 c 6,6,-1
 295 49 l 6,7,8
 295 20 295 20 274.5 -1 c 132,-1,9
 254 -22 254 -22 225 -21.5 c 132,-1,10
 196 -21 196 -21 175.5 -0.5 c 132,-1,11
 155 20 155 20 155 50 c 6,12,-1
 158 1003 l 6,13,14
 158 1080 158 1080 148 1125 c 4,15,16
 122 1236 122 1236 -2 1269 c 5,17,18
 26 1170 26 1170 -31 1097.5 c 132,-1,19
 -88 1025 -88 1025 -170.5 1016 c 132,-1,20
 -253 1007 -253 1007 -316.5 1062.5 c 132,-1,21
 -380 1118 -380 1118 -379 1190.5 c 132,-1,22
 -378 1263 -378 1263 -342 1315 c 4,0,1
-173.5 1285.5 m 132,-1,24
 -214 1285 -214 1285 -238.5 1260 c 132,-1,25
 -263 1235 -263 1235 -263 1201 c 132,-1,26
 -263 1167 -263 1167 -238.5 1141.5 c 132,-1,27
 -214 1116 -214 1116 -179.5 1116 c 132,-1,28
 -145 1116 -145 1116 -121 1142.5 c 132,-1,29
 -97 1169 -97 1169 -97 1209 c 132,-1,30
 -97 1249 -97 1249 -115 1267.5 c 132,-1,23
 -133 1286 -133 1286 -173.5 1285.5 c 132,-1,24
EndSplineSet
EndChar

StartChar: u1
Encoding: 148 3393 97
Width: 794
GlyphClass: 2
Flags: W
LayerCount: 2
Fore
SplineSet
214.354492188 1005.90820312 m 132,-1,1
 234.8671875 1026.41992188 234.8671875 1026.41992188 253.05078125 1026.41992188 c 4,2,3
 344.8515625 1026.41992188 344.8515625 1026.41992188 435.25 954.110351562 c 132,-1,4
 525.647460938 881.80078125 525.647460938 881.80078125 565.254882812 781.529296875 c 132,-1,5
 604.86328125 681.2578125 604.86328125 681.2578125 603.475585938 579.577148438 c 4,6,7
 600.640625 371.763671875 600.640625 371.763671875 437.041015625 41.384765625 c 4,8,9
 436.7890625 40.8759765625 436.7890625 40.8759765625 436.279296875 39.8896484375 c 132,-1,10
 435.770507812 38.90234375 435.770507812 38.90234375 435.529296875 38.41796875 c 5,11,12
 436.411132812 38.3037109375 436.411132812 38.3037109375 439.137695312 38.0078125 c 4,13,14
 524.584960938 28.7294921875 524.584960938 28.7294921875 592.602539062 -32.2470703125 c 132,-1,15
 660.62109375 -93.2236328125 660.62109375 -93.2236328125 683.57421875 -177.880859375 c 132,-1,16
 706.528320312 -262.533203125 706.528320312 -262.533203125 681.134765625 -341.706054688 c 132,-1,17
 655.741210938 -420.877929688 655.741210938 -420.877929688 597.841796875 -474 c 132,-1,18
 539.944335938 -527.120117188 539.944335938 -527.120117188 463.337890625 -544.603515625 c 132,-1,19
 386.733398438 -562.084960938 386.733398438 -562.084960938 311.521484375 -539.341796875 c 132,-1,20
 236.30859375 -516.596679688 236.30859375 -516.596679688 184.497070312 -461.989257812 c 4,21,22
 76.5810546875 -348.25 76.5810546875 -348.25 106.490234375 -197.69921875 c 4,23,24
 119.70703125 -131.174804688 119.70703125 -131.174804688 160.798828125 -76.8544921875 c 132,-1,25
 201.890625 -22.533203125 201.890625 -22.533203125 262.109375 8.3671875 c 5,26,27
 328.0390625 130.241210938 328.0390625 130.241210938 394.822265625 286.876953125 c 4,28,29
 506.58203125 549 506.58203125 549 437.72265625 723.318359375 c 4,30,31
 383.200195312 861.350585938 383.200195312 861.350585938 251.185546875 887.560546875 c 4,32,33
 227.4453125 891.927734375 227.4453125 891.927734375 210.64453125 912.100585938 c 132,-1,34
 193.842773438 932.274414062 193.842773438 932.274414062 193.842773438 958.834960938 c 132,-1,0
 193.842773438 985.395507812 193.842773438 985.395507812 214.354492188 1005.90820312 c 132,-1,1
501.857421875 -138.91796875 m 4,35,36
 420.841796875 -66 420.841796875 -66 340.841796875 -102 c 156,-1,37
 260.841796875 -138 260.841796875 -138 244.341796875 -221 c 132,-1,38
 227.841796875 -304 227.841796875 -304 286.341796875 -366 c 132,-1,39
 344.841796875 -428 344.841796875 -428 431.841796875 -408 c 132,-1,40
 518.841796875 -388 518.841796875 -388 547.1640625 -301.002929688 c 4,41,42
 560.841796875 -259 560.841796875 -259 548.341796875 -214.5 c 132,-1,43
 535.841796875 -170 535.841796875 -170 501.857421875 -138.91796875 c 4,35,36
EndSplineSet
EndChar

StartChar: u2
Encoding: 149 3394 98
Width: 974
GlyphClass: 2
Flags: W
LayerCount: 2
Fore
SplineSet
213.841796875 1004.5 m 132,-1,1
 234.341796875 1025 234.341796875 1025 253.341796875 1025 c 4,2,3
 344.341796875 1025 344.341796875 1025 434.841796875 953 c 132,-1,4
 525.341796875 881 525.341796875 881 565.341796875 780.5 c 132,-1,5
 605.341796875 680 605.341796875 680 603.841796875 545 c 132,-1,6
 602.341796875 410 602.341796875 410 507.341796875 193 c 4,7,8
 491.341796875 156 491.341796875 156 447.341796875 62 c 5,9,10
 632.341796875 89 632.341796875 89 783.341796875 -27 c 4,11,12
 854.341796875 -82 854.341796875 -82 901.341796875 -158 c 4,13,14
 977.341796875 -282 977.341796875 -282 974.341796875 -428 c 4,15,16
 969.341796875 -651 969.341796875 -651 802.341796875 -797 c 4,17,18
 697.341796875 -889 697.341796875 -889 578.341796875 -911 c 4,19,20
 349.341796875 -954 349.341796875 -954 174.341796875 -829 c 4,21,22
 144.341796875 -808 144.341796875 -808 143.841796875 -775 c 132,-1,23
 143.341796875 -742 143.341796875 -742 163.841796875 -721.5 c 132,-1,24
 184.341796875 -701 184.341796875 -701 210.341796875 -701 c 132,-1,25
 236.341796875 -701 236.341796875 -701 275.341796875 -729 c 132,-1,26
 314.341796875 -757 314.341796875 -757 388.841796875 -773.5 c 132,-1,27
 463.341796875 -790 463.341796875 -790 534.841796875 -776.5 c 132,-1,28
 606.341796875 -763 606.341796875 -763 669.841796875 -721 c 132,-1,29
 733.341796875 -679 733.341796875 -679 782.841796875 -604.5 c 132,-1,30
 832.341796875 -530 832.341796875 -530 834.341796875 -425 c 132,-1,31
 836.341796875 -320 836.341796875 -320 792.341796875 -248.5 c 132,-1,32
 748.341796875 -177 748.341796875 -177 697.341796875 -138 c 5,33,34
 778.341796875 -286 778.341796875 -286 697.341796875 -444 c 4,35,36
 662.341796875 -512 662.341796875 -512 589.341796875 -558 c 132,-1,37
 516.341796875 -604 516.341796875 -604 430.341796875 -607 c 132,-1,38
 344.341796875 -610 344.341796875 -610 268.841796875 -569 c 132,-1,39
 193.341796875 -528 193.341796875 -528 153.341796875 -463 c 4,40,41
 74.341796875 -334 74.341796875 -334 112.341796875 -205.5 c 132,-1,42
 150.341796875 -77 150.341796875 -77 259.341796875 -13 c 5,43,44
 286.341796875 48 286.341796875 48 327.841796875 137.5 c 132,-1,45
 369.341796875 227 369.341796875 227 379.341796875 250 c 4,46,47
 462.341796875 440 462.341796875 440 464.341796875 547 c 4,48,49
 466.341796875 749 466.341796875 749 354.341796875 838 c 4,50,51
 308.341796875 875 308.341796875 875 267.341796875 883 c 4,52,53
 193.341796875 898 193.341796875 898 193.341796875 955 c 4,54,0
 193.341796875 984 193.341796875 984 213.841796875 1004.5 c 132,-1,1
320.341796875 -146 m 5,55,56
 269.341796875 -193 269.341796875 -193 247.341796875 -256 c 4,57,58
 245.341796875 -261 245.341796875 -261 243.341796875 -265 c 4,59,60
 235.341796875 -330 235.341796875 -330 264.341796875 -376.5 c 132,-1,61
 293.341796875 -423 293.341796875 -423 335.341796875 -445.5 c 132,-1,62
 377.341796875 -468 377.341796875 -468 425.341796875 -466.5 c 132,-1,63
 473.341796875 -465 473.341796875 -465 513.841796875 -439.5 c 132,-1,64
 554.341796875 -414 554.341796875 -414 574.341796875 -377 c 4,65,66
 613.341796875 -302 613.341796875 -302 584.841796875 -227.5 c 132,-1,67
 556.341796875 -153 556.341796875 -153 475.841796875 -123 c 132,-1,68
 395.341796875 -93 395.341796875 -93 320.341796875 -146 c 5,55,56
EndSplineSet
EndChar

StartChar: r1
Encoding: 150 3395 99
Width: 392
GlyphClass: 2
Flags: W
LayerCount: 2
Fore
SplineSet
76 999 m 128,-1,1
 110 999 110 999 128 962 c 0,2,3
 353 514 353 514 271 38 c 0,4,5
 225 -212 225 -212 54 -381 c 0,6,7
 -38 -472 -38 -472 -127.5 -507.5 c 128,-1,8
 -217 -543 -217 -543 -285.5 -555 c 128,-1,9
 -354 -567 -354 -567 -433 -555.5 c 128,-1,10
 -512 -544 -512 -544 -571 -506 c 128,-1,11
 -630 -468 -630 -468 -658.5 -411 c 128,-1,12
 -687 -354 -687 -354 -681 -289.5 c 128,-1,13
 -675 -225 -675 -225 -630 -176 c 0,14,15
 -512 -41 -512 -41 -247 -100 c 0,16,17
 -100 -133 -100 -133 25 -216 c 1,18,19
 115 -93 115 -93 144 62 c 0,20,21
 218 493 218 493 12 904 c 0,22,23
 -10 947 -10 947 16 973 c 128,-1,0
 42 999 42 999 76 999 c 128,-1,1
-64 -313 m 1,24,25
 -224 -214 -224 -214 -390 -212 c 0,26,27
 -488 -210 -488 -210 -533 -262 c 0,28,29
 -533 -263 -533 -263 -534 -263 c 0,30,31
 -557 -289 -557 -289 -547.5 -330.5 c 128,-1,32
 -538 -372 -538 -372 -506 -393 c 1,33,34
 -505 -393 -505 -393 -506 -393 c 1,35,36
 -388 -471 -388 -471 -196 -395 c 0,37,38
 -125 -365 -125 -365 -64 -313 c 1,24,25
EndSplineSet
EndChar

StartChar: e1
Encoding: 152 3398 100
Width: 1378
GlyphClass: 2
Flags: W
LayerCount: 2
Fore
SplineSet
646 511 m 132,-1,1
 580 577 580 577 502.5 577 c 132,-1,2
 425 577 425 577 373 547 c 132,-1,3
 321 517 321 517 291 465 c 132,-1,4
 261 413 261 413 261 336 c 132,-1,5
 261 259 261 259 327 193 c 132,-1,6
 393 127 393 127 486.5 127 c 132,-1,7
 580 127 580 127 646 192.5 c 132,-1,8
 712 258 712 258 712 351.5 c 132,-1,0
 712 445 712 445 646 511 c 132,-1,1
527 988 m 4,9,10
 770 1056 770 1056 987 927 c 4,11,12
 1142 835 1142 835 1220 673 c 132,-1,13
 1298 511 1298 511 1272 333 c 132,-1,14
 1246 155 1246 155 1126 21 c 4,15,16
 1107 -1 1107 -1 1077.5 -3 c 132,-1,17
 1048 -5 1048 -5 1026.5 15 c 132,-1,18
 1005 35 1005 35 1003.5 64 c 132,-1,19
 1002 93 1002 93 1022 115 c 4,20,21
 1114 217 1114 217 1133.5 353 c 132,-1,22
 1153 489 1153 489 1093.5 613 c 132,-1,23
 1034 737 1034 737 916 807 c 132,-1,24
 798 877 798 877 653 868.5 c 132,-1,25
 508 860 508 860 393 761 c 4,26,27
 342 717 342 717 305 657 c 5,28,29
 433 731 433 731 575 695 c 4,30,31
 665 672 665 672 724 617 c 4,32,33
 879 472 879 472 840 277 c 4,34,35
 822 185 822 185 769 124 c 4,36,37
 666 6 666 6 522 -5 c 4,38,39
 419 -13 419 -13 327.5 35.5 c 132,-1,40
 236 84 236 84 180 167 c 132,-1,41
 124 250 124 250 107.5 349.5 c 132,-1,42
 91 449 91 449 110 542 c 4,43,44
 151 737 151 737 302 867 c 4,45,46
 401 953 401 953 527 988 c 4,9,10
EndSplineSet
EndChar

StartChar: e2
Encoding: 153 3399 101
Width: 1022
GlyphClass: 2
Flags: W
LayerCount: 2
Fore
SplineSet
797.157226562 764.5 m 132,-1,1
 797.157226562 810 797.157226562 810 765.157226562 842.5 c 132,-1,2
 733.157226562 875 733.157226562 875 687.157226562 875 c 132,-1,3
 641.157226562 875 641.157226562 875 608.657226562 842.5 c 132,-1,4
 576.157226562 810 576.157226562 810 576.157226562 764.5 c 132,-1,5
 576.157226562 719 576.157226562 719 608.657226562 686.5 c 132,-1,6
 641.157226562 654 641.157226562 654 687.157226562 654 c 132,-1,7
 733.157226562 654 733.157226562 654 765.157226562 686.5 c 132,-1,0
 797.157226562 719 797.157226562 719 797.157226562 764.5 c 132,-1,1
803.157226562 251 m 132,-1,9
 803.157226562 295 803.157226562 295 771.657226562 326.5 c 132,-1,10
 740.157226562 358 740.157226562 358 695.657226562 358 c 132,-1,11
 651.157226562 358 651.157226562 358 620.157226562 326.5 c 132,-1,12
 589.157226562 295 589.157226562 295 589.157226562 251 c 132,-1,13
 589.157226562 207 589.157226562 207 620.157226562 175.5 c 132,-1,14
 651.157226562 144 651.157226562 144 695.657226562 144 c 132,-1,15
 740.157226562 144 740.157226562 144 771.657226562 175.5 c 132,-1,8
 803.157226562 207 803.157226562 207 803.157226562 251 c 132,-1,9
610.157226562 1018 m 4,16,17
 739.157226562 1010 739.157226562 1010 821.157226562 936 c 4,18,19
 870.157226562 892 870.157226562 892 893.157226562 830.5 c 132,-1,20
 916.157226562 769 916.157226562 769 901.657226562 705.5 c 132,-1,21
 887.157226562 642 887.157226562 642 842.157226562 598 c 132,-1,22
 797.157226562 554 797.157226562 554 736.657226562 540.5 c 132,-1,23
 676.157226562 527 676.157226562 527 617.657226562 546.5 c 132,-1,24
 559.157226562 566 559.157226562 566 516.657226562 615 c 132,-1,25
 474.157226562 664 474.157226562 664 467.157226562 718 c 4,26,27
 453.157226562 830 453.157226562 830 513.157226562 895 c 5,28,29
 425.157226562 869 425.157226562 869 358.157226562 793 c 4,30,31
 153.157226562 562 153.157226562 562 311.157226562 304 c 4,32,33
 385.157226562 183 385.157226562 183 523.157226562 125 c 5,34,35
 447.157226562 236 447.157226562 236 476.157226562 325 c 132,-1,36
 505.157226562 414 505.157226562 414 600.157226562 463.5 c 132,-1,37
 695.157226562 513 695.157226562 513 802.657226562 455.5 c 132,-1,38
 910.157226562 398 910.157226562 398 921.157226562 277 c 4,39,40
 929.157226562 194 929.157226562 194 884.157226562 126 c 132,-1,41
 839.157226562 58 839.157226562 58 764.157226562 24 c 4,42,43
 643.157226562 -32 643.157226562 -32 474.157226562 19 c 132,-1,44
 305.157226562 70 305.157226562 70 194.657226562 226 c 132,-1,45
 84.1572265625 382 84.1572265625 382 102.157226562 575 c 132,-1,46
 120.157226562 768 120.157226562 768 267.157226562 899 c 132,-1,47
 414.157226562 1030 414.157226562 1030 610.157226562 1018 c 4,16,17
EndSplineSet
EndChar

StartChar: xx
Encoding: 158 3405 106
Width: 142
GlyphClass: 4
Flags: W
LayerCount: 2
Fore
SplineSet
-276 1413.5 m 128,-1,1
 -256 1429 -256 1429 -230 1429 c 128,-1,2
 -204 1429 -204 1429 -183.5 1408 c 128,-1,3
 -163 1387 -163 1387 -163 1368.5 c 128,-1,4
 -163 1350 -163 1350 -169 1326.5 c 128,-1,5
 -175 1303 -175 1303 -167 1262 c 128,-1,6
 -159 1221 -159 1221 -136 1190 c 0,7,8
 -86 1121 -86 1121 -1 1116 c 0,9,10
 40 1113 40 1113 81 1131 c 128,-1,11
 122 1149 122 1149 149 1180 c 0,12,13
 208 1250 208 1250 186 1338 c 0,14,15
 184 1346 184 1346 184 1365 c 128,-1,16
 184 1384 184 1384 204.5 1404.5 c 128,-1,17
 225 1425 225 1425 251.5 1425 c 128,-1,18
 278 1425 278 1425 298 1409 c 128,-1,19
 318 1393 318 1393 323 1370 c 0,20,21
 340 1296 340 1296 322 1222 c 128,-1,22
 304 1148 304 1148 255.5 1090 c 128,-1,23
 207 1032 207 1032 136 1002 c 0,24,25
 18 952 18 952 -87 990.5 c 128,-1,26
 -192 1029 -192 1029 -242 1097 c 0,27,28
 -338 1229 -338 1229 -301 1375 c 0,29,0
 -296 1398 -296 1398 -276 1413.5 c 128,-1,1
EndSplineSet
EndChar

StartChar: au2
Encoding: 160 3415 108
Width: 1530
GlyphClass: 2
Flags: W
LayerCount: 2
Fore
SplineSet
368 1006 m 4,0,1
 451 1034 451 1034 545 1014 c 4,2,3
 682 986 682 986 763 870 c 5,4,5
 845 976 845 976 977 1008 c 4,6,7
 1158 1052 1158 1052 1304 934 c 4,8,9
 1370 882 1370 882 1411 808 c 4,10,11
 1491 665 1491 665 1461.5 503.5 c 132,-1,12
 1432 342 1432 342 1326 226 c 132,-1,13
 1220 110 1220 110 1069 47 c 132,-1,14
 918 -16 918 -16 749 -15 c 132,-1,15
 580 -14 580 -14 428 54 c 4,16,17
 401 65 401 65 390 92.5 c 132,-1,18
 379 120 379 120 391 147 c 132,-1,19
 403 174 403 174 430.5 184 c 132,-1,20
 458 194 458 194 485 182 c 4,21,22
 609 127 609 127 750.5 125.5 c 132,-1,23
 892 124 892 124 1015 176 c 132,-1,24
 1138 228 1138 228 1220 317 c 132,-1,25
 1302 406 1302 406 1323 523 c 132,-1,26
 1344 640 1344 640 1287.5 742 c 132,-1,27
 1231 844 1231 844 1123 870 c 4,28,29
 1068 884 1068 884 1009 870 c 4,30,31
 831 828 831 828 827 592 c 5,32,33
 822 566 822 566 801.5 551 c 132,-1,34
 781 536 781 536 755 537 c 132,-1,35
 729 538 729 538 710 556 c 132,-1,36
 691 574 691 574 689.5 590 c 132,-1,37
 688 606 688 606 688 656 c 4,38,39
 686 764 686 764 616 826 c 4,40,41
 572 864 572 864 515.5 876 c 132,-1,42
 459 888 459 888 409 872 c 4,43,44
 307 839 307 839 269.5 744.5 c 132,-1,45
 232 650 232 650 280 560 c 4,46,47
 294 534 294 534 286 506 c 132,-1,48
 278 478 278 478 252 464 c 132,-1,49
 226 450 226 450 198 459 c 132,-1,50
 170 468 170 468 157 494 c 4,51,52
 78 641 78 641 139.5 796 c 132,-1,53
 201 951 201 951 368 1006 c 4,0,1
EndSplineSet
EndChar

StartChar: datemark
Encoding: 164 3449 109
Width: 2321
GlyphClass: 2
Flags: W
LayerCount: 2
Fore
SplineSet
126.5 658 m 128,-1,1
 162 763 162 763 235 839.5 c 128,-1,2
 308 916 308 916 409.5 960 c 128,-1,3
 511 1004 511 1004 623 998 c 0,4,5
 881 985 881 985 999 772 c 1,6,7
 999 773 999 773 1000 774 c 0,8,9
 1092 937 1092 937 1313 986 c 0,10,11
 1421 1010 1421 1010 1544.5 980.5 c 128,-1,12
 1668 951 1668 951 1769 867 c 128,-1,13
 1870 783 1870 783 1922 653 c 1,14,-1
 2152 649 l 2,15,16
 2181 649 2181 649 2201.5 628.5 c 128,-1,17
 2222 608 2222 608 2222 584 c 128,-1,18
 2222 560 2222 560 2213 544 c 0,19,20
 2193 509 2193 509 2152 509 c 0,21,22
 2151 509 2151 509 2150 509 c 2,23,-1
 1957 512 l 1,24,25
 1972 383 1972 383 1934 282 c 0,26,27
 1858 82 1858 82 1685 22 c 0,28,29
 1594 -10 1594 -10 1507.5 7 c 128,-1,30
 1421 24 1421 24 1356.5 76.5 c 128,-1,31
 1292 129 1292 129 1261.5 207 c 128,-1,32
 1231 285 1231 285 1244 368.5 c 128,-1,33
 1257 452 1257 452 1308 513 c 0,34,35
 1399 620 1399 620 1573 646 c 0,36,37
 1649 657 1649 657 1765 655 c 1,38,39
 1680 803 1680 803 1511 844 c 0,40,41
 1418 867 1418 867 1340 849 c 0,42,43
 1114 798 1114 798 1075 579 c 0,44,45
 1066 530 1066 530 1065 433 c 2,46,-1
 1062 63 l 1,47,-1
 1062 62 l 1,48,49
 1061 17 1061 17 1019 -1 c 0,50,51
 1006 -6 1006 -6 984.5 -6 c 128,-1,52
 963 -6 963 -6 942.5 14 c 128,-1,53
 922 34 922 34 922 63 c 2,54,-1
 924 433 l 2,55,56
 925 540 925 540 913 605.5 c 128,-1,57
 901 671 901 671 861 729 c 0,58,59
 778 850 778 850 620 858 c 0,60,61
 543 862 543 862 467.5 832 c 128,-1,62
 392 802 392 802 339 746 c 128,-1,63
 286 690 286 690 260 613 c 128,-1,64
 234 536 234 536 242 459 c 128,-1,65
 250 382 250 382 291.5 312.5 c 128,-1,66
 333 243 333 243 396.5 199 c 128,-1,67
 460 155 460 155 540 141.5 c 128,-1,68
 620 128 620 128 695 148 c 0,69,70
 732.5 160.5 732.5 160.5 758.25 134.75 c 128,-1,71
 784 109 784 109 784 87 c 0,72,73
 784 25 784 25 731 12 c 0,74,75
 626 -16 626 -16 516.5 3 c 128,-1,76
 407 22 407 22 317 84 c 128,-1,77
 227 146 227 146 170.5 241 c 128,-1,78
 114 336 114 336 102.5 444.5 c 128,-1,0
 91 553 91 553 126.5 658 c 128,-1,1
1815 514 m 1,79,80
 1660 517 1660 517 1598 508 c 0,81,82
 1403 480 1403 480 1382 346 c 0,83,84
 1367 248 1367 248 1448.5 182 c 128,-1,85
 1530 116 1530 116 1640 154.5 c 128,-1,86
 1750 193 1750 193 1797 317 c 0,87,88
 1832 411 1832 411 1815 514 c 1,79,80
EndSplineSet
EndChar

StartChar: ZWNJ
Encoding: 171 8204 110
Width: 321
GlyphClass: 2
Flags: W
LayerCount: 2
Fore
SplineSet
66 992 m 5,0,-1
 225 992 l 5,1,-1
 225 3 l 5,2,-1
 66 3 l 5,3,-1
 66 992 l 5,0,-1
EndSplineSet
EndChar

StartChar: ZWJ
Encoding: 172 8205 111
Width: 321
GlyphClass: 2
Flags: W
LayerCount: 2
Fore
SplineSet
148 1003 m 5,0,-1
 14 795 l 5,1,-1
 -90 795 l 5,2,-1
 96 1067 l 5,3,-1
 -76 1315 l 5,4,-1
 33 1315 l 5,5,-1
 111 1194 l 6,6,7
 120 1180 120 1180 145 1135 c 5,8,-1
 270 1315 l 5,9,-1
 377 1315 l 5,10,-1
 199 1071 l 5,11,-1
 387 795 l 5,12,-1
 283 795 l 5,13,-1
 148 1003 l 5,0,-1
70 879 m 5,14,-1
 224 879 l 5,15,-1
 224 4 l 5,16,-1
 70 4 l 5,17,-1
 70 879 l 5,14,-1
EndSplineSet
EndChar

StartChar: rupee
Encoding: 173 8377 112
Width: 1231
GlyphClass: 2
Flags: W
LayerCount: 2
Fore
SplineSet
470 1310 m 2,0,-1
 1059 1308 l 2,1,2
 1086 1308 1086 1308 1105 1288.5 c 128,-1,3
 1124 1269 1124 1269 1124 1242.5 c 128,-1,4
 1124 1216 1124 1216 1104.5 1196.5 c 128,-1,5
 1085 1177 1085 1177 1059 1178 c 0,6,7
 906 1178 906 1178 754 1179 c 1,8,9
 828 1073 828 1073 808 936 c 1,10,11
 937 936 937 936 1067 935 c 0,12,13
 1094 935 1094 935 1113 916 c 128,-1,14
 1132 897 1132 897 1132 870.5 c 128,-1,15
 1132 844 1132 844 1112.5 824.5 c 128,-1,16
 1093 805 1093 805 1067 805 c 0,17,18
 918 806 918 806 768 806 c 1,19,20
 690 643 690 643 526 537 c 0,21,22
 465 498 465 498 399 473 c 1,23,-1
 891 82 l 2,24,25
 912 65 912 65 915 38 c 128,-1,26
 918 11 918 11 901.5 -9.5 c 128,-1,27
 885 -30 885 -30 858 -33.5 c 128,-1,28
 831 -37 831 -37 810 -20 c 2,29,-1
 218 450 l 2,30,31
 199 465 199 465 194.5 490.5 c 128,-1,32
 190 516 190 516 205.5 538.5 c 128,-1,33
 221 561 221 561 248 565 c 0,34,35
 359 584 359 584 457 647.5 c 128,-1,36
 555 711 555 711 619 807 c 1,37,38
 396 808 396 808 173 808 c 0,39,40
 146 808 146 808 127 827.5 c 128,-1,41
 108 847 108 847 108 873.5 c 128,-1,42
 108 900 108 900 127 919.5 c 128,-1,43
 146 939 146 939 173 938 c 2,44,-1
 676 937 l 1,45,46
 690 1003 690 1003 669 1062 c 128,-1,47
 648 1121 648 1121 603 1147.5 c 128,-1,48
 558 1174 558 1174 523 1179 c 1,49,-1
 477 1180 l 2,50,51
 473 1180 473 1180 463.5 1178 c 128,-1,52
 454 1176 454 1176 441 1180 c 1,53,54
 303 1180 303 1180 165 1181 c 0,55,56
 138 1181 138 1181 119 1200 c 128,-1,57
 100 1219 100 1219 100 1245.5 c 128,-1,58
 100 1272 100 1272 119.5 1291.5 c 128,-1,59
 139 1311 139 1311 165 1311 c 0,60,61
 317 1310 317 1310 470 1310 c 2,0,-1
EndSplineSet
EndChar

StartChar: uni25CC
Encoding: 174 9676 113
Width: 1131
GlyphClass: 2
Flags: W
LayerCount: 2
Fore
SplineSet
930 710 m 1,0,1
 866 817 866 817 794 843 c 1,2,-1
 868 944 l 1,3,4
 948 892 948 892 980 860 c 1,5,-1
 984 858 l 1,6,7
 1022 811 1022 811 1038 784 c 1,8,-1
 930 710 l 1,0,1
686 1017 m 1,9,-1
 666 897 l 1,10,11
 602 907 602 907 568 907 c 128,-1,12
 534 907 534 907 470 897 c 1,13,-1
 450 1017 l 1,14,15
 521 1033 521 1033 570 1033 c 128,-1,16
 619 1033 619 1033 686 1017 c 1,9,-1
1098 630 m 1,17,18
 1112 573 1112 573 1112 517.5 c 128,-1,19
 1112 462 1112 462 1098 405 c 1,20,-1
 972 426 l 1,21,22
 981 486 981 486 981 514.5 c 128,-1,23
 981 543 981 543 972 609 c 1,24,-1
 1098 630 l 1,17,18
1038 250 m 1,25,26
 980 170 980 170 954 142 c 1,27,-1
 952 142 l 1,28,29
 950 140 950 140 868 91 c 1,30,-1
 794 192 l 1,31,32
 866 236 866 236 888 260 c 1,33,34
 924 312 924 312 930 325 c 1,35,-1
 1038 250 l 1,25,26
348 843 m 1,36,37
 264 796 264 796 252 771 c 1,38,-1
 212 710 l 1,39,-1
 104 784 l 1,40,41
 156 860 156 860 186 888 c 0,42,43
 198 897 198 897 270 944 c 1,44,-1
 348 843 l 1,36,37
170 426 m 1,45,-1
 42 405 l 1,46,47
 30 461 30 461 30 517 c 128,-1,48
 30 573 30 573 42 630 c 1,49,-1
 170 609 l 1,50,51
 158 576 158 576 158 517.5 c 128,-1,52
 158 459 158 459 170 426 c 1,45,-1
686 18 m 1,53,54
 640 4 640 4 571 4 c 128,-1,55
 502 4 502 4 450 18 c 1,56,-1
 470 138 l 1,57,58
 535 128 535 128 568.5 128 c 128,-1,59
 602 128 602 128 666 138 c 1,60,-1
 686 18 l 1,53,54
348 192 m 1,61,-1
 270 91 l 1,62,63
 178 150 178 150 158 175 c 1,64,-1
 156 175 l 1,65,-1
 104 250 l 1,66,-1
 212 325 l 1,67,68
 262 248 262 248 278 237 c 128,-1,69
 294 226 294 226 348 192 c 1,61,-1
EndSplineSet
EndChar

StartChar: r4
Encoding: 178 -1 114
Width: 615
GlyphClass: 2
LigCaretCntFixed: 1
Flags: W
LayerCount: 2
Fore
SplineSet
516 -233.5 m 132,-1,1
 515 -260 515 -260 495 -278.5 c 132,-1,2
 475 -297 475 -297 448 -296 c 4,3,4
 211 -287 211 -287 135 -110 c 4,5,6
 74 32 74 32 118 342 c 4,7,8
 135 465 135 465 181.5 699.5 c 132,-1,9
 228 934 228 934 234 966.5 c 132,-1,10
 240 999 240 999 262.5 1014.5 c 132,-1,11
 285 1030 285 1030 311.5 1025 c 132,-1,12
 338 1020 338 1020 353 997 c 132,-1,13
 368 974 368 974 362 942 c 4,14,15
 270 482 270 482 247 324 c 4,16,17
 209 50 209 50 253.5 -55.5 c 132,-1,18
 298 -161 298 -161 453 -166 c 4,19,20
 480 -167 480 -167 498.5 -187 c 132,-1,0
 517 -207 517 -207 516 -233.5 c 132,-1,1
EndSplineSet
Ligature2: "'pstf' Post Base Forms in Malay+AQEA-lam lookup 11 subtable" r3 xx
Ligature2: "'pref' Pre Base Forms in Malay+AQEA-lam2 lookup 2 subtable" xx r3
LCarets2: 1 0
EndChar

